G75*
%MOIN*%
%OFA0B0*%
%FSLAX24Y24*%
%IPPOS*%
%LPD*%
%AMOC8*
5,1,8,0,0,1.08239X$1,22.5*
%
%ADD10C,0.5000*%
%ADD11C,0.0540*%
%ADD12C,0.0660*%
%ADD13C,0.0045*%
%ADD14C,0.0055*%
%ADD15C,0.0414*%
%ADD16C,0.0042*%
%ADD17C,0.0051*%
%ADD18C,0.0050*%
%ADD19C,0.0047*%
%ADD20C,0.0049*%
%ADD21OC8,0.0540*%
%ADD22OC8,0.0660*%
%ADD23R,0.0540X0.0540*%
%ADD24C,0.0540*%
%ADD25C,0.0047*%
%ADD26R,0.0060X0.0720*%
D10*
X003070Y013120D02*
X003072Y013176D01*
X003078Y013233D01*
X003088Y013288D01*
X003102Y013343D01*
X003119Y013397D01*
X003141Y013449D01*
X003166Y013499D01*
X003194Y013548D01*
X003226Y013595D01*
X003261Y013639D01*
X003299Y013681D01*
X003340Y013720D01*
X003384Y013755D01*
X003430Y013788D01*
X003478Y013817D01*
X003528Y013843D01*
X003580Y013866D01*
X003634Y013884D01*
X003688Y013899D01*
X003743Y013910D01*
X003799Y013917D01*
X003856Y013920D01*
X003912Y013919D01*
X003969Y013914D01*
X004024Y013905D01*
X004079Y013892D01*
X004133Y013875D01*
X004186Y013855D01*
X004237Y013831D01*
X004286Y013803D01*
X004333Y013772D01*
X004378Y013738D01*
X004421Y013700D01*
X004460Y013660D01*
X004497Y013617D01*
X004530Y013572D01*
X004560Y013524D01*
X004587Y013474D01*
X004610Y013423D01*
X004630Y013370D01*
X004646Y013316D01*
X004658Y013260D01*
X004666Y013205D01*
X004670Y013148D01*
X004670Y013092D01*
X004666Y013035D01*
X004658Y012980D01*
X004646Y012924D01*
X004630Y012870D01*
X004610Y012817D01*
X004587Y012766D01*
X004560Y012716D01*
X004530Y012668D01*
X004497Y012623D01*
X004460Y012580D01*
X004421Y012540D01*
X004378Y012502D01*
X004333Y012468D01*
X004286Y012437D01*
X004237Y012409D01*
X004186Y012385D01*
X004133Y012365D01*
X004079Y012348D01*
X004024Y012335D01*
X003969Y012326D01*
X003912Y012321D01*
X003856Y012320D01*
X003799Y012323D01*
X003743Y012330D01*
X003688Y012341D01*
X003634Y012356D01*
X003580Y012374D01*
X003528Y012397D01*
X003478Y012423D01*
X003430Y012452D01*
X003384Y012485D01*
X003340Y012520D01*
X003299Y012559D01*
X003261Y012601D01*
X003226Y012645D01*
X003194Y012692D01*
X003166Y012741D01*
X003141Y012791D01*
X003119Y012843D01*
X003102Y012897D01*
X003088Y012952D01*
X003078Y013007D01*
X003072Y013064D01*
X003070Y013120D01*
D11*
X016351Y020442D02*
X016351Y020922D01*
X017351Y020922D02*
X017351Y020442D01*
X018351Y020442D02*
X018351Y020922D01*
X019351Y020922D02*
X019351Y020442D01*
X020351Y020442D02*
X020351Y020922D01*
X021351Y020922D02*
X021351Y020442D01*
D12*
X002920Y005510D02*
X002320Y005510D01*
X004880Y005510D02*
X005480Y005510D01*
X005480Y007290D02*
X004880Y007290D01*
X002920Y007290D02*
X002320Y007290D01*
X009320Y007290D02*
X009920Y007290D01*
X011880Y007290D02*
X012480Y007290D01*
X012480Y005510D02*
X011880Y005510D01*
X009920Y005510D02*
X009320Y005510D01*
X016320Y005510D02*
X016920Y005510D01*
X018880Y005510D02*
X019480Y005510D01*
X019480Y007290D02*
X018880Y007290D01*
X016920Y007290D02*
X016320Y007290D01*
X023320Y007290D02*
X023920Y007290D01*
X025880Y007290D02*
X026480Y007290D01*
X026480Y005510D02*
X025880Y005510D01*
X023920Y005510D02*
X023320Y005510D01*
X014130Y013610D02*
X013530Y013610D01*
X011570Y013610D02*
X010970Y013610D01*
X010970Y015390D02*
X011570Y015390D01*
X013530Y015390D02*
X014130Y015390D01*
D13*
X014070Y018576D02*
X013660Y018576D01*
X013660Y019024D01*
X014070Y019024D01*
X014070Y018576D01*
X014070Y018620D02*
X013660Y018620D01*
X013660Y018664D02*
X014070Y018664D01*
X014070Y018708D02*
X013660Y018708D01*
X013660Y018752D02*
X014070Y018752D01*
X014070Y018796D02*
X013660Y018796D01*
X013660Y018840D02*
X014070Y018840D01*
X014070Y018884D02*
X013660Y018884D01*
X013660Y018928D02*
X014070Y018928D01*
X014070Y018972D02*
X013660Y018972D01*
X013660Y019016D02*
X014070Y019016D01*
X014330Y018576D02*
X014740Y018576D01*
X014330Y018576D02*
X014330Y019024D01*
X014740Y019024D01*
X014740Y018576D01*
X014740Y018620D02*
X014330Y018620D01*
X014330Y018664D02*
X014740Y018664D01*
X014740Y018708D02*
X014330Y018708D01*
X014330Y018752D02*
X014740Y018752D01*
X014740Y018796D02*
X014330Y018796D01*
X014330Y018840D02*
X014740Y018840D01*
X014740Y018884D02*
X014330Y018884D01*
X014330Y018928D02*
X014740Y018928D01*
X014740Y018972D02*
X014330Y018972D01*
X014330Y019016D02*
X014740Y019016D01*
X012490Y018576D02*
X012080Y018576D01*
X012080Y019024D01*
X012490Y019024D01*
X012490Y018576D01*
X012490Y018620D02*
X012080Y018620D01*
X012080Y018664D02*
X012490Y018664D01*
X012490Y018708D02*
X012080Y018708D01*
X012080Y018752D02*
X012490Y018752D01*
X012490Y018796D02*
X012080Y018796D01*
X012080Y018840D02*
X012490Y018840D01*
X012490Y018884D02*
X012080Y018884D01*
X012080Y018928D02*
X012490Y018928D01*
X012490Y018972D02*
X012080Y018972D01*
X012080Y019016D02*
X012490Y019016D01*
X011820Y018576D02*
X011410Y018576D01*
X011410Y019024D01*
X011820Y019024D01*
X011820Y018576D01*
X011820Y018620D02*
X011410Y018620D01*
X011410Y018664D02*
X011820Y018664D01*
X011820Y018708D02*
X011410Y018708D01*
X011410Y018752D02*
X011820Y018752D01*
X011820Y018796D02*
X011410Y018796D01*
X011410Y018840D02*
X011820Y018840D01*
X011820Y018884D02*
X011410Y018884D01*
X011410Y018928D02*
X011820Y018928D01*
X011820Y018972D02*
X011410Y018972D01*
X011410Y019016D02*
X011820Y019016D01*
X026374Y016390D02*
X026374Y015980D01*
X025926Y015980D01*
X025926Y016390D01*
X026374Y016390D01*
X026374Y016024D02*
X025926Y016024D01*
X025926Y016068D02*
X026374Y016068D01*
X026374Y016112D02*
X025926Y016112D01*
X025926Y016156D02*
X026374Y016156D01*
X026374Y016200D02*
X025926Y016200D01*
X025926Y016244D02*
X026374Y016244D01*
X026374Y016288D02*
X025926Y016288D01*
X025926Y016332D02*
X026374Y016332D01*
X026374Y016376D02*
X025926Y016376D01*
X026374Y015720D02*
X026374Y015310D01*
X025926Y015310D01*
X025926Y015720D01*
X026374Y015720D01*
X026374Y015354D02*
X025926Y015354D01*
X025926Y015398D02*
X026374Y015398D01*
X026374Y015442D02*
X025926Y015442D01*
X025926Y015486D02*
X026374Y015486D01*
X026374Y015530D02*
X025926Y015530D01*
X025926Y015574D02*
X026374Y015574D01*
X026374Y015618D02*
X025926Y015618D01*
X025926Y015662D02*
X026374Y015662D01*
X026374Y015706D02*
X025926Y015706D01*
X025174Y011340D02*
X025174Y010930D01*
X024726Y010930D01*
X024726Y011340D01*
X025174Y011340D01*
X025174Y010974D02*
X024726Y010974D01*
X024726Y011018D02*
X025174Y011018D01*
X025174Y011062D02*
X024726Y011062D01*
X024726Y011106D02*
X025174Y011106D01*
X025174Y011150D02*
X024726Y011150D01*
X024726Y011194D02*
X025174Y011194D01*
X025174Y011238D02*
X024726Y011238D01*
X024726Y011282D02*
X025174Y011282D01*
X025174Y011326D02*
X024726Y011326D01*
X025174Y010670D02*
X025174Y010260D01*
X024726Y010260D01*
X024726Y010670D01*
X025174Y010670D01*
X025174Y010304D02*
X024726Y010304D01*
X024726Y010348D02*
X025174Y010348D01*
X025174Y010392D02*
X024726Y010392D01*
X024726Y010436D02*
X025174Y010436D01*
X025174Y010480D02*
X024726Y010480D01*
X024726Y010524D02*
X025174Y010524D01*
X025174Y010568D02*
X024726Y010568D01*
X024726Y010612D02*
X025174Y010612D01*
X025174Y010656D02*
X024726Y010656D01*
X028374Y010670D02*
X028374Y010260D01*
X027926Y010260D01*
X027926Y010670D01*
X028374Y010670D01*
X028374Y010304D02*
X027926Y010304D01*
X027926Y010348D02*
X028374Y010348D01*
X028374Y010392D02*
X027926Y010392D01*
X027926Y010436D02*
X028374Y010436D01*
X028374Y010480D02*
X027926Y010480D01*
X027926Y010524D02*
X028374Y010524D01*
X028374Y010568D02*
X027926Y010568D01*
X027926Y010612D02*
X028374Y010612D01*
X028374Y010656D02*
X027926Y010656D01*
X028374Y010930D02*
X028374Y011340D01*
X028374Y010930D02*
X027926Y010930D01*
X027926Y011340D01*
X028374Y011340D01*
X028374Y010974D02*
X027926Y010974D01*
X027926Y011018D02*
X028374Y011018D01*
X028374Y011062D02*
X027926Y011062D01*
X027926Y011106D02*
X028374Y011106D01*
X028374Y011150D02*
X027926Y011150D01*
X027926Y011194D02*
X028374Y011194D01*
X028374Y011238D02*
X027926Y011238D01*
X027926Y011282D02*
X028374Y011282D01*
X028374Y011326D02*
X027926Y011326D01*
X025440Y008624D02*
X025030Y008624D01*
X025440Y008624D02*
X025440Y008176D01*
X025030Y008176D01*
X025030Y008624D01*
X025030Y008220D02*
X025440Y008220D01*
X025440Y008264D02*
X025030Y008264D01*
X025030Y008308D02*
X025440Y008308D01*
X025440Y008352D02*
X025030Y008352D01*
X025030Y008396D02*
X025440Y008396D01*
X025440Y008440D02*
X025030Y008440D01*
X025030Y008484D02*
X025440Y008484D01*
X025440Y008528D02*
X025030Y008528D01*
X025030Y008572D02*
X025440Y008572D01*
X025440Y008616D02*
X025030Y008616D01*
X024770Y008624D02*
X024360Y008624D01*
X024770Y008624D02*
X024770Y008176D01*
X024360Y008176D01*
X024360Y008624D01*
X024360Y008220D02*
X024770Y008220D01*
X024770Y008264D02*
X024360Y008264D01*
X024360Y008308D02*
X024770Y008308D01*
X024770Y008352D02*
X024360Y008352D01*
X024360Y008396D02*
X024770Y008396D01*
X024770Y008440D02*
X024360Y008440D01*
X024360Y008484D02*
X024770Y008484D01*
X024770Y008528D02*
X024360Y008528D01*
X024360Y008572D02*
X024770Y008572D01*
X024770Y008616D02*
X024360Y008616D01*
X018440Y008624D02*
X018030Y008624D01*
X018440Y008624D02*
X018440Y008176D01*
X018030Y008176D01*
X018030Y008624D01*
X018030Y008220D02*
X018440Y008220D01*
X018440Y008264D02*
X018030Y008264D01*
X018030Y008308D02*
X018440Y008308D01*
X018440Y008352D02*
X018030Y008352D01*
X018030Y008396D02*
X018440Y008396D01*
X018440Y008440D02*
X018030Y008440D01*
X018030Y008484D02*
X018440Y008484D01*
X018440Y008528D02*
X018030Y008528D01*
X018030Y008572D02*
X018440Y008572D01*
X018440Y008616D02*
X018030Y008616D01*
X017770Y008624D02*
X017360Y008624D01*
X017770Y008624D02*
X017770Y008176D01*
X017360Y008176D01*
X017360Y008624D01*
X017360Y008220D02*
X017770Y008220D01*
X017770Y008264D02*
X017360Y008264D01*
X017360Y008308D02*
X017770Y008308D01*
X017770Y008352D02*
X017360Y008352D01*
X017360Y008396D02*
X017770Y008396D01*
X017770Y008440D02*
X017360Y008440D01*
X017360Y008484D02*
X017770Y008484D01*
X017770Y008528D02*
X017360Y008528D01*
X017360Y008572D02*
X017770Y008572D01*
X017770Y008616D02*
X017360Y008616D01*
X011440Y008624D02*
X011030Y008624D01*
X011440Y008624D02*
X011440Y008176D01*
X011030Y008176D01*
X011030Y008624D01*
X011030Y008220D02*
X011440Y008220D01*
X011440Y008264D02*
X011030Y008264D01*
X011030Y008308D02*
X011440Y008308D01*
X011440Y008352D02*
X011030Y008352D01*
X011030Y008396D02*
X011440Y008396D01*
X011440Y008440D02*
X011030Y008440D01*
X011030Y008484D02*
X011440Y008484D01*
X011440Y008528D02*
X011030Y008528D01*
X011030Y008572D02*
X011440Y008572D01*
X011440Y008616D02*
X011030Y008616D01*
X010770Y008624D02*
X010360Y008624D01*
X010770Y008624D02*
X010770Y008176D01*
X010360Y008176D01*
X010360Y008624D01*
X010360Y008220D02*
X010770Y008220D01*
X010770Y008264D02*
X010360Y008264D01*
X010360Y008308D02*
X010770Y008308D01*
X010770Y008352D02*
X010360Y008352D01*
X010360Y008396D02*
X010770Y008396D01*
X010770Y008440D02*
X010360Y008440D01*
X010360Y008484D02*
X010770Y008484D01*
X010770Y008528D02*
X010360Y008528D01*
X010360Y008572D02*
X010770Y008572D01*
X010770Y008616D02*
X010360Y008616D01*
X004440Y008624D02*
X004030Y008624D01*
X004440Y008624D02*
X004440Y008176D01*
X004030Y008176D01*
X004030Y008624D01*
X004030Y008220D02*
X004440Y008220D01*
X004440Y008264D02*
X004030Y008264D01*
X004030Y008308D02*
X004440Y008308D01*
X004440Y008352D02*
X004030Y008352D01*
X004030Y008396D02*
X004440Y008396D01*
X004440Y008440D02*
X004030Y008440D01*
X004030Y008484D02*
X004440Y008484D01*
X004440Y008528D02*
X004030Y008528D01*
X004030Y008572D02*
X004440Y008572D01*
X004440Y008616D02*
X004030Y008616D01*
X003770Y008624D02*
X003360Y008624D01*
X003770Y008624D02*
X003770Y008176D01*
X003360Y008176D01*
X003360Y008624D01*
X003360Y008220D02*
X003770Y008220D01*
X003770Y008264D02*
X003360Y008264D01*
X003360Y008308D02*
X003770Y008308D01*
X003770Y008352D02*
X003360Y008352D01*
X003360Y008396D02*
X003770Y008396D01*
X003770Y008440D02*
X003360Y008440D01*
X003360Y008484D02*
X003770Y008484D01*
X003770Y008528D02*
X003360Y008528D01*
X003360Y008572D02*
X003770Y008572D01*
X003770Y008616D02*
X003360Y008616D01*
D14*
X023687Y012992D02*
X024053Y012992D01*
X023687Y012992D02*
X023687Y013158D01*
X024053Y013158D01*
X024053Y012992D01*
X024053Y013046D02*
X023687Y013046D01*
X023687Y013100D02*
X024053Y013100D01*
X024053Y013154D02*
X023687Y013154D01*
X023687Y013242D02*
X024053Y013242D01*
X023687Y013242D02*
X023687Y013408D01*
X024053Y013408D01*
X024053Y013242D01*
X024053Y013296D02*
X023687Y013296D01*
X023687Y013350D02*
X024053Y013350D01*
X024053Y013404D02*
X023687Y013404D01*
X023687Y013492D02*
X024053Y013492D01*
X023687Y013492D02*
X023687Y013658D01*
X024053Y013658D01*
X024053Y013492D01*
X024053Y013546D02*
X023687Y013546D01*
X023687Y013600D02*
X024053Y013600D01*
X024053Y013654D02*
X023687Y013654D01*
X023687Y013742D02*
X024053Y013742D01*
X023687Y013742D02*
X023687Y013908D01*
X024053Y013908D01*
X024053Y013742D01*
X024053Y013796D02*
X023687Y013796D01*
X023687Y013850D02*
X024053Y013850D01*
X024053Y013904D02*
X023687Y013904D01*
X023687Y013992D02*
X024053Y013992D01*
X023687Y013992D02*
X023687Y014158D01*
X024053Y014158D01*
X024053Y013992D01*
X024053Y014046D02*
X023687Y014046D01*
X023687Y014100D02*
X024053Y014100D01*
X024053Y014154D02*
X023687Y014154D01*
X023687Y014242D02*
X024053Y014242D01*
X023687Y014242D02*
X023687Y014408D01*
X024053Y014408D01*
X024053Y014242D01*
X024053Y014296D02*
X023687Y014296D01*
X023687Y014350D02*
X024053Y014350D01*
X024053Y014404D02*
X023687Y014404D01*
X023687Y014492D02*
X024053Y014492D01*
X023687Y014492D02*
X023687Y014658D01*
X024053Y014658D01*
X024053Y014492D01*
X024053Y014546D02*
X023687Y014546D01*
X023687Y014600D02*
X024053Y014600D01*
X024053Y014654D02*
X023687Y014654D01*
X023687Y014742D02*
X024053Y014742D01*
X023687Y014742D02*
X023687Y014908D01*
X024053Y014908D01*
X024053Y014742D01*
X024053Y014796D02*
X023687Y014796D01*
X023687Y014850D02*
X024053Y014850D01*
X024053Y014904D02*
X023687Y014904D01*
X025827Y014742D02*
X026193Y014742D01*
X025827Y014742D02*
X025827Y014908D01*
X026193Y014908D01*
X026193Y014742D01*
X026193Y014796D02*
X025827Y014796D01*
X025827Y014850D02*
X026193Y014850D01*
X026193Y014904D02*
X025827Y014904D01*
X025827Y014492D02*
X026193Y014492D01*
X025827Y014492D02*
X025827Y014658D01*
X026193Y014658D01*
X026193Y014492D01*
X026193Y014546D02*
X025827Y014546D01*
X025827Y014600D02*
X026193Y014600D01*
X026193Y014654D02*
X025827Y014654D01*
X025827Y014242D02*
X026193Y014242D01*
X025827Y014242D02*
X025827Y014408D01*
X026193Y014408D01*
X026193Y014242D01*
X026193Y014296D02*
X025827Y014296D01*
X025827Y014350D02*
X026193Y014350D01*
X026193Y014404D02*
X025827Y014404D01*
X025827Y013992D02*
X026193Y013992D01*
X025827Y013992D02*
X025827Y014158D01*
X026193Y014158D01*
X026193Y013992D01*
X026193Y014046D02*
X025827Y014046D01*
X025827Y014100D02*
X026193Y014100D01*
X026193Y014154D02*
X025827Y014154D01*
X025827Y013742D02*
X026193Y013742D01*
X025827Y013742D02*
X025827Y013908D01*
X026193Y013908D01*
X026193Y013742D01*
X026193Y013796D02*
X025827Y013796D01*
X025827Y013850D02*
X026193Y013850D01*
X026193Y013904D02*
X025827Y013904D01*
X025827Y013492D02*
X026193Y013492D01*
X025827Y013492D02*
X025827Y013658D01*
X026193Y013658D01*
X026193Y013492D01*
X026193Y013546D02*
X025827Y013546D01*
X025827Y013600D02*
X026193Y013600D01*
X026193Y013654D02*
X025827Y013654D01*
X025827Y013242D02*
X026193Y013242D01*
X025827Y013242D02*
X025827Y013408D01*
X026193Y013408D01*
X026193Y013242D01*
X026193Y013296D02*
X025827Y013296D01*
X025827Y013350D02*
X026193Y013350D01*
X026193Y013404D02*
X025827Y013404D01*
X025827Y012992D02*
X026193Y012992D01*
X025827Y012992D02*
X025827Y013158D01*
X026193Y013158D01*
X026193Y012992D01*
X026193Y013046D02*
X025827Y013046D01*
X025827Y013100D02*
X026193Y013100D01*
X026193Y013154D02*
X025827Y013154D01*
D15*
X025650Y019150D03*
X023918Y019150D03*
D16*
X023434Y018671D02*
X022630Y018671D01*
X023434Y018671D02*
X023434Y017669D01*
X022630Y017669D01*
X022630Y018671D01*
X022630Y017710D02*
X023434Y017710D01*
X023434Y017751D02*
X022630Y017751D01*
X022630Y017792D02*
X023434Y017792D01*
X023434Y017833D02*
X022630Y017833D01*
X022630Y017874D02*
X023434Y017874D01*
X023434Y017915D02*
X022630Y017915D01*
X022630Y017956D02*
X023434Y017956D01*
X023434Y017997D02*
X022630Y017997D01*
X022630Y018038D02*
X023434Y018038D01*
X023434Y018079D02*
X022630Y018079D01*
X022630Y018120D02*
X023434Y018120D01*
X023434Y018161D02*
X022630Y018161D01*
X022630Y018202D02*
X023434Y018202D01*
X023434Y018243D02*
X022630Y018243D01*
X022630Y018284D02*
X023434Y018284D01*
X023434Y018325D02*
X022630Y018325D01*
X022630Y018366D02*
X023434Y018366D01*
X023434Y018407D02*
X022630Y018407D01*
X022630Y018448D02*
X023434Y018448D01*
X023434Y018489D02*
X022630Y018489D01*
X022630Y018530D02*
X023434Y018530D01*
X023434Y018571D02*
X022630Y018571D01*
X022630Y018612D02*
X023434Y018612D01*
X023434Y018653D02*
X022630Y018653D01*
X022630Y020836D02*
X023434Y020836D01*
X023434Y019834D01*
X022630Y019834D01*
X022630Y020836D01*
X022630Y019875D02*
X023434Y019875D01*
X023434Y019916D02*
X022630Y019916D01*
X022630Y019957D02*
X023434Y019957D01*
X023434Y019998D02*
X022630Y019998D01*
X022630Y020039D02*
X023434Y020039D01*
X023434Y020080D02*
X022630Y020080D01*
X022630Y020121D02*
X023434Y020121D01*
X023434Y020162D02*
X022630Y020162D01*
X022630Y020203D02*
X023434Y020203D01*
X023434Y020244D02*
X022630Y020244D01*
X022630Y020285D02*
X023434Y020285D01*
X023434Y020326D02*
X022630Y020326D01*
X022630Y020367D02*
X023434Y020367D01*
X023434Y020408D02*
X022630Y020408D01*
X022630Y020449D02*
X023434Y020449D01*
X023434Y020490D02*
X022630Y020490D01*
X022630Y020531D02*
X023434Y020531D01*
X023434Y020572D02*
X022630Y020572D01*
X022630Y020613D02*
X023434Y020613D01*
X023434Y020654D02*
X022630Y020654D01*
X022630Y020695D02*
X023434Y020695D01*
X023434Y020736D02*
X022630Y020736D01*
X022630Y020777D02*
X023434Y020777D01*
X023434Y020818D02*
X022630Y020818D01*
X026134Y020836D02*
X026938Y020836D01*
X026938Y019834D01*
X026134Y019834D01*
X026134Y020836D01*
X026134Y019875D02*
X026938Y019875D01*
X026938Y019916D02*
X026134Y019916D01*
X026134Y019957D02*
X026938Y019957D01*
X026938Y019998D02*
X026134Y019998D01*
X026134Y020039D02*
X026938Y020039D01*
X026938Y020080D02*
X026134Y020080D01*
X026134Y020121D02*
X026938Y020121D01*
X026938Y020162D02*
X026134Y020162D01*
X026134Y020203D02*
X026938Y020203D01*
X026938Y020244D02*
X026134Y020244D01*
X026134Y020285D02*
X026938Y020285D01*
X026938Y020326D02*
X026134Y020326D01*
X026134Y020367D02*
X026938Y020367D01*
X026938Y020408D02*
X026134Y020408D01*
X026134Y020449D02*
X026938Y020449D01*
X026938Y020490D02*
X026134Y020490D01*
X026134Y020531D02*
X026938Y020531D01*
X026938Y020572D02*
X026134Y020572D01*
X026134Y020613D02*
X026938Y020613D01*
X026938Y020654D02*
X026134Y020654D01*
X026134Y020695D02*
X026938Y020695D01*
X026938Y020736D02*
X026134Y020736D01*
X026134Y020777D02*
X026938Y020777D01*
X026938Y020818D02*
X026134Y020818D01*
X026134Y018671D02*
X026938Y018671D01*
X026938Y017669D01*
X026134Y017669D01*
X026134Y018671D01*
X026134Y017710D02*
X026938Y017710D01*
X026938Y017751D02*
X026134Y017751D01*
X026134Y017792D02*
X026938Y017792D01*
X026938Y017833D02*
X026134Y017833D01*
X026134Y017874D02*
X026938Y017874D01*
X026938Y017915D02*
X026134Y017915D01*
X026134Y017956D02*
X026938Y017956D01*
X026938Y017997D02*
X026134Y017997D01*
X026134Y018038D02*
X026938Y018038D01*
X026938Y018079D02*
X026134Y018079D01*
X026134Y018120D02*
X026938Y018120D01*
X026938Y018161D02*
X026134Y018161D01*
X026134Y018202D02*
X026938Y018202D01*
X026938Y018243D02*
X026134Y018243D01*
X026134Y018284D02*
X026938Y018284D01*
X026938Y018325D02*
X026134Y018325D01*
X026134Y018366D02*
X026938Y018366D01*
X026938Y018407D02*
X026134Y018407D01*
X026134Y018448D02*
X026938Y018448D01*
X026938Y018489D02*
X026134Y018489D01*
X026134Y018530D02*
X026938Y018530D01*
X026938Y018571D02*
X026134Y018571D01*
X026134Y018612D02*
X026938Y018612D01*
X026938Y018653D02*
X026134Y018653D01*
D17*
X025517Y018667D02*
X025311Y018667D01*
X025517Y018667D02*
X025517Y017279D01*
X025311Y017279D01*
X025311Y018667D01*
X025311Y017329D02*
X025517Y017329D01*
X025517Y017379D02*
X025311Y017379D01*
X025311Y017429D02*
X025517Y017429D01*
X025517Y017479D02*
X025311Y017479D01*
X025311Y017529D02*
X025517Y017529D01*
X025517Y017579D02*
X025311Y017579D01*
X025311Y017629D02*
X025517Y017629D01*
X025517Y017679D02*
X025311Y017679D01*
X025311Y017729D02*
X025517Y017729D01*
X025517Y017779D02*
X025311Y017779D01*
X025311Y017829D02*
X025517Y017829D01*
X025517Y017879D02*
X025311Y017879D01*
X025311Y017929D02*
X025517Y017929D01*
X025517Y017979D02*
X025311Y017979D01*
X025311Y018029D02*
X025517Y018029D01*
X025517Y018079D02*
X025311Y018079D01*
X025311Y018129D02*
X025517Y018129D01*
X025517Y018179D02*
X025311Y018179D01*
X025311Y018229D02*
X025517Y018229D01*
X025517Y018279D02*
X025311Y018279D01*
X025311Y018329D02*
X025517Y018329D01*
X025517Y018379D02*
X025311Y018379D01*
X025311Y018429D02*
X025517Y018429D01*
X025517Y018479D02*
X025311Y018479D01*
X025311Y018529D02*
X025517Y018529D01*
X025517Y018579D02*
X025311Y018579D01*
X025311Y018629D02*
X025517Y018629D01*
X025202Y018667D02*
X024996Y018667D01*
X025202Y018667D02*
X025202Y017279D01*
X024996Y017279D01*
X024996Y018667D01*
X024996Y017329D02*
X025202Y017329D01*
X025202Y017379D02*
X024996Y017379D01*
X024996Y017429D02*
X025202Y017429D01*
X025202Y017479D02*
X024996Y017479D01*
X024996Y017529D02*
X025202Y017529D01*
X025202Y017579D02*
X024996Y017579D01*
X024996Y017629D02*
X025202Y017629D01*
X025202Y017679D02*
X024996Y017679D01*
X024996Y017729D02*
X025202Y017729D01*
X025202Y017779D02*
X024996Y017779D01*
X024996Y017829D02*
X025202Y017829D01*
X025202Y017879D02*
X024996Y017879D01*
X024996Y017929D02*
X025202Y017929D01*
X025202Y017979D02*
X024996Y017979D01*
X024996Y018029D02*
X025202Y018029D01*
X025202Y018079D02*
X024996Y018079D01*
X024996Y018129D02*
X025202Y018129D01*
X025202Y018179D02*
X024996Y018179D01*
X024996Y018229D02*
X025202Y018229D01*
X025202Y018279D02*
X024996Y018279D01*
X024996Y018329D02*
X025202Y018329D01*
X025202Y018379D02*
X024996Y018379D01*
X024996Y018429D02*
X025202Y018429D01*
X025202Y018479D02*
X024996Y018479D01*
X024996Y018529D02*
X025202Y018529D01*
X025202Y018579D02*
X024996Y018579D01*
X024996Y018629D02*
X025202Y018629D01*
X024887Y018667D02*
X024681Y018667D01*
X024887Y018667D02*
X024887Y017279D01*
X024681Y017279D01*
X024681Y018667D01*
X024681Y017329D02*
X024887Y017329D01*
X024887Y017379D02*
X024681Y017379D01*
X024681Y017429D02*
X024887Y017429D01*
X024887Y017479D02*
X024681Y017479D01*
X024681Y017529D02*
X024887Y017529D01*
X024887Y017579D02*
X024681Y017579D01*
X024681Y017629D02*
X024887Y017629D01*
X024887Y017679D02*
X024681Y017679D01*
X024681Y017729D02*
X024887Y017729D01*
X024887Y017779D02*
X024681Y017779D01*
X024681Y017829D02*
X024887Y017829D01*
X024887Y017879D02*
X024681Y017879D01*
X024681Y017929D02*
X024887Y017929D01*
X024887Y017979D02*
X024681Y017979D01*
X024681Y018029D02*
X024887Y018029D01*
X024887Y018079D02*
X024681Y018079D01*
X024681Y018129D02*
X024887Y018129D01*
X024887Y018179D02*
X024681Y018179D01*
X024681Y018229D02*
X024887Y018229D01*
X024887Y018279D02*
X024681Y018279D01*
X024681Y018329D02*
X024887Y018329D01*
X024887Y018379D02*
X024681Y018379D01*
X024681Y018429D02*
X024887Y018429D01*
X024887Y018479D02*
X024681Y018479D01*
X024681Y018529D02*
X024887Y018529D01*
X024887Y018579D02*
X024681Y018579D01*
X024681Y018629D02*
X024887Y018629D01*
X024572Y018667D02*
X024366Y018667D01*
X024572Y018667D02*
X024572Y017279D01*
X024366Y017279D01*
X024366Y018667D01*
X024366Y017329D02*
X024572Y017329D01*
X024572Y017379D02*
X024366Y017379D01*
X024366Y017429D02*
X024572Y017429D01*
X024572Y017479D02*
X024366Y017479D01*
X024366Y017529D02*
X024572Y017529D01*
X024572Y017579D02*
X024366Y017579D01*
X024366Y017629D02*
X024572Y017629D01*
X024572Y017679D02*
X024366Y017679D01*
X024366Y017729D02*
X024572Y017729D01*
X024572Y017779D02*
X024366Y017779D01*
X024366Y017829D02*
X024572Y017829D01*
X024572Y017879D02*
X024366Y017879D01*
X024366Y017929D02*
X024572Y017929D01*
X024572Y017979D02*
X024366Y017979D01*
X024366Y018029D02*
X024572Y018029D01*
X024572Y018079D02*
X024366Y018079D01*
X024366Y018129D02*
X024572Y018129D01*
X024572Y018179D02*
X024366Y018179D01*
X024366Y018229D02*
X024572Y018229D01*
X024572Y018279D02*
X024366Y018279D01*
X024366Y018329D02*
X024572Y018329D01*
X024572Y018379D02*
X024366Y018379D01*
X024366Y018429D02*
X024572Y018429D01*
X024572Y018479D02*
X024366Y018479D01*
X024366Y018529D02*
X024572Y018529D01*
X024572Y018579D02*
X024366Y018579D01*
X024366Y018629D02*
X024572Y018629D01*
X024257Y018667D02*
X024051Y018667D01*
X024257Y018667D02*
X024257Y017279D01*
X024051Y017279D01*
X024051Y018667D01*
X024051Y017329D02*
X024257Y017329D01*
X024257Y017379D02*
X024051Y017379D01*
X024051Y017429D02*
X024257Y017429D01*
X024257Y017479D02*
X024051Y017479D01*
X024051Y017529D02*
X024257Y017529D01*
X024257Y017579D02*
X024051Y017579D01*
X024051Y017629D02*
X024257Y017629D01*
X024257Y017679D02*
X024051Y017679D01*
X024051Y017729D02*
X024257Y017729D01*
X024257Y017779D02*
X024051Y017779D01*
X024051Y017829D02*
X024257Y017829D01*
X024257Y017879D02*
X024051Y017879D01*
X024051Y017929D02*
X024257Y017929D01*
X024257Y017979D02*
X024051Y017979D01*
X024051Y018029D02*
X024257Y018029D01*
X024257Y018079D02*
X024051Y018079D01*
X024051Y018129D02*
X024257Y018129D01*
X024257Y018179D02*
X024051Y018179D01*
X024051Y018229D02*
X024257Y018229D01*
X024257Y018279D02*
X024051Y018279D01*
X024051Y018329D02*
X024257Y018329D01*
X024257Y018379D02*
X024051Y018379D01*
X024051Y018429D02*
X024257Y018429D01*
X024257Y018479D02*
X024051Y018479D01*
X024051Y018529D02*
X024257Y018529D01*
X024257Y018579D02*
X024051Y018579D01*
X024051Y018629D02*
X024257Y018629D01*
D18*
X024253Y012692D02*
X024539Y012692D01*
X024539Y012328D01*
X024253Y012328D01*
X024253Y012692D01*
X024253Y012377D02*
X024539Y012377D01*
X024539Y012426D02*
X024253Y012426D01*
X024253Y012475D02*
X024539Y012475D01*
X024539Y012524D02*
X024253Y012524D01*
X024253Y012573D02*
X024539Y012573D01*
X024539Y012622D02*
X024253Y012622D01*
X024253Y012671D02*
X024539Y012671D01*
X024027Y012692D02*
X023741Y012692D01*
X024027Y012692D02*
X024027Y012328D01*
X023741Y012328D01*
X023741Y012692D01*
X023741Y012377D02*
X024027Y012377D01*
X024027Y012426D02*
X023741Y012426D01*
X023741Y012475D02*
X024027Y012475D01*
X024027Y012524D02*
X023741Y012524D01*
X023741Y012573D02*
X024027Y012573D01*
X024027Y012622D02*
X023741Y012622D01*
X023741Y012671D02*
X024027Y012671D01*
X025361Y012692D02*
X025647Y012692D01*
X025647Y012328D01*
X025361Y012328D01*
X025361Y012692D01*
X025361Y012377D02*
X025647Y012377D01*
X025647Y012426D02*
X025361Y012426D01*
X025361Y012475D02*
X025647Y012475D01*
X025647Y012524D02*
X025361Y012524D01*
X025361Y012573D02*
X025647Y012573D01*
X025647Y012622D02*
X025361Y012622D01*
X025361Y012671D02*
X025647Y012671D01*
X025873Y012692D02*
X026159Y012692D01*
X026159Y012328D01*
X025873Y012328D01*
X025873Y012692D01*
X025873Y012377D02*
X026159Y012377D01*
X026159Y012426D02*
X025873Y012426D01*
X025873Y012475D02*
X026159Y012475D01*
X026159Y012524D02*
X025873Y012524D01*
X025873Y012573D02*
X026159Y012573D01*
X026159Y012622D02*
X025873Y012622D01*
X025873Y012671D02*
X026159Y012671D01*
D19*
X026881Y012869D02*
X026881Y012443D01*
X026881Y012869D02*
X027319Y012869D01*
X027319Y012443D01*
X026881Y012443D01*
X026881Y012489D02*
X027319Y012489D01*
X027319Y012535D02*
X026881Y012535D01*
X026881Y012581D02*
X027319Y012581D01*
X027319Y012627D02*
X026881Y012627D01*
X026881Y012673D02*
X027319Y012673D01*
X027319Y012719D02*
X026881Y012719D01*
X026881Y012765D02*
X027319Y012765D01*
X027319Y012811D02*
X026881Y012811D01*
X026881Y012857D02*
X027319Y012857D01*
X026881Y013131D02*
X026881Y013557D01*
X027319Y013557D01*
X027319Y013131D01*
X026881Y013131D01*
X026881Y013177D02*
X027319Y013177D01*
X027319Y013223D02*
X026881Y013223D01*
X026881Y013269D02*
X027319Y013269D01*
X027319Y013315D02*
X026881Y013315D01*
X026881Y013361D02*
X027319Y013361D01*
X027319Y013407D02*
X026881Y013407D01*
X026881Y013453D02*
X027319Y013453D01*
X027319Y013499D02*
X026881Y013499D01*
X026881Y013545D02*
X027319Y013545D01*
X027319Y013843D02*
X027319Y014269D01*
X027319Y013843D02*
X026881Y013843D01*
X026881Y014269D01*
X027319Y014269D01*
X027319Y013889D02*
X026881Y013889D01*
X026881Y013935D02*
X027319Y013935D01*
X027319Y013981D02*
X026881Y013981D01*
X026881Y014027D02*
X027319Y014027D01*
X027319Y014073D02*
X026881Y014073D01*
X026881Y014119D02*
X027319Y014119D01*
X027319Y014165D02*
X026881Y014165D01*
X026881Y014211D02*
X027319Y014211D01*
X027319Y014257D02*
X026881Y014257D01*
X027319Y014531D02*
X027319Y014957D01*
X027319Y014531D02*
X026881Y014531D01*
X026881Y014957D01*
X027319Y014957D01*
X027319Y014577D02*
X026881Y014577D01*
X026881Y014623D02*
X027319Y014623D01*
X027319Y014669D02*
X026881Y014669D01*
X026881Y014715D02*
X027319Y014715D01*
X027319Y014761D02*
X026881Y014761D01*
X026881Y014807D02*
X027319Y014807D01*
X027319Y014853D02*
X026881Y014853D01*
X026881Y014899D02*
X027319Y014899D01*
X027319Y014945D02*
X026881Y014945D01*
X028019Y014957D02*
X028019Y014531D01*
X027581Y014531D01*
X027581Y014957D01*
X028019Y014957D01*
X028019Y014577D02*
X027581Y014577D01*
X027581Y014623D02*
X028019Y014623D01*
X028019Y014669D02*
X027581Y014669D01*
X027581Y014715D02*
X028019Y014715D01*
X028019Y014761D02*
X027581Y014761D01*
X027581Y014807D02*
X028019Y014807D01*
X028019Y014853D02*
X027581Y014853D01*
X027581Y014899D02*
X028019Y014899D01*
X028019Y014945D02*
X027581Y014945D01*
X028019Y014269D02*
X028019Y013843D01*
X027581Y013843D01*
X027581Y014269D01*
X028019Y014269D01*
X028019Y013889D02*
X027581Y013889D01*
X027581Y013935D02*
X028019Y013935D01*
X028019Y013981D02*
X027581Y013981D01*
X027581Y014027D02*
X028019Y014027D01*
X028019Y014073D02*
X027581Y014073D01*
X027581Y014119D02*
X028019Y014119D01*
X028019Y014165D02*
X027581Y014165D01*
X027581Y014211D02*
X028019Y014211D01*
X028019Y014257D02*
X027581Y014257D01*
X027057Y016681D02*
X026631Y016681D01*
X026631Y017119D01*
X027057Y017119D01*
X027057Y016681D01*
X027057Y016727D02*
X026631Y016727D01*
X026631Y016773D02*
X027057Y016773D01*
X027057Y016819D02*
X026631Y016819D01*
X026631Y016865D02*
X027057Y016865D01*
X027057Y016911D02*
X026631Y016911D01*
X026631Y016957D02*
X027057Y016957D01*
X027057Y017003D02*
X026631Y017003D01*
X026631Y017049D02*
X027057Y017049D01*
X027057Y017095D02*
X026631Y017095D01*
X026369Y016681D02*
X025943Y016681D01*
X025943Y017119D01*
X026369Y017119D01*
X026369Y016681D01*
X026369Y016727D02*
X025943Y016727D01*
X025943Y016773D02*
X026369Y016773D01*
X026369Y016819D02*
X025943Y016819D01*
X025943Y016865D02*
X026369Y016865D01*
X026369Y016911D02*
X025943Y016911D01*
X025943Y016957D02*
X026369Y016957D01*
X026369Y017003D02*
X025943Y017003D01*
X025943Y017049D02*
X026369Y017049D01*
X026369Y017095D02*
X025943Y017095D01*
X015831Y012007D02*
X015831Y011581D01*
X015831Y012007D02*
X016269Y012007D01*
X016269Y011581D01*
X015831Y011581D01*
X015831Y011627D02*
X016269Y011627D01*
X016269Y011673D02*
X015831Y011673D01*
X015831Y011719D02*
X016269Y011719D01*
X016269Y011765D02*
X015831Y011765D01*
X015831Y011811D02*
X016269Y011811D01*
X016269Y011857D02*
X015831Y011857D01*
X015831Y011903D02*
X016269Y011903D01*
X016269Y011949D02*
X015831Y011949D01*
X015831Y011995D02*
X016269Y011995D01*
X015831Y011319D02*
X015831Y010893D01*
X015831Y011319D02*
X016269Y011319D01*
X016269Y010893D01*
X015831Y010893D01*
X015831Y010939D02*
X016269Y010939D01*
X016269Y010985D02*
X015831Y010985D01*
X015831Y011031D02*
X016269Y011031D01*
X016269Y011077D02*
X015831Y011077D01*
X015831Y011123D02*
X016269Y011123D01*
X016269Y011169D02*
X015831Y011169D01*
X015831Y011215D02*
X016269Y011215D01*
X016269Y011261D02*
X015831Y011261D01*
X015831Y011307D02*
X016269Y011307D01*
D20*
X024436Y015505D02*
X024436Y015831D01*
X024696Y015831D01*
X024696Y015505D01*
X024436Y015505D01*
X024436Y015553D02*
X024696Y015553D01*
X024696Y015601D02*
X024436Y015601D01*
X024436Y015649D02*
X024696Y015649D01*
X024696Y015697D02*
X024436Y015697D01*
X024436Y015745D02*
X024696Y015745D01*
X024696Y015793D02*
X024436Y015793D01*
X024810Y015831D02*
X024810Y015505D01*
X024810Y015831D02*
X025070Y015831D01*
X025070Y015505D01*
X024810Y015505D01*
X024810Y015553D02*
X025070Y015553D01*
X025070Y015601D02*
X024810Y015601D01*
X024810Y015649D02*
X025070Y015649D01*
X025070Y015697D02*
X024810Y015697D01*
X024810Y015745D02*
X025070Y015745D01*
X025070Y015793D02*
X024810Y015793D01*
X025184Y015831D02*
X025184Y015505D01*
X025184Y015831D02*
X025444Y015831D01*
X025444Y015505D01*
X025184Y015505D01*
X025184Y015553D02*
X025444Y015553D01*
X025444Y015601D02*
X025184Y015601D01*
X025184Y015649D02*
X025444Y015649D01*
X025444Y015697D02*
X025184Y015697D01*
X025184Y015745D02*
X025444Y015745D01*
X025444Y015793D02*
X025184Y015793D01*
X025184Y016449D02*
X025184Y016775D01*
X025444Y016775D01*
X025444Y016449D01*
X025184Y016449D01*
X025184Y016497D02*
X025444Y016497D01*
X025444Y016545D02*
X025184Y016545D01*
X025184Y016593D02*
X025444Y016593D01*
X025444Y016641D02*
X025184Y016641D01*
X025184Y016689D02*
X025444Y016689D01*
X025444Y016737D02*
X025184Y016737D01*
X024810Y016775D02*
X024810Y016449D01*
X024810Y016775D02*
X025070Y016775D01*
X025070Y016449D01*
X024810Y016449D01*
X024810Y016497D02*
X025070Y016497D01*
X025070Y016545D02*
X024810Y016545D01*
X024810Y016593D02*
X025070Y016593D01*
X025070Y016641D02*
X024810Y016641D01*
X024810Y016689D02*
X025070Y016689D01*
X025070Y016737D02*
X024810Y016737D01*
X024436Y016775D02*
X024436Y016449D01*
X024436Y016775D02*
X024696Y016775D01*
X024696Y016449D01*
X024436Y016449D01*
X024436Y016497D02*
X024696Y016497D01*
X024696Y016545D02*
X024436Y016545D01*
X024436Y016593D02*
X024696Y016593D01*
X024696Y016641D02*
X024436Y016641D01*
X024436Y016689D02*
X024696Y016689D01*
X024696Y016737D02*
X024436Y016737D01*
D21*
X014200Y019700D03*
X014200Y020700D03*
X011950Y020700D03*
X011950Y019700D03*
X023250Y010800D03*
X024250Y010800D03*
X026450Y010800D03*
X027450Y010800D03*
D22*
X009750Y019050D03*
X008750Y019050D03*
X007750Y019050D03*
X006750Y019050D03*
X005750Y019050D03*
X005750Y020050D03*
X006750Y020050D03*
X007750Y020050D03*
X008750Y020050D03*
X009750Y020050D03*
D23*
X016050Y013000D03*
D24*
X017050Y013000D03*
X018050Y013000D03*
X019050Y013000D03*
X019050Y016000D03*
X018050Y016000D03*
X017050Y016000D03*
X016050Y016000D03*
D25*
X020313Y014728D02*
X020787Y014728D01*
X020313Y014728D02*
X020313Y015372D01*
X020787Y015372D01*
X020787Y014728D01*
X020787Y014774D02*
X020313Y014774D01*
X020313Y014820D02*
X020787Y014820D01*
X020787Y014866D02*
X020313Y014866D01*
X020313Y014912D02*
X020787Y014912D01*
X020787Y014958D02*
X020313Y014958D01*
X020313Y015004D02*
X020787Y015004D01*
X020787Y015050D02*
X020313Y015050D01*
X020313Y015096D02*
X020787Y015096D01*
X020787Y015142D02*
X020313Y015142D01*
X020313Y015188D02*
X020787Y015188D01*
X020787Y015234D02*
X020313Y015234D01*
X020313Y015280D02*
X020787Y015280D01*
X020787Y015326D02*
X020313Y015326D01*
X020313Y015372D02*
X020787Y015372D01*
X020913Y014728D02*
X021387Y014728D01*
X020913Y014728D02*
X020913Y015372D01*
X021387Y015372D01*
X021387Y014728D01*
X021387Y014774D02*
X020913Y014774D01*
X020913Y014820D02*
X021387Y014820D01*
X021387Y014866D02*
X020913Y014866D01*
X020913Y014912D02*
X021387Y014912D01*
X021387Y014958D02*
X020913Y014958D01*
X020913Y015004D02*
X021387Y015004D01*
X021387Y015050D02*
X020913Y015050D01*
X020913Y015096D02*
X021387Y015096D01*
X021387Y015142D02*
X020913Y015142D01*
X020913Y015188D02*
X021387Y015188D01*
X021387Y015234D02*
X020913Y015234D01*
X020913Y015280D02*
X021387Y015280D01*
X021387Y015326D02*
X020913Y015326D01*
X020913Y015372D02*
X021387Y015372D01*
X021387Y013628D02*
X020913Y013628D01*
X020913Y014272D01*
X021387Y014272D01*
X021387Y013628D01*
X021387Y013674D02*
X020913Y013674D01*
X020913Y013720D02*
X021387Y013720D01*
X021387Y013766D02*
X020913Y013766D01*
X020913Y013812D02*
X021387Y013812D01*
X021387Y013858D02*
X020913Y013858D01*
X020913Y013904D02*
X021387Y013904D01*
X021387Y013950D02*
X020913Y013950D01*
X020913Y013996D02*
X021387Y013996D01*
X021387Y014042D02*
X020913Y014042D01*
X020913Y014088D02*
X021387Y014088D01*
X021387Y014134D02*
X020913Y014134D01*
X020913Y014180D02*
X021387Y014180D01*
X021387Y014226D02*
X020913Y014226D01*
X020913Y014272D02*
X021387Y014272D01*
X020787Y013628D02*
X020313Y013628D01*
X020313Y014272D01*
X020787Y014272D01*
X020787Y013628D01*
X020787Y013674D02*
X020313Y013674D01*
X020313Y013720D02*
X020787Y013720D01*
X020787Y013766D02*
X020313Y013766D01*
X020313Y013812D02*
X020787Y013812D01*
X020787Y013858D02*
X020313Y013858D01*
X020313Y013904D02*
X020787Y013904D01*
X020787Y013950D02*
X020313Y013950D01*
X020313Y013996D02*
X020787Y013996D01*
X020787Y014042D02*
X020313Y014042D01*
X020313Y014088D02*
X020787Y014088D01*
X020787Y014134D02*
X020313Y014134D01*
X020313Y014180D02*
X020787Y014180D01*
X020787Y014226D02*
X020313Y014226D01*
X020313Y014272D02*
X020787Y014272D01*
D26*
X020850Y013950D03*
X020850Y015050D03*
M02*
