G75*
%MOIN*%
%OFA0B0*%
%FSLAX24Y24*%
%IPPOS*%
%LPD*%
%AMOC8*
5,1,8,0,0,1.08239X$1,22.5*
%
%ADD10C,0.0100*%
%ADD11C,0.0030*%
%ADD12C,0.0140*%
%ADD13C,0.0070*%
%ADD14C,0.0050*%
%ADD15C,0.0200*%
D10*
X003813Y004242D02*
X003877Y004192D01*
X003939Y004140D01*
X003999Y004085D01*
X004057Y004028D01*
X004113Y003969D01*
X001211Y000782D02*
X001147Y000832D01*
X001085Y000884D01*
X001025Y000939D01*
X000967Y000996D01*
X000911Y001055D01*
X003101Y004595D02*
X003179Y004572D01*
X003255Y004545D01*
X003331Y004516D01*
X003406Y004484D01*
X003479Y004449D01*
X001923Y000429D02*
X001845Y000452D01*
X001769Y000479D01*
X001693Y000508D01*
X001618Y000540D01*
X001545Y000575D01*
X002309Y000357D02*
X002390Y000350D01*
X002471Y000347D01*
X002553Y000347D01*
X002634Y000350D01*
X002715Y000357D01*
X000385Y002109D02*
X000371Y002189D01*
X000361Y002269D01*
X000353Y002350D01*
X000349Y002431D01*
X000347Y002512D01*
X003813Y000782D02*
X003877Y000832D01*
X003939Y000884D01*
X003999Y000939D01*
X004057Y000996D01*
X004113Y001055D01*
X001923Y004595D02*
X001845Y004572D01*
X001769Y004545D01*
X001693Y004516D01*
X001618Y004484D01*
X001545Y004449D01*
X003101Y000429D02*
X003179Y000452D01*
X003255Y000479D01*
X003331Y000508D01*
X003406Y000540D01*
X003479Y000575D01*
X004639Y002109D02*
X004653Y002189D01*
X004663Y002269D01*
X004671Y002350D01*
X004675Y002431D01*
X004677Y002512D01*
X001211Y004242D02*
X001147Y004192D01*
X001085Y004140D01*
X001025Y004085D01*
X000967Y004028D01*
X000911Y003969D01*
X000493Y001731D02*
X000524Y001655D01*
X000557Y001582D01*
X000593Y001509D01*
X000632Y001438D01*
X000674Y001368D01*
X000493Y003293D02*
X000524Y003369D01*
X000557Y003442D01*
X000593Y003515D01*
X000632Y003586D01*
X000674Y003656D01*
X004639Y002915D02*
X004653Y002835D01*
X004663Y002755D01*
X004671Y002674D01*
X004675Y002593D01*
X004677Y002512D01*
X004531Y001731D02*
X004500Y001655D01*
X004467Y001582D01*
X004431Y001509D01*
X004392Y001438D01*
X004350Y001368D01*
X004531Y003293D02*
X004500Y003369D01*
X004467Y003442D01*
X004431Y003515D01*
X004392Y003586D01*
X004350Y003656D01*
X002715Y004667D02*
X002634Y004674D01*
X002553Y004677D01*
X002471Y004677D01*
X002390Y004674D01*
X002309Y004667D01*
X000385Y002915D02*
X000371Y002835D01*
X000361Y002755D01*
X000353Y002674D01*
X000349Y002593D01*
X000347Y002512D01*
X027713Y000782D02*
X027777Y000832D01*
X027839Y000884D01*
X027899Y000939D01*
X027957Y000996D01*
X028013Y001055D01*
X025823Y004595D02*
X025745Y004572D01*
X025669Y004545D01*
X025593Y004516D01*
X025518Y004484D01*
X025445Y004449D01*
X027001Y000429D02*
X027079Y000452D01*
X027155Y000479D01*
X027231Y000508D01*
X027306Y000540D01*
X027379Y000575D01*
X026615Y000357D02*
X026534Y000350D01*
X026453Y000347D01*
X026371Y000347D01*
X026290Y000350D01*
X026209Y000357D01*
X027379Y004449D02*
X027306Y004484D01*
X027231Y004516D01*
X027155Y004545D01*
X027079Y004572D01*
X027001Y004595D01*
X025445Y000575D02*
X025518Y000540D01*
X025593Y000508D01*
X025669Y000479D01*
X025745Y000452D01*
X025823Y000429D01*
X028539Y002109D02*
X028553Y002189D01*
X028563Y002269D01*
X028571Y002350D01*
X028575Y002431D01*
X028577Y002512D01*
X025111Y000782D02*
X025047Y000832D01*
X024985Y000884D01*
X024925Y000939D01*
X024867Y000996D01*
X024811Y001055D01*
X027713Y004242D02*
X027777Y004192D01*
X027839Y004140D01*
X027899Y004085D01*
X027957Y004028D01*
X028013Y003969D01*
X026615Y004667D02*
X026534Y004674D01*
X026453Y004677D01*
X026371Y004677D01*
X026290Y004674D01*
X026209Y004667D01*
X028539Y002915D02*
X028553Y002835D01*
X028563Y002755D01*
X028571Y002674D01*
X028575Y002593D01*
X028577Y002512D01*
X025111Y004242D02*
X025047Y004192D01*
X024985Y004140D01*
X024925Y004085D01*
X024867Y004028D01*
X024811Y003969D01*
X024393Y001731D02*
X024424Y001655D01*
X024457Y001582D01*
X024493Y001509D01*
X024532Y001438D01*
X024574Y001368D01*
X024393Y003293D02*
X024424Y003369D01*
X024457Y003442D01*
X024493Y003515D01*
X024532Y003586D01*
X024574Y003656D01*
X024285Y002915D02*
X024271Y002835D01*
X024261Y002755D01*
X024253Y002674D01*
X024249Y002593D01*
X024247Y002512D01*
X024249Y002431D01*
X024253Y002350D01*
X024261Y002269D01*
X024271Y002189D01*
X024285Y002109D01*
X028250Y001368D02*
X028292Y001438D01*
X028331Y001509D01*
X028367Y001582D01*
X028400Y001655D01*
X028431Y001731D01*
X028431Y003293D02*
X028400Y003369D01*
X028367Y003442D01*
X028331Y003515D01*
X028292Y003586D01*
X028250Y003656D01*
X026515Y016707D02*
X026434Y016700D01*
X026353Y016697D01*
X026271Y016697D01*
X026190Y016700D01*
X026109Y016707D01*
X027279Y020799D02*
X027206Y020834D01*
X027131Y020866D01*
X027055Y020895D01*
X026979Y020922D01*
X026901Y020945D01*
X025345Y016925D02*
X025418Y016890D01*
X025493Y016858D01*
X025569Y016829D01*
X025645Y016802D01*
X025723Y016779D01*
X028439Y018459D02*
X028453Y018539D01*
X028463Y018619D01*
X028471Y018700D01*
X028475Y018781D01*
X028477Y018862D01*
X025011Y017132D02*
X024947Y017182D01*
X024885Y017234D01*
X024825Y017289D01*
X024767Y017346D01*
X024711Y017405D01*
X027613Y020592D02*
X027677Y020542D01*
X027739Y020490D01*
X027799Y020435D01*
X027857Y020378D01*
X027913Y020319D01*
X026515Y021017D02*
X026434Y021024D01*
X026353Y021027D01*
X026271Y021027D01*
X026190Y021024D01*
X026109Y021017D01*
X027279Y016925D02*
X027206Y016890D01*
X027131Y016858D01*
X027055Y016829D01*
X026979Y016802D01*
X026901Y016779D01*
X024185Y018459D02*
X024171Y018539D01*
X024161Y018619D01*
X024153Y018700D01*
X024149Y018781D01*
X024147Y018862D01*
X027613Y017132D02*
X027677Y017182D01*
X027739Y017234D01*
X027799Y017289D01*
X027857Y017346D01*
X027913Y017405D01*
X025723Y020945D02*
X025645Y020922D01*
X025569Y020895D01*
X025493Y020866D01*
X025418Y020834D01*
X025345Y020799D01*
X028439Y019265D02*
X028453Y019185D01*
X028463Y019105D01*
X028471Y019024D01*
X028475Y018943D01*
X028477Y018862D01*
X025011Y020592D02*
X024947Y020542D01*
X024885Y020490D01*
X024825Y020435D01*
X024767Y020378D01*
X024711Y020319D01*
X024293Y018081D02*
X024324Y018005D01*
X024357Y017932D01*
X024393Y017859D01*
X024432Y017788D01*
X024474Y017718D01*
X024293Y019643D02*
X024324Y019719D01*
X024357Y019792D01*
X024393Y019865D01*
X024432Y019936D01*
X024474Y020006D01*
X024185Y019265D02*
X024171Y019185D01*
X024161Y019105D01*
X024153Y019024D01*
X024149Y018943D01*
X024147Y018862D01*
X028150Y017718D02*
X028192Y017788D01*
X028231Y017859D01*
X028267Y017932D01*
X028300Y018005D01*
X028331Y018081D01*
X028331Y019643D02*
X028300Y019719D01*
X028267Y019792D01*
X028231Y019865D01*
X028192Y019936D01*
X028150Y020006D01*
X001261Y017132D02*
X001197Y017182D01*
X001135Y017234D01*
X001075Y017289D01*
X001017Y017346D01*
X000961Y017405D01*
X003863Y020592D02*
X003927Y020542D01*
X003989Y020490D01*
X004049Y020435D01*
X004107Y020378D01*
X004163Y020319D01*
X001973Y016779D02*
X001895Y016802D01*
X001819Y016829D01*
X001743Y016858D01*
X001668Y016890D01*
X001595Y016925D01*
X003151Y020945D02*
X003229Y020922D01*
X003305Y020895D01*
X003381Y020866D01*
X003456Y020834D01*
X003529Y020799D01*
X002765Y021017D02*
X002684Y021024D01*
X002603Y021027D01*
X002521Y021027D01*
X002440Y021024D01*
X002359Y021017D01*
X003529Y016925D02*
X003456Y016890D01*
X003381Y016858D01*
X003305Y016829D01*
X003229Y016802D01*
X003151Y016779D01*
X002765Y016707D02*
X002684Y016700D01*
X002603Y016697D01*
X002521Y016697D01*
X002440Y016700D01*
X002359Y016707D01*
X000435Y018459D02*
X000421Y018539D01*
X000411Y018619D01*
X000403Y018700D01*
X000399Y018781D01*
X000397Y018862D01*
X003863Y017132D02*
X003927Y017182D01*
X003989Y017234D01*
X004049Y017289D01*
X004107Y017346D01*
X004163Y017405D01*
X001973Y020945D02*
X001895Y020922D01*
X001819Y020895D01*
X001743Y020866D01*
X001668Y020834D01*
X001595Y020799D01*
X004689Y019265D02*
X004703Y019185D01*
X004713Y019105D01*
X004721Y019024D01*
X004725Y018943D01*
X004727Y018862D01*
X001261Y020592D02*
X001197Y020542D01*
X001135Y020490D01*
X001075Y020435D01*
X001017Y020378D01*
X000961Y020319D01*
X000543Y018081D02*
X000574Y018005D01*
X000607Y017932D01*
X000643Y017859D01*
X000682Y017788D01*
X000724Y017718D01*
X004689Y018459D02*
X004703Y018539D01*
X004713Y018619D01*
X004721Y018700D01*
X004725Y018781D01*
X004727Y018862D01*
X004581Y018081D02*
X004550Y018005D01*
X004517Y017932D01*
X004481Y017859D01*
X004442Y017788D01*
X004400Y017718D01*
X004581Y019643D02*
X004550Y019719D01*
X004517Y019792D01*
X004481Y019865D01*
X004442Y019936D01*
X004400Y020006D01*
X000435Y019265D02*
X000421Y019185D01*
X000411Y019105D01*
X000403Y019024D01*
X000399Y018943D01*
X000397Y018862D01*
X000543Y019643D02*
X000574Y019719D01*
X000607Y019792D01*
X000643Y019865D01*
X000682Y019936D01*
X000724Y020006D01*
D11*
X007354Y017055D02*
X007354Y016765D01*
X007499Y016765D01*
X007547Y016813D01*
X007547Y016910D01*
X007499Y016958D01*
X007354Y016958D01*
X007648Y016910D02*
X007648Y016862D01*
X007842Y016862D01*
X007842Y016910D02*
X007793Y016958D01*
X007697Y016958D01*
X007648Y016910D01*
X007697Y016765D02*
X007793Y016765D01*
X007842Y016813D01*
X007842Y016910D01*
X007943Y016958D02*
X008088Y016958D01*
X008136Y016910D01*
X008136Y016813D01*
X008088Y016765D01*
X007943Y016765D01*
X007943Y017055D01*
X008238Y017055D02*
X008238Y016765D01*
X008383Y016765D01*
X008431Y016813D01*
X008431Y016910D01*
X008383Y016958D01*
X008238Y016958D01*
X008532Y016910D02*
X008532Y016862D01*
X008726Y016862D01*
X008726Y016910D02*
X008677Y016958D01*
X008581Y016958D01*
X008532Y016910D01*
X008581Y016765D02*
X008677Y016765D01*
X008726Y016813D01*
X008726Y016910D01*
X008827Y016910D02*
X008875Y016958D01*
X009020Y016958D01*
X009020Y017055D02*
X009020Y016765D01*
X008875Y016765D01*
X008827Y016813D01*
X008827Y016910D01*
X009121Y016910D02*
X009121Y016765D01*
X009218Y016765D02*
X009218Y016910D01*
X009170Y016958D01*
X009121Y016910D01*
X009218Y016910D02*
X009267Y016958D01*
X009315Y016958D01*
X009315Y016765D01*
X009416Y016765D02*
X009610Y016765D01*
X009610Y017055D01*
X009416Y017055D01*
X009513Y016910D02*
X009610Y016910D01*
X009711Y016862D02*
X009711Y016813D01*
X009759Y016765D01*
X009904Y016765D01*
X009904Y017055D01*
X009759Y017055D01*
X009711Y017007D01*
X009711Y016958D01*
X009759Y016910D01*
X009904Y016910D01*
X009759Y016910D02*
X009711Y016862D01*
X010005Y016765D02*
X010151Y016910D01*
X010199Y016862D02*
X010005Y017055D01*
X010199Y017055D02*
X010199Y016765D01*
X010595Y016765D02*
X010740Y016765D01*
X010788Y016813D01*
X010788Y016958D01*
X010889Y016910D02*
X010938Y016958D01*
X011083Y016958D01*
X011083Y017055D02*
X011083Y016765D01*
X010938Y016765D01*
X010889Y016813D01*
X010889Y016910D01*
X010595Y016958D02*
X010595Y016717D01*
X010643Y016668D01*
X010691Y016668D01*
X011479Y016765D02*
X011479Y017055D01*
X011479Y016958D02*
X011624Y016958D01*
X011672Y016910D01*
X011672Y016813D01*
X011624Y016765D01*
X011479Y016765D01*
X011773Y016862D02*
X011967Y016862D01*
X011967Y016910D02*
X011918Y016958D01*
X011822Y016958D01*
X011773Y016910D01*
X011773Y016862D01*
X011822Y016765D02*
X011918Y016765D01*
X011967Y016813D01*
X011967Y016910D01*
X012067Y016958D02*
X012163Y016958D01*
X012115Y017007D02*
X012115Y016813D01*
X012067Y016765D01*
X012264Y016765D02*
X012410Y016765D01*
X012458Y016813D01*
X012410Y016862D01*
X012264Y016862D01*
X012264Y016910D02*
X012264Y016765D01*
X012264Y016910D02*
X012313Y016958D01*
X012410Y016958D01*
X012559Y016910D02*
X012559Y016765D01*
X012559Y016910D02*
X012607Y016958D01*
X012753Y016958D01*
X012753Y016765D01*
X012854Y016813D02*
X012854Y016910D01*
X012902Y016958D01*
X012999Y016958D01*
X013047Y016910D01*
X013047Y016813D01*
X012999Y016765D01*
X012902Y016765D01*
X012854Y016813D01*
X013148Y016765D02*
X013294Y016765D01*
X013342Y016813D01*
X013342Y016910D01*
X013294Y016958D01*
X013148Y016958D01*
X013148Y017055D02*
X013148Y016765D01*
X013097Y017245D02*
X013145Y017293D01*
X013097Y017342D01*
X012952Y017342D01*
X012952Y017390D02*
X012952Y017245D01*
X013097Y017245D01*
X013097Y017438D02*
X013000Y017438D01*
X012952Y017390D01*
X012851Y017342D02*
X012754Y017438D01*
X012706Y017438D01*
X012605Y017342D02*
X012460Y017438D01*
X012605Y017342D02*
X012460Y017245D01*
X012605Y017245D02*
X012605Y017535D01*
X012851Y017438D02*
X012851Y017245D01*
X013247Y017390D02*
X013295Y017342D01*
X013440Y017342D01*
X013440Y017245D02*
X013440Y017535D01*
X013295Y017535D01*
X013247Y017487D01*
X013247Y017390D01*
X013541Y017390D02*
X013735Y017390D01*
X013836Y017342D02*
X013836Y017293D01*
X013884Y017245D01*
X013981Y017245D01*
X014029Y017293D01*
X014131Y017293D02*
X014131Y017487D01*
X014179Y017535D01*
X014276Y017535D01*
X014324Y017487D01*
X014324Y017293D01*
X014276Y017245D01*
X014179Y017245D01*
X014131Y017293D01*
X014029Y017438D02*
X013981Y017390D01*
X013884Y017390D01*
X013836Y017342D01*
X013735Y017245D02*
X013735Y017535D01*
X013836Y017487D02*
X013884Y017535D01*
X013981Y017535D01*
X014029Y017487D01*
X014029Y017438D01*
X014079Y017055D02*
X014079Y016765D01*
X014031Y016765D02*
X014128Y016765D01*
X014229Y016813D02*
X014229Y016910D01*
X014277Y016958D01*
X014422Y016958D01*
X014422Y017055D02*
X014422Y016765D01*
X014277Y016765D01*
X014229Y016813D01*
X013931Y016813D02*
X013931Y016958D01*
X013931Y016813D02*
X013883Y016765D01*
X013738Y016765D01*
X013738Y016717D02*
X013786Y016668D01*
X013834Y016668D01*
X013738Y016717D02*
X013738Y016958D01*
X013541Y017245D02*
X013541Y017535D01*
X014079Y017055D02*
X014128Y017055D01*
X014523Y016910D02*
X014523Y016765D01*
X014620Y016765D02*
X014620Y016910D01*
X014572Y016958D01*
X014523Y016910D01*
X014620Y016910D02*
X014669Y016958D01*
X014717Y016958D01*
X014717Y016765D01*
X014818Y016862D02*
X015012Y016862D01*
X015012Y016910D02*
X014963Y016958D01*
X014866Y016958D01*
X014818Y016910D01*
X014818Y016862D01*
X014866Y016765D02*
X014963Y016765D01*
X015012Y016813D01*
X015012Y016910D01*
X015113Y016958D02*
X015258Y016958D01*
X015306Y016910D01*
X015258Y016862D01*
X015161Y016862D01*
X015113Y016813D01*
X015161Y016765D01*
X015306Y016765D01*
X015407Y016813D02*
X015456Y016862D01*
X015553Y016862D01*
X015601Y016910D01*
X015553Y016958D01*
X015407Y016958D01*
X015407Y016813D02*
X015456Y016765D01*
X015601Y016765D01*
X015702Y016765D02*
X015702Y016910D01*
X015750Y016958D01*
X015847Y016958D01*
X015847Y016862D02*
X015702Y016862D01*
X015702Y016765D02*
X015847Y016765D01*
X015896Y016813D01*
X015847Y016862D01*
X015898Y017245D02*
X015898Y017535D01*
X015797Y017535D02*
X015797Y017342D01*
X015701Y017245D01*
X015604Y017342D01*
X015604Y017535D01*
X015898Y017390D02*
X016092Y017390D01*
X016193Y017390D02*
X016387Y017390D01*
X016387Y017245D02*
X016387Y017535D01*
X016193Y017535D02*
X016193Y017245D01*
X016092Y017245D02*
X016092Y017535D01*
X016782Y017390D02*
X016782Y017342D01*
X016976Y017342D01*
X016976Y017390D02*
X016928Y017438D01*
X016831Y017438D01*
X016782Y017390D01*
X016831Y017245D02*
X016928Y017245D01*
X016976Y017293D01*
X016976Y017390D01*
X017077Y017390D02*
X017077Y017245D01*
X017077Y017390D02*
X017125Y017438D01*
X017222Y017438D01*
X017271Y017390D01*
X017370Y017438D02*
X017467Y017438D01*
X017419Y017487D02*
X017419Y017293D01*
X017370Y017245D01*
X017271Y017245D02*
X017271Y017535D01*
X017863Y017390D02*
X017911Y017438D01*
X018008Y017438D01*
X018056Y017390D01*
X018056Y017293D01*
X018008Y017245D01*
X017911Y017245D01*
X017863Y017293D01*
X017863Y017390D01*
X018156Y017438D02*
X018253Y017438D01*
X018204Y017487D02*
X018204Y017293D01*
X018156Y017245D01*
X018206Y016958D02*
X018157Y016910D01*
X018157Y016765D01*
X018056Y016813D02*
X018056Y016910D01*
X018008Y016958D01*
X017911Y016958D01*
X017863Y016910D01*
X017863Y016862D01*
X018056Y016862D01*
X018056Y016813D02*
X018008Y016765D01*
X017911Y016765D01*
X017762Y016765D02*
X017762Y016958D01*
X017617Y016958D01*
X017568Y016910D01*
X017568Y016765D01*
X017419Y016813D02*
X017370Y016765D01*
X017419Y016813D02*
X017419Y017007D01*
X017467Y016958D02*
X017370Y016958D01*
X017271Y016910D02*
X017222Y016958D01*
X017077Y016958D01*
X017125Y016862D02*
X017222Y016862D01*
X017271Y016910D01*
X017271Y016765D02*
X017125Y016765D01*
X017077Y016813D01*
X017125Y016862D01*
X016928Y016813D02*
X016879Y016813D01*
X016879Y016765D01*
X016928Y016765D01*
X016928Y016813D01*
X016879Y016765D02*
X016976Y016668D01*
X016485Y016813D02*
X016485Y016862D01*
X016388Y016958D01*
X016388Y017007D01*
X016436Y017055D01*
X016485Y017007D01*
X016485Y016958D01*
X016291Y016765D01*
X016291Y016862D02*
X016388Y016765D01*
X016436Y016765D01*
X016485Y016813D01*
X015208Y017245D02*
X015063Y017245D01*
X015015Y017293D01*
X015015Y017390D01*
X015063Y017438D01*
X015208Y017438D01*
X015208Y017535D02*
X015208Y017245D01*
X014913Y017293D02*
X014865Y017245D01*
X014720Y017245D01*
X014720Y017197D02*
X014768Y017148D01*
X014817Y017148D01*
X014720Y017197D02*
X014720Y017438D01*
X014913Y017438D02*
X014913Y017293D01*
X018206Y016958D02*
X018351Y016958D01*
X018351Y016765D01*
X018452Y016813D02*
X018452Y016910D01*
X018500Y016958D01*
X018597Y016958D01*
X018646Y016910D01*
X018646Y016813D01*
X018597Y016765D01*
X018500Y016765D01*
X018452Y016813D01*
X018747Y016813D02*
X018747Y016910D01*
X018795Y016958D01*
X018940Y016958D01*
X018940Y016668D01*
X018940Y016765D02*
X018795Y016765D01*
X018747Y016813D01*
X019041Y016765D02*
X019041Y016910D01*
X019090Y016958D01*
X019138Y016910D01*
X019138Y016765D01*
X019235Y016765D02*
X019235Y016958D01*
X019187Y016958D01*
X019138Y016910D01*
X019336Y016910D02*
X019384Y016958D01*
X019481Y016958D01*
X019530Y016910D01*
X019530Y016813D01*
X019481Y016765D01*
X019384Y016765D01*
X019336Y016813D01*
X019336Y016910D01*
X019631Y016958D02*
X019776Y016958D01*
X019824Y016910D01*
X019824Y016813D01*
X019776Y016765D01*
X019631Y016765D01*
X019579Y017245D02*
X019628Y017293D01*
X019579Y017342D01*
X019434Y017342D01*
X019434Y017390D02*
X019434Y017245D01*
X019579Y017245D01*
X019729Y017245D02*
X019729Y017390D01*
X019777Y017438D01*
X019922Y017438D01*
X019922Y017245D01*
X020024Y017293D02*
X020072Y017245D01*
X020169Y017245D01*
X020217Y017293D01*
X020217Y017390D01*
X020169Y017438D01*
X020072Y017438D01*
X020024Y017390D01*
X020024Y017293D01*
X020318Y017245D02*
X020463Y017245D01*
X020512Y017293D01*
X020512Y017390D01*
X020463Y017438D01*
X020318Y017438D01*
X020318Y017535D02*
X020318Y017245D01*
X020465Y016958D02*
X020416Y016910D01*
X020416Y016765D01*
X020315Y016668D02*
X020219Y016765D01*
X020267Y016765D01*
X020267Y016813D01*
X020219Y016813D01*
X020219Y016765D01*
X020465Y016958D02*
X020610Y016958D01*
X020610Y016765D01*
X020711Y016765D02*
X020856Y016765D01*
X020905Y016813D01*
X020905Y016910D01*
X020856Y016958D01*
X020711Y016958D01*
X020711Y016717D01*
X020759Y016668D01*
X020808Y016668D01*
X021004Y016765D02*
X021101Y016765D01*
X021053Y016765D02*
X021053Y016958D01*
X021101Y016958D01*
X021202Y016958D02*
X021347Y016958D01*
X021396Y016910D01*
X021347Y016862D01*
X021251Y016862D01*
X021202Y016813D01*
X021251Y016765D01*
X021396Y016765D01*
X021497Y016862D02*
X021690Y016862D01*
X021690Y016910D02*
X021642Y016958D01*
X021545Y016958D01*
X021497Y016910D01*
X021497Y016862D01*
X021545Y016765D02*
X021642Y016765D01*
X021690Y016813D01*
X021690Y016910D01*
X021792Y016813D02*
X021792Y017007D01*
X021840Y017055D01*
X021985Y017055D01*
X021985Y016765D01*
X021840Y016765D01*
X021792Y016813D01*
X021642Y017245D02*
X021545Y017245D01*
X021497Y017293D01*
X021396Y017245D02*
X021251Y017245D01*
X021202Y017293D01*
X021202Y017342D01*
X021251Y017390D01*
X021396Y017390D01*
X021497Y017487D02*
X021545Y017535D01*
X021642Y017535D01*
X021690Y017487D01*
X021690Y017293D01*
X021642Y017245D01*
X021792Y017390D02*
X021840Y017342D01*
X021985Y017342D01*
X021985Y017245D02*
X021985Y017535D01*
X021840Y017535D01*
X021792Y017487D01*
X021792Y017390D01*
X021396Y017245D02*
X021396Y017535D01*
X021251Y017535D01*
X021202Y017487D01*
X021202Y017438D01*
X021251Y017390D01*
X021101Y017390D02*
X021053Y017438D01*
X020908Y017438D01*
X020956Y017342D02*
X021053Y017342D01*
X021101Y017390D01*
X021101Y017245D02*
X020956Y017245D01*
X020908Y017293D01*
X020956Y017342D01*
X021053Y017104D02*
X021053Y017055D01*
X019579Y017438D02*
X019483Y017438D01*
X019434Y017390D01*
X019333Y017438D02*
X019236Y017438D01*
X019285Y017487D02*
X019285Y017293D01*
X019236Y017245D01*
X019137Y017293D02*
X019088Y017245D01*
X018992Y017245D01*
X018943Y017342D02*
X019137Y017342D01*
X019137Y017390D02*
X019088Y017438D01*
X018992Y017438D01*
X018943Y017390D01*
X018943Y017342D01*
X018842Y017390D02*
X018794Y017438D01*
X018649Y017438D01*
X018649Y017535D02*
X018649Y017245D01*
X018794Y017245D01*
X018842Y017293D01*
X018842Y017390D01*
X019137Y017390D02*
X019137Y017293D01*
X006335Y014660D02*
X006335Y014515D01*
X006287Y014467D01*
X006238Y014515D01*
X006190Y014467D01*
X006142Y014515D01*
X006142Y014660D01*
X006040Y014660D02*
X006040Y014515D01*
X005992Y014467D01*
X005944Y014515D01*
X005895Y014467D01*
X005847Y014515D01*
X005847Y014660D01*
X005746Y014660D02*
X005746Y014515D01*
X005697Y014467D01*
X005649Y014515D01*
X005601Y014467D01*
X005552Y014515D01*
X005552Y014660D01*
X005451Y014515D02*
X005403Y014515D01*
X005403Y014467D01*
X005451Y014467D01*
X005451Y014515D01*
X005304Y014467D02*
X005304Y014757D01*
X005255Y014612D02*
X005110Y014467D01*
X005009Y014467D02*
X004864Y014467D01*
X004816Y014515D01*
X004816Y014564D01*
X004864Y014612D01*
X005009Y014612D01*
X005009Y014467D02*
X005009Y014757D01*
X004864Y014757D01*
X004816Y014709D01*
X004816Y014660D01*
X004864Y014612D01*
X004714Y014612D02*
X004618Y014612D01*
X004714Y014757D02*
X004714Y014467D01*
X004521Y014467D01*
X004420Y014467D02*
X004420Y014660D01*
X004371Y014660D01*
X004323Y014612D01*
X004275Y014660D01*
X004226Y014612D01*
X004226Y014467D01*
X004323Y014467D02*
X004323Y014612D01*
X004125Y014660D02*
X003980Y014660D01*
X003932Y014612D01*
X003932Y014515D01*
X003980Y014467D01*
X004125Y014467D01*
X004125Y014757D01*
X003830Y014612D02*
X003830Y014515D01*
X003782Y014467D01*
X003685Y014467D01*
X003637Y014564D02*
X003830Y014564D01*
X003830Y014612D02*
X003782Y014660D01*
X003685Y014660D01*
X003637Y014612D01*
X003637Y014564D01*
X003536Y014612D02*
X003536Y014515D01*
X003487Y014467D01*
X003342Y014467D01*
X003342Y014757D01*
X003342Y014660D02*
X003487Y014660D01*
X003536Y014612D01*
X003241Y014612D02*
X003241Y014515D01*
X003193Y014467D01*
X003048Y014467D01*
X003048Y014757D01*
X003048Y014660D02*
X003193Y014660D01*
X003241Y014612D01*
X002947Y014612D02*
X002898Y014660D01*
X002801Y014660D01*
X002753Y014612D01*
X002753Y014564D01*
X002947Y014564D01*
X002947Y014612D02*
X002947Y014515D01*
X002898Y014467D01*
X002801Y014467D01*
X002652Y014515D02*
X002652Y014612D01*
X002603Y014660D01*
X002458Y014660D01*
X002458Y014757D02*
X002458Y014467D01*
X002603Y014467D01*
X002652Y014515D01*
X002357Y014515D02*
X002309Y014515D01*
X002309Y014467D01*
X002357Y014467D01*
X002357Y014515D01*
X002210Y014515D02*
X002162Y014467D01*
X002016Y014467D01*
X001915Y014515D02*
X001867Y014467D01*
X001770Y014467D01*
X001722Y014515D01*
X001722Y014612D01*
X001770Y014660D01*
X001867Y014660D01*
X001915Y014612D01*
X001915Y014515D01*
X002016Y014660D02*
X002162Y014660D01*
X002210Y014612D01*
X002210Y014515D01*
X001621Y014467D02*
X001621Y014660D01*
X001572Y014660D01*
X001524Y014612D01*
X001475Y014660D01*
X001427Y014612D01*
X001427Y014467D01*
X001524Y014467D02*
X001524Y014612D01*
X004521Y014757D02*
X004714Y014757D01*
X005110Y014757D02*
X005304Y014564D01*
X005297Y012555D02*
X005297Y012265D01*
X005196Y012362D02*
X005099Y012265D01*
X005002Y012362D01*
X005002Y012555D01*
X005196Y012555D02*
X005196Y012362D01*
X005297Y012410D02*
X005490Y012410D01*
X005592Y012410D02*
X005785Y012410D01*
X005785Y012265D02*
X005785Y012555D01*
X005592Y012555D02*
X005592Y012265D01*
X005490Y012265D02*
X005490Y012555D01*
X004606Y012507D02*
X004606Y012458D01*
X004558Y012410D01*
X004461Y012410D01*
X004413Y012362D01*
X004413Y012313D01*
X004461Y012265D01*
X004558Y012265D01*
X004606Y012313D01*
X004606Y012507D02*
X004558Y012555D01*
X004461Y012555D01*
X004413Y012507D01*
X004312Y012507D02*
X004312Y012313D01*
X004263Y012265D01*
X004167Y012265D01*
X004118Y012313D01*
X004017Y012265D02*
X004017Y012458D01*
X003920Y012555D01*
X003824Y012458D01*
X003824Y012265D01*
X003824Y012410D02*
X004017Y012410D01*
X004118Y012507D02*
X004167Y012555D01*
X004263Y012555D01*
X004312Y012507D01*
X003428Y012555D02*
X003428Y012265D01*
X003428Y012362D02*
X003283Y012362D01*
X003234Y012410D01*
X003234Y012507D01*
X003283Y012555D01*
X003428Y012555D01*
X003331Y012362D02*
X003234Y012265D01*
X003133Y012313D02*
X003133Y012410D01*
X003085Y012458D01*
X002988Y012458D01*
X002940Y012410D01*
X002940Y012362D01*
X003133Y012362D01*
X003133Y012313D02*
X003085Y012265D01*
X002988Y012265D01*
X002838Y012458D02*
X002742Y012265D01*
X002645Y012458D01*
X002249Y012362D02*
X002104Y012362D01*
X002056Y012410D01*
X002056Y012507D01*
X002104Y012555D01*
X002249Y012555D01*
X002249Y012265D01*
X001955Y012265D02*
X001761Y012265D01*
X001858Y012265D02*
X001858Y012555D01*
X001955Y012458D01*
D12*
X012664Y004737D02*
X012664Y004363D01*
X012571Y004270D01*
X012571Y004644D02*
X012758Y004644D01*
X013029Y004644D02*
X013309Y004644D01*
X013402Y004550D01*
X013309Y004457D01*
X013122Y004457D01*
X013029Y004363D01*
X013122Y004270D01*
X013402Y004270D01*
X013673Y004363D02*
X013673Y004550D01*
X013767Y004644D01*
X013953Y004644D01*
X014047Y004550D01*
X014047Y004363D01*
X013953Y004270D01*
X013767Y004270D01*
X013673Y004363D01*
X014318Y004270D02*
X014318Y004550D01*
X014411Y004644D01*
X014598Y004644D01*
X014691Y004550D01*
X014691Y004830D02*
X014691Y004270D01*
X014477Y003780D02*
X014196Y003780D01*
X014103Y003687D01*
X014103Y003500D01*
X014196Y003407D01*
X014477Y003407D01*
X014477Y003220D02*
X014477Y003780D01*
X013832Y003780D02*
X013552Y003780D01*
X013458Y003687D01*
X013458Y003500D01*
X013552Y003407D01*
X013832Y003407D01*
X013645Y003407D02*
X013458Y003220D01*
X013188Y003313D02*
X013094Y003220D01*
X012907Y003220D01*
X012814Y003313D01*
X012814Y003687D01*
X012907Y003780D01*
X013094Y003780D01*
X013188Y003687D01*
X013188Y003313D01*
X013832Y003220D02*
X013832Y003780D01*
X015392Y003780D02*
X015766Y003220D01*
X016037Y003220D02*
X016037Y003594D01*
X016223Y003780D01*
X016410Y003594D01*
X016410Y003220D01*
X016410Y003500D02*
X016037Y003500D01*
X015766Y003780D02*
X015392Y003220D01*
X015229Y002730D02*
X015135Y002730D01*
X015135Y002170D01*
X015042Y002170D02*
X015229Y002170D01*
X015499Y002170D02*
X015780Y002170D01*
X015873Y002263D01*
X015780Y002357D01*
X015499Y002357D01*
X015499Y002450D02*
X015499Y002170D01*
X015499Y002450D02*
X015593Y002544D01*
X015780Y002544D01*
X016209Y002544D02*
X016209Y002170D01*
X016116Y002170D02*
X016303Y002170D01*
X016653Y002544D02*
X016840Y002357D01*
X016840Y002170D02*
X016840Y002544D01*
X016653Y002544D02*
X016560Y002544D01*
X016303Y002544D02*
X016209Y002544D01*
X016209Y002730D02*
X016209Y002824D01*
X017111Y002450D02*
X017111Y002357D01*
X017485Y002357D01*
X017485Y002450D02*
X017485Y002263D01*
X017391Y002170D01*
X017204Y002170D01*
X017111Y002450D02*
X017204Y002544D01*
X017391Y002544D01*
X017485Y002450D01*
X017755Y002544D02*
X018036Y002544D01*
X018129Y002450D01*
X018036Y002357D01*
X017849Y002357D01*
X017755Y002263D01*
X017849Y002170D01*
X018129Y002170D01*
X017821Y001494D02*
X017541Y001494D01*
X017634Y001307D02*
X017821Y001307D01*
X017914Y001400D01*
X017821Y001494D01*
X017634Y001307D02*
X017541Y001213D01*
X017634Y001120D01*
X017914Y001120D01*
X018185Y001400D02*
X018559Y001400D01*
X018830Y001400D02*
X018830Y001120D01*
X018830Y001400D02*
X018923Y001494D01*
X019203Y001494D01*
X019203Y001120D01*
X019474Y001213D02*
X019474Y001400D01*
X019568Y001494D01*
X019754Y001494D01*
X019848Y001400D01*
X019848Y001213D01*
X019754Y001120D01*
X019568Y001120D01*
X019474Y001213D01*
X020763Y001213D02*
X020763Y001494D01*
X020763Y001213D02*
X020857Y001120D01*
X020950Y001213D01*
X021044Y001120D01*
X021137Y001213D01*
X021137Y001494D01*
X021408Y001400D02*
X021501Y001494D01*
X021688Y001494D01*
X021782Y001400D01*
X021782Y001213D01*
X021688Y001120D01*
X021501Y001120D01*
X021408Y001213D01*
X021408Y001400D01*
X022024Y001120D02*
X022211Y001120D01*
X022118Y001120D02*
X022118Y001680D01*
X022211Y001680D01*
X022547Y001680D02*
X022547Y001120D01*
X022454Y001120D02*
X022641Y001120D01*
X022912Y001213D02*
X022912Y001400D01*
X023005Y001494D01*
X023192Y001494D01*
X023285Y001400D01*
X023285Y001213D01*
X023192Y001120D01*
X023005Y001120D01*
X022912Y001213D01*
X022641Y001680D02*
X022547Y001680D01*
X022547Y002170D02*
X022641Y002263D01*
X022641Y002450D01*
X022547Y002544D01*
X022361Y002544D01*
X022267Y002450D01*
X022267Y002357D01*
X022641Y002357D01*
X022547Y002170D02*
X022361Y002170D01*
X021996Y002170D02*
X021996Y002544D01*
X021716Y002544D01*
X021623Y002450D01*
X021623Y002170D01*
X020707Y002263D02*
X020614Y002170D01*
X020427Y002170D01*
X020334Y002263D01*
X020334Y002730D01*
X020063Y002637D02*
X020063Y002544D01*
X019969Y002450D01*
X019782Y002450D01*
X019689Y002357D01*
X019689Y002263D01*
X019782Y002170D01*
X019969Y002170D01*
X020063Y002263D01*
X020063Y002637D02*
X019969Y002730D01*
X019782Y002730D01*
X019689Y002637D01*
X019418Y002730D02*
X019138Y002730D01*
X019045Y002637D01*
X019045Y002544D01*
X019138Y002450D01*
X019418Y002450D01*
X019418Y002170D02*
X019418Y002730D01*
X019138Y002450D02*
X019045Y002357D01*
X019045Y002263D01*
X019138Y002170D01*
X019418Y002170D01*
X020707Y002263D02*
X020707Y002730D01*
X020614Y003220D02*
X020334Y003220D01*
X020614Y003220D02*
X020707Y003313D01*
X020707Y003500D01*
X020614Y003594D01*
X020334Y003594D01*
X020063Y003594D02*
X019876Y003594D01*
X019969Y003687D02*
X019969Y003313D01*
X019876Y003220D01*
X018988Y003313D02*
X018895Y003220D01*
X018708Y003220D01*
X018615Y003313D01*
X018615Y003780D01*
X018344Y003687D02*
X018344Y003594D01*
X018250Y003500D01*
X018064Y003500D01*
X017970Y003407D01*
X017970Y003313D01*
X018064Y003220D01*
X018250Y003220D01*
X018344Y003313D01*
X018344Y003687D02*
X018250Y003780D01*
X018064Y003780D01*
X017970Y003687D01*
X017699Y003780D02*
X017419Y003780D01*
X017326Y003687D01*
X017326Y003594D01*
X017419Y003500D01*
X017699Y003500D01*
X017419Y003500D02*
X017326Y003407D01*
X017326Y003313D01*
X017419Y003220D01*
X017699Y003220D01*
X017699Y003780D01*
X017699Y004270D02*
X017419Y004270D01*
X017326Y004363D01*
X017326Y004457D01*
X017419Y004550D01*
X017699Y004550D01*
X017419Y004550D02*
X017326Y004644D01*
X017326Y004737D01*
X017419Y004830D01*
X017699Y004830D01*
X017699Y004270D01*
X017970Y004363D02*
X017970Y004457D01*
X018064Y004550D01*
X018250Y004550D01*
X018344Y004644D01*
X018344Y004737D01*
X018250Y004830D01*
X018064Y004830D01*
X017970Y004737D01*
X017970Y004363D02*
X018064Y004270D01*
X018250Y004270D01*
X018344Y004363D01*
X018615Y004363D02*
X018615Y004830D01*
X018988Y004830D02*
X018988Y004363D01*
X018895Y004270D01*
X018708Y004270D01*
X018615Y004363D01*
X018988Y003780D02*
X018988Y003313D01*
X020978Y003407D02*
X021352Y003407D01*
X021352Y003500D02*
X021258Y003594D01*
X021072Y003594D01*
X020978Y003500D01*
X020978Y003407D01*
X021072Y003220D02*
X021258Y003220D01*
X021352Y003313D01*
X021352Y003500D01*
X021623Y003500D02*
X021623Y003220D01*
X021623Y003500D02*
X021716Y003594D01*
X021996Y003594D01*
X021996Y003220D01*
X022267Y003220D02*
X022267Y003500D01*
X022361Y003594D01*
X022641Y003594D01*
X022641Y003220D01*
X022912Y003313D02*
X022912Y003500D01*
X023005Y003594D01*
X023192Y003594D01*
X023285Y003500D01*
X023285Y003313D01*
X023192Y003220D01*
X023005Y003220D01*
X022912Y003313D01*
X023556Y003313D02*
X023650Y003220D01*
X023837Y003220D01*
X023930Y003313D01*
X023930Y003687D01*
X023837Y003780D01*
X023650Y003780D01*
X023556Y003687D01*
X023650Y004270D02*
X023556Y004363D01*
X023650Y004270D02*
X023837Y004270D01*
X023930Y004363D01*
X023930Y004737D01*
X023837Y004830D01*
X023650Y004830D01*
X023556Y004737D01*
X023285Y004550D02*
X023285Y004363D01*
X023192Y004270D01*
X023005Y004270D01*
X022912Y004363D01*
X022912Y004550D01*
X023005Y004644D01*
X023192Y004644D01*
X023285Y004550D01*
X022641Y004644D02*
X022641Y004270D01*
X022641Y004644D02*
X022361Y004644D01*
X022267Y004550D01*
X022267Y004270D01*
X021996Y004270D02*
X021996Y004644D01*
X021716Y004644D01*
X021623Y004550D01*
X021623Y004270D01*
X021352Y004363D02*
X021352Y004550D01*
X021258Y004644D01*
X021072Y004644D01*
X020978Y004550D01*
X020978Y004457D01*
X021352Y004457D01*
X021352Y004363D02*
X021258Y004270D01*
X021072Y004270D01*
X020707Y004363D02*
X020707Y004550D01*
X020614Y004644D01*
X020334Y004644D01*
X020063Y004644D02*
X019876Y004644D01*
X019969Y004737D02*
X019969Y004363D01*
X019876Y004270D01*
X020334Y004270D02*
X020614Y004270D01*
X020707Y004363D01*
X023556Y002637D02*
X023650Y002730D01*
X023837Y002730D01*
X023930Y002637D01*
X023930Y002263D01*
X023837Y002170D01*
X023650Y002170D01*
X023556Y002263D01*
X023556Y002637D01*
X023285Y002544D02*
X023005Y002544D01*
X022912Y002450D01*
X022912Y002263D01*
X023005Y002170D01*
X023285Y002170D01*
X023285Y001983D02*
X023285Y002544D01*
X023556Y001680D02*
X023930Y001680D01*
X023930Y001120D01*
X023930Y001400D02*
X023743Y001400D01*
X017270Y001400D02*
X017270Y001213D01*
X017176Y001120D01*
X016896Y001120D01*
X016625Y001120D02*
X016625Y001494D01*
X016625Y001307D02*
X016438Y001494D01*
X016345Y001494D01*
X016088Y001400D02*
X015995Y001494D01*
X015808Y001494D01*
X015714Y001400D01*
X015714Y001307D01*
X016088Y001307D01*
X016088Y001400D02*
X016088Y001213D01*
X015995Y001120D01*
X015808Y001120D01*
X015443Y001213D02*
X015443Y001400D01*
X015350Y001494D01*
X015163Y001494D01*
X015070Y001400D01*
X015070Y001307D01*
X015443Y001307D01*
X015443Y001213D02*
X015350Y001120D01*
X015163Y001120D01*
X014799Y001120D02*
X014799Y001494D01*
X014519Y001494D01*
X014425Y001400D01*
X014425Y001120D01*
X013510Y001120D02*
X013323Y001120D01*
X013416Y001120D02*
X013416Y001494D01*
X013510Y001494D01*
X013416Y001680D02*
X013416Y001774D01*
X013444Y002170D02*
X013631Y002170D01*
X013725Y002263D01*
X013725Y002450D01*
X013631Y002544D01*
X013444Y002544D01*
X013351Y002450D01*
X013351Y002357D01*
X013725Y002357D01*
X013968Y002544D02*
X014154Y002544D01*
X014061Y002637D02*
X014061Y002263D01*
X013968Y002170D01*
X013080Y002170D02*
X013080Y002544D01*
X012893Y002544D02*
X012800Y002544D01*
X012893Y002544D02*
X013080Y002357D01*
X012543Y002170D02*
X012543Y002544D01*
X012450Y002544D01*
X012356Y002450D01*
X012263Y002544D01*
X012169Y002450D01*
X012169Y002170D01*
X012356Y002170D02*
X012356Y002450D01*
X011898Y002544D02*
X011805Y002544D01*
X011805Y002170D01*
X011898Y002170D02*
X011712Y002170D01*
X011469Y002170D02*
X011469Y002544D01*
X011188Y002544D01*
X011095Y002450D01*
X011095Y002170D01*
X010824Y002263D02*
X010731Y002170D01*
X010451Y002170D01*
X010451Y002450D01*
X010544Y002544D01*
X010731Y002544D01*
X010731Y002357D02*
X010451Y002357D01*
X010731Y002357D02*
X010824Y002263D01*
X010180Y002170D02*
X009993Y002170D01*
X010086Y002170D02*
X010086Y002730D01*
X010180Y002730D01*
X010236Y003220D02*
X010516Y003220D01*
X010609Y003313D01*
X010516Y003407D01*
X010236Y003407D01*
X010236Y003500D02*
X010236Y003220D01*
X009965Y003220D02*
X009778Y003220D01*
X009871Y003220D02*
X009871Y003780D01*
X009965Y003780D01*
X010236Y003500D02*
X010329Y003594D01*
X010516Y003594D01*
X010880Y003500D02*
X010880Y003220D01*
X010880Y003500D02*
X010974Y003594D01*
X011254Y003594D01*
X011254Y003220D01*
X011525Y003220D02*
X011525Y003594D01*
X011712Y003780D01*
X011898Y003594D01*
X011898Y003220D01*
X011898Y003500D02*
X011525Y003500D01*
X011805Y002824D02*
X011805Y002730D01*
X011698Y001587D02*
X011698Y001213D01*
X011604Y001120D01*
X011361Y001120D02*
X011361Y001494D01*
X011174Y001494D02*
X011081Y001494D01*
X011174Y001494D02*
X011361Y001307D01*
X011604Y001494D02*
X011791Y001494D01*
X012062Y001494D02*
X012342Y001494D01*
X012436Y001400D01*
X012342Y001307D01*
X012155Y001307D01*
X012062Y001213D01*
X012155Y001120D01*
X012436Y001120D01*
X012706Y001120D02*
X012706Y001400D01*
X012800Y001494D01*
X013080Y001494D01*
X013080Y001120D01*
X010824Y001213D02*
X010731Y001120D01*
X010451Y001120D01*
X010451Y001494D01*
X010180Y001400D02*
X010180Y001213D01*
X010086Y001120D01*
X009806Y001120D01*
X009806Y001494D02*
X010086Y001494D01*
X010180Y001400D01*
X009535Y001494D02*
X009348Y001494D01*
X009442Y001587D02*
X009442Y001213D01*
X009348Y001120D01*
X009105Y001120D02*
X008919Y001120D01*
X009012Y001120D02*
X009012Y001494D01*
X009105Y001494D01*
X009012Y001680D02*
X009012Y001774D01*
X009012Y002170D02*
X009105Y002263D01*
X009105Y002450D01*
X009012Y002544D01*
X008825Y002544D01*
X008732Y002450D01*
X008732Y002263D01*
X008825Y002170D01*
X009012Y002170D01*
X008461Y002170D02*
X008461Y002544D01*
X008181Y002544D01*
X008087Y002450D01*
X008087Y002170D01*
X007172Y002170D02*
X007172Y002730D01*
X007078Y002544D02*
X006891Y002544D01*
X006798Y002450D01*
X006798Y002170D01*
X006527Y002263D02*
X006434Y002170D01*
X006247Y002170D01*
X006154Y002263D01*
X006154Y002450D01*
X006247Y002544D01*
X006434Y002544D01*
X006527Y002450D01*
X006527Y002263D01*
X005883Y002170D02*
X005602Y002170D01*
X005509Y002263D01*
X005602Y002357D01*
X005789Y002357D01*
X005883Y002450D01*
X005789Y002544D01*
X005509Y002544D01*
X005238Y002544D02*
X005051Y002544D01*
X005145Y002637D02*
X005145Y002263D01*
X005051Y002170D01*
X007078Y002544D02*
X007172Y002450D01*
X007601Y003220D02*
X007601Y003594D01*
X007415Y003594D02*
X007601Y003407D01*
X007415Y003594D02*
X007321Y003594D01*
X007872Y003500D02*
X007872Y003407D01*
X008246Y003407D01*
X008246Y003500D02*
X008153Y003594D01*
X007966Y003594D01*
X007872Y003500D01*
X007966Y003220D02*
X008153Y003220D01*
X008246Y003313D01*
X008246Y003500D01*
X008517Y003594D02*
X008891Y003220D01*
X008517Y003220D01*
X008517Y003594D02*
X008891Y003594D01*
X009161Y003594D02*
X009161Y003127D01*
X009255Y003033D01*
X009348Y003033D01*
X009442Y003220D02*
X009161Y003220D01*
X009442Y003220D02*
X009535Y003313D01*
X009535Y003594D01*
X008582Y001494D02*
X008676Y001400D01*
X008676Y001213D01*
X008582Y001120D01*
X008395Y001120D01*
X008302Y001213D01*
X008302Y001400D01*
X008395Y001494D01*
X008582Y001494D01*
X008031Y001494D02*
X008031Y001120D01*
X007657Y001120D02*
X007657Y001400D01*
X007751Y001494D01*
X008031Y001494D01*
X007387Y001400D02*
X007293Y001307D01*
X007106Y001307D01*
X007013Y001213D01*
X007106Y001120D01*
X007387Y001120D01*
X007387Y001400D02*
X007293Y001494D01*
X007013Y001494D01*
X010824Y001494D02*
X010824Y001213D01*
X015607Y004363D02*
X015607Y004550D01*
X015700Y004644D01*
X015887Y004644D01*
X015981Y004550D01*
X015981Y004363D01*
X015887Y004270D01*
X015700Y004270D01*
X015607Y004363D01*
X016223Y004270D02*
X016317Y004363D01*
X016317Y004737D01*
X016410Y004644D02*
X016223Y004644D01*
X016896Y001494D02*
X017176Y001494D01*
X017270Y001400D01*
D13*
X005670Y012760D02*
X004870Y012760D01*
X004870Y013460D01*
X004810Y013520D01*
X005170Y013960D02*
X005170Y014260D01*
X005670Y014260D01*
X005670Y013360D01*
X005470Y013360D01*
X005310Y013200D01*
X005670Y013360D02*
X005670Y012760D01*
X004870Y012760D02*
X004020Y012760D01*
X003870Y012910D01*
X003870Y013080D01*
X004020Y012760D02*
X002120Y012760D01*
X002120Y013410D01*
X002120Y014260D01*
X002870Y014260D01*
X004220Y014260D01*
X005170Y014260D01*
X005170Y013960D02*
X005470Y013660D01*
X004220Y014260D02*
X003770Y013810D01*
X003480Y013810D01*
X002870Y014160D02*
X002870Y014260D01*
X002870Y014160D02*
X002560Y013850D01*
X002570Y013410D02*
X002120Y013410D01*
X002570Y013410D02*
X002680Y013300D01*
D14*
X002653Y013210D02*
X002655Y013231D01*
X002660Y013251D01*
X002670Y013270D01*
X002682Y013287D01*
X002697Y013301D01*
X002715Y013313D01*
X002734Y013321D01*
X002754Y013326D01*
X002775Y013327D01*
X002796Y013324D01*
X002816Y013318D01*
X002834Y013308D01*
X002851Y013295D01*
X002865Y013279D01*
X002875Y013261D01*
X002883Y013241D01*
X002887Y013220D01*
X002887Y013200D01*
X002883Y013179D01*
X002875Y013159D01*
X002865Y013141D01*
X002851Y013125D01*
X002834Y013112D01*
X002816Y013102D01*
X002796Y013096D01*
X002775Y013093D01*
X002754Y013094D01*
X002734Y013099D01*
X002715Y013107D01*
X002697Y013119D01*
X002682Y013133D01*
X002670Y013150D01*
X002660Y013169D01*
X002655Y013189D01*
X002653Y013210D01*
X002356Y013760D02*
X002358Y013781D01*
X002364Y013801D01*
X002373Y013820D01*
X002386Y013837D01*
X002401Y013851D01*
X002419Y013862D01*
X002439Y013870D01*
X002459Y013874D01*
X002481Y013874D01*
X002501Y013870D01*
X002521Y013862D01*
X002539Y013851D01*
X002554Y013837D01*
X002567Y013820D01*
X002576Y013801D01*
X002582Y013781D01*
X002584Y013760D01*
X002582Y013739D01*
X002576Y013719D01*
X002567Y013700D01*
X002554Y013683D01*
X002539Y013669D01*
X002521Y013658D01*
X002501Y013650D01*
X002481Y013646D01*
X002459Y013646D01*
X002439Y013650D01*
X002419Y013658D01*
X002401Y013669D01*
X002386Y013683D01*
X002373Y013700D01*
X002364Y013719D01*
X002358Y013739D01*
X002356Y013760D01*
X003306Y013810D02*
X003308Y013831D01*
X003314Y013851D01*
X003323Y013870D01*
X003336Y013887D01*
X003351Y013901D01*
X003369Y013912D01*
X003389Y013920D01*
X003409Y013924D01*
X003431Y013924D01*
X003451Y013920D01*
X003471Y013912D01*
X003489Y013901D01*
X003504Y013887D01*
X003517Y013870D01*
X003526Y013851D01*
X003532Y013831D01*
X003534Y013810D01*
X003532Y013789D01*
X003526Y013769D01*
X003517Y013750D01*
X003504Y013733D01*
X003489Y013719D01*
X003471Y013708D01*
X003451Y013700D01*
X003431Y013696D01*
X003409Y013696D01*
X003389Y013700D01*
X003369Y013708D01*
X003351Y013719D01*
X003336Y013733D01*
X003323Y013750D01*
X003314Y013769D01*
X003308Y013789D01*
X003306Y013810D01*
X003756Y013210D02*
X003758Y013231D01*
X003764Y013251D01*
X003773Y013270D01*
X003786Y013287D01*
X003801Y013301D01*
X003819Y013312D01*
X003839Y013320D01*
X003859Y013324D01*
X003881Y013324D01*
X003901Y013320D01*
X003921Y013312D01*
X003939Y013301D01*
X003954Y013287D01*
X003967Y013270D01*
X003976Y013251D01*
X003982Y013231D01*
X003984Y013210D01*
X003982Y013189D01*
X003976Y013169D01*
X003967Y013150D01*
X003954Y013133D01*
X003939Y013119D01*
X003921Y013108D01*
X003901Y013100D01*
X003881Y013096D01*
X003859Y013096D01*
X003839Y013100D01*
X003819Y013108D01*
X003801Y013119D01*
X003786Y013133D01*
X003773Y013150D01*
X003764Y013169D01*
X003758Y013189D01*
X003756Y013210D01*
X004607Y013610D02*
X004609Y013631D01*
X004615Y013651D01*
X004624Y013669D01*
X004636Y013686D01*
X004652Y013700D01*
X004670Y013711D01*
X004689Y013719D01*
X004710Y013723D01*
X004730Y013723D01*
X004751Y013719D01*
X004770Y013711D01*
X004788Y013700D01*
X004804Y013686D01*
X004816Y013669D01*
X004825Y013651D01*
X004831Y013631D01*
X004833Y013610D01*
X004831Y013589D01*
X004825Y013569D01*
X004816Y013551D01*
X004804Y013534D01*
X004788Y013520D01*
X004770Y013509D01*
X004751Y013501D01*
X004730Y013497D01*
X004710Y013497D01*
X004689Y013501D01*
X004670Y013509D01*
X004652Y013520D01*
X004636Y013534D01*
X004624Y013551D01*
X004615Y013569D01*
X004609Y013589D01*
X004607Y013610D01*
X005107Y013110D02*
X005109Y013131D01*
X005115Y013151D01*
X005124Y013169D01*
X005136Y013186D01*
X005152Y013200D01*
X005170Y013211D01*
X005189Y013219D01*
X005210Y013223D01*
X005230Y013223D01*
X005251Y013219D01*
X005270Y013211D01*
X005288Y013200D01*
X005304Y013186D01*
X005316Y013169D01*
X005325Y013151D01*
X005331Y013131D01*
X005333Y013110D01*
X005331Y013089D01*
X005325Y013069D01*
X005316Y013051D01*
X005304Y013034D01*
X005288Y013020D01*
X005270Y013009D01*
X005251Y013001D01*
X005230Y012997D01*
X005210Y012997D01*
X005189Y013001D01*
X005170Y013009D01*
X005152Y013020D01*
X005136Y013034D01*
X005124Y013051D01*
X005115Y013069D01*
X005109Y013089D01*
X005107Y013110D01*
X005349Y013660D02*
X005351Y013682D01*
X005357Y013703D01*
X005366Y013722D01*
X005379Y013740D01*
X005395Y013755D01*
X005413Y013767D01*
X005433Y013775D01*
X005454Y013780D01*
X005475Y013781D01*
X005497Y013778D01*
X005518Y013771D01*
X005537Y013761D01*
X005554Y013747D01*
X005568Y013731D01*
X005579Y013712D01*
X005587Y013692D01*
X005591Y013671D01*
X005591Y013649D01*
X005587Y013628D01*
X005579Y013608D01*
X005568Y013589D01*
X005554Y013573D01*
X005537Y013559D01*
X005518Y013549D01*
X005497Y013542D01*
X005475Y013539D01*
X005454Y013540D01*
X005433Y013545D01*
X005413Y013553D01*
X005395Y013565D01*
X005379Y013580D01*
X005366Y013598D01*
X005357Y013617D01*
X005351Y013638D01*
X005349Y013660D01*
D15*
X005287Y013510D02*
X004736Y012960D01*
X004273Y012960D02*
X003723Y012960D01*
X003539Y013143D01*
X003539Y013327D01*
X003723Y013510D01*
X004273Y013510D01*
X003723Y013510D02*
X003539Y013694D01*
X003539Y013877D01*
X003723Y014061D01*
X004273Y014061D01*
X004273Y012960D01*
X004736Y014061D02*
X005470Y013327D01*
X005470Y012960D02*
X005470Y014061D01*
X003076Y014061D02*
X003076Y012960D01*
X002342Y012960D01*
X002709Y013510D02*
X003076Y013510D01*
X003076Y014061D02*
X002342Y014061D01*
M02*
