G75*
%MOIN*%
%OFA0B0*%
%FSLAX24Y24*%
%IPPOS*%
%LPD*%
%AMOC8*
5,1,8,0,0,1.08239X$1,22.5*
%
%ADD10C,0.0540*%
%ADD11C,0.0660*%
%ADD12C,0.0414*%
%ADD13OC8,0.0540*%
%ADD14OC8,0.0660*%
%ADD15R,0.0540X0.0540*%
%ADD16C,0.0540*%
D10*
X016351Y020442D02*
X016351Y020922D01*
X017351Y020922D02*
X017351Y020442D01*
X018351Y020442D02*
X018351Y020922D01*
X019351Y020922D02*
X019351Y020442D01*
X020351Y020442D02*
X020351Y020922D01*
X021351Y020922D02*
X021351Y020442D01*
D11*
X002920Y005510D02*
X002320Y005510D01*
X004880Y005510D02*
X005480Y005510D01*
X005480Y007290D02*
X004880Y007290D01*
X002920Y007290D02*
X002320Y007290D01*
X009320Y007290D02*
X009920Y007290D01*
X011880Y007290D02*
X012480Y007290D01*
X012480Y005510D02*
X011880Y005510D01*
X009920Y005510D02*
X009320Y005510D01*
X016320Y005510D02*
X016920Y005510D01*
X018880Y005510D02*
X019480Y005510D01*
X019480Y007290D02*
X018880Y007290D01*
X016920Y007290D02*
X016320Y007290D01*
X023320Y007290D02*
X023920Y007290D01*
X025880Y007290D02*
X026480Y007290D01*
X026480Y005510D02*
X025880Y005510D01*
X023920Y005510D02*
X023320Y005510D01*
X014130Y013610D02*
X013530Y013610D01*
X011570Y013610D02*
X010970Y013610D01*
X010970Y015390D02*
X011570Y015390D01*
X013530Y015390D02*
X014130Y015390D01*
D12*
X023918Y019150D03*
X025650Y019150D03*
D13*
X014200Y019700D03*
X014200Y020700D03*
X011950Y020700D03*
X011950Y019700D03*
X023250Y010800D03*
X024250Y010800D03*
X026450Y010800D03*
X027450Y010800D03*
D14*
X009750Y019050D03*
X008750Y019050D03*
X007750Y019050D03*
X006750Y019050D03*
X005750Y019050D03*
X005750Y020050D03*
X006750Y020050D03*
X007750Y020050D03*
X008750Y020050D03*
X009750Y020050D03*
D15*
X016050Y013000D03*
D16*
X017050Y013000D03*
X018050Y013000D03*
X019050Y013000D03*
X019050Y016000D03*
X018050Y016000D03*
X017050Y016000D03*
X016050Y016000D03*
M02*
