%
M48
M72
T01C0.0130
T02C0.0320
T03C0.0354
T04C0.0400
%
T01
X16050Y10650
X18550Y11400
X19750Y13350
X21900Y14450
X22800Y14050
X23450Y14050
X23450Y13700
X24950Y12250
X24950Y11550
X27100Y12200
X26650Y13700
X26650Y14300
X26450Y14600
X25700Y15150
X24950Y15300
X24950Y16150
X24150Y16950
X22350Y17450
X20350Y16750
X19750Y15500
X15450Y16350
X22350Y21050
X27450Y21050
X27450Y17450
X27300Y16900
X28300Y14750
T02
X27450Y10800
X26450Y10800
X24250Y10800
X23250Y10800
X19050Y13000
X18050Y13000
X17050Y13000
X16050Y13000
X16050Y16000
X17050Y16000
X18050Y16000
X19050Y16000
X14200Y19700
X14200Y20700
X16351Y20682
X17351Y20682
X18351Y20682
X19351Y20682
X20351Y20682
X21351Y20682
X11950Y20700
X11950Y19700
T03
X23918Y19150
X25650Y19150
T04
X2620Y5510
X5180Y5510
X5180Y7290
X2620Y7290
X9620Y7290
X12180Y7290
X12180Y5510
X9620Y5510
X16620Y5510
X19180Y5510
X19180Y7290
X16620Y7290
X23620Y7290
X26180Y7290
X26180Y5510
X23620Y5510
X13830Y13610
X11270Y13610
X11270Y15390
X13830Y15390
X9750Y19050
X8750Y19050
X7750Y19050
X6750Y19050
X5750Y19050
X5750Y20050
X6750Y20050
X7750Y20050
X8750Y20050
X9750Y20050
M30
