G75*
%MOIN*%
%OFA0B0*%
%FSLAX24Y24*%
%IPPOS*%
%LPD*%
%AMOC8*
5,1,8,0,0,1.08239X$1,22.5*
%
%ADD10C,0.0040*%
%ADD11C,0.0060*%
%ADD12C,0.0080*%
%ADD13C,0.0100*%
%ADD14C,0.0050*%
%ADD15C,0.0140*%
D10*
X005147Y017720D02*
X005300Y017720D01*
X005377Y017797D01*
X005377Y018180D01*
X005530Y018104D02*
X005607Y018180D01*
X005761Y018180D01*
X005837Y018104D01*
X005991Y018180D02*
X005991Y017720D01*
X006221Y017720D01*
X006298Y017797D01*
X006298Y017873D01*
X006221Y017950D01*
X005991Y017950D01*
X005837Y017873D02*
X005837Y017797D01*
X005761Y017720D01*
X005607Y017720D01*
X005530Y017797D01*
X005607Y017950D02*
X005761Y017950D01*
X005837Y017873D01*
X005607Y017950D02*
X005530Y018027D01*
X005530Y018104D01*
X005070Y018180D02*
X005070Y017797D01*
X005147Y017720D01*
X005991Y018180D02*
X006221Y018180D01*
X006298Y018104D01*
X006298Y018027D01*
X006221Y017950D01*
X006451Y017950D02*
X006528Y018027D01*
X006681Y018027D01*
X006758Y017950D01*
X006758Y017873D01*
X006451Y017873D01*
X006451Y017797D02*
X006451Y017950D01*
X006451Y017797D02*
X006528Y017720D01*
X006681Y017720D01*
X006912Y017797D02*
X006912Y017950D01*
X006988Y018027D01*
X007142Y018027D01*
X007218Y017950D01*
X007218Y017873D01*
X006912Y017873D01*
X006912Y017797D02*
X006988Y017720D01*
X007142Y017720D01*
X007832Y017720D02*
X007832Y018027D01*
X007986Y018180D01*
X008139Y018027D01*
X008139Y017720D01*
X008293Y017720D02*
X008600Y018180D01*
X008293Y018180D02*
X008600Y017720D01*
X008139Y017950D02*
X007832Y017950D01*
X009214Y017873D02*
X009444Y017873D01*
X009520Y017950D01*
X009520Y018104D01*
X009444Y018180D01*
X009214Y018180D01*
X009214Y017720D01*
X009674Y017720D02*
X009674Y018180D01*
X009904Y018180D01*
X009981Y018104D01*
X009981Y017950D01*
X009904Y017873D01*
X009674Y017873D01*
X009827Y017873D02*
X009981Y017720D01*
X010134Y017797D02*
X010211Y017720D01*
X010365Y017720D01*
X010441Y017797D01*
X010441Y018104D01*
X010365Y018180D01*
X010211Y018180D01*
X010134Y018104D01*
X010134Y017797D01*
X009927Y020720D02*
X009620Y020720D01*
X009773Y020720D02*
X009773Y021180D01*
X009620Y021027D01*
D11*
X010730Y020990D02*
X010730Y020730D01*
X010860Y020730D01*
X010903Y020773D01*
X010903Y020947D01*
X010860Y020990D01*
X010730Y020990D01*
X011025Y020947D02*
X011068Y020990D01*
X011155Y020990D01*
X011198Y020947D01*
X011198Y020903D01*
X011025Y020730D01*
X011198Y020730D01*
X012980Y020730D02*
X013110Y020730D01*
X013153Y020773D01*
X013153Y020947D01*
X013110Y020990D01*
X012980Y020990D01*
X012980Y020730D01*
X013275Y020730D02*
X013448Y020730D01*
X013361Y020730D02*
X013361Y020990D01*
X013275Y020903D01*
X014980Y018940D02*
X015110Y018940D01*
X015153Y018897D01*
X015153Y018810D01*
X015110Y018767D01*
X014980Y018767D01*
X015067Y018767D02*
X015153Y018680D01*
X015275Y018723D02*
X015318Y018680D01*
X015405Y018680D01*
X015448Y018723D01*
X015448Y018810D01*
X015405Y018853D01*
X015361Y018853D01*
X015275Y018810D01*
X015275Y018940D01*
X015448Y018940D01*
X014980Y018940D02*
X014980Y018680D01*
X011248Y018723D02*
X011248Y018767D01*
X011205Y018810D01*
X011075Y018810D01*
X011075Y018723D01*
X011118Y018680D01*
X011205Y018680D01*
X011248Y018723D01*
X011075Y018810D02*
X011161Y018897D01*
X011248Y018940D01*
X010953Y018897D02*
X010953Y018810D01*
X010910Y018767D01*
X010780Y018767D01*
X010867Y018767D02*
X010953Y018680D01*
X010780Y018680D02*
X010780Y018940D01*
X010910Y018940D01*
X010953Y018897D01*
X007993Y020780D02*
X007819Y020780D01*
X007993Y020953D01*
X007993Y020997D01*
X007949Y021040D01*
X007863Y021040D01*
X007819Y020997D01*
X007698Y021040D02*
X007698Y020780D01*
X007525Y021040D01*
X007525Y020780D01*
X007403Y020823D02*
X007360Y020780D01*
X007273Y020780D01*
X007230Y020823D01*
X007230Y020997D01*
X007273Y021040D01*
X007360Y021040D01*
X007403Y020997D01*
X009523Y015590D02*
X009480Y015547D01*
X009480Y015503D01*
X009523Y015460D01*
X009610Y015460D01*
X009653Y015417D01*
X009653Y015373D01*
X009610Y015330D01*
X009523Y015330D01*
X009480Y015373D01*
X009523Y015590D02*
X009610Y015590D01*
X009653Y015547D01*
X009775Y015590D02*
X009775Y015330D01*
X009861Y015417D01*
X009948Y015330D01*
X009948Y015590D01*
X010069Y015590D02*
X010069Y015460D01*
X010156Y015503D01*
X010199Y015503D01*
X010243Y015460D01*
X010243Y015373D01*
X010199Y015330D01*
X010113Y015330D01*
X010069Y015373D01*
X010069Y015590D02*
X010243Y015590D01*
X015830Y012590D02*
X015830Y012373D01*
X015873Y012330D01*
X015960Y012330D01*
X016003Y012373D01*
X016003Y012590D01*
X016125Y012503D02*
X016211Y012590D01*
X016211Y012330D01*
X016125Y012330D02*
X016298Y012330D01*
X015611Y011590D02*
X015611Y011330D01*
X015525Y011330D02*
X015698Y011330D01*
X015525Y011503D02*
X015611Y011590D01*
X015403Y011547D02*
X015360Y011590D01*
X015273Y011590D01*
X015230Y011547D01*
X015230Y011373D01*
X015273Y011330D01*
X015360Y011330D01*
X015403Y011373D01*
X015325Y007440D02*
X015325Y007180D01*
X015411Y007267D01*
X015498Y007180D01*
X015498Y007440D01*
X015619Y007397D02*
X015663Y007440D01*
X015749Y007440D01*
X015793Y007397D01*
X015793Y007353D01*
X015749Y007310D01*
X015793Y007267D01*
X015793Y007223D01*
X015749Y007180D01*
X015663Y007180D01*
X015619Y007223D01*
X015706Y007310D02*
X015749Y007310D01*
X015203Y007267D02*
X015203Y007223D01*
X015160Y007180D01*
X015073Y007180D01*
X015030Y007223D01*
X015073Y007310D02*
X015160Y007310D01*
X015203Y007267D01*
X015203Y007397D02*
X015160Y007440D01*
X015073Y007440D01*
X015030Y007397D01*
X015030Y007353D01*
X015073Y007310D01*
X008793Y007303D02*
X008793Y007347D01*
X008749Y007390D01*
X008663Y007390D01*
X008619Y007347D01*
X008498Y007390D02*
X008498Y007130D01*
X008411Y007217D01*
X008325Y007130D01*
X008325Y007390D01*
X008203Y007347D02*
X008160Y007390D01*
X008073Y007390D01*
X008030Y007347D01*
X008030Y007303D01*
X008073Y007260D01*
X008160Y007260D01*
X008203Y007217D01*
X008203Y007173D01*
X008160Y007130D01*
X008073Y007130D01*
X008030Y007173D01*
X008619Y007130D02*
X008793Y007303D01*
X008793Y007130D02*
X008619Y007130D01*
X001793Y007180D02*
X001619Y007180D01*
X001706Y007180D02*
X001706Y007440D01*
X001619Y007353D01*
X001498Y007440D02*
X001498Y007180D01*
X001411Y007267D01*
X001325Y007180D01*
X001325Y007440D01*
X001203Y007397D02*
X001160Y007440D01*
X001073Y007440D01*
X001030Y007397D01*
X001030Y007353D01*
X001073Y007310D01*
X001160Y007310D01*
X001203Y007267D01*
X001203Y007223D01*
X001160Y007180D01*
X001073Y007180D01*
X001030Y007223D01*
X022080Y007173D02*
X022123Y007130D01*
X022210Y007130D01*
X022253Y007173D01*
X022253Y007217D01*
X022210Y007260D01*
X022123Y007260D01*
X022080Y007303D01*
X022080Y007347D01*
X022123Y007390D01*
X022210Y007390D01*
X022253Y007347D01*
X022375Y007390D02*
X022375Y007130D01*
X022461Y007217D01*
X022548Y007130D01*
X022548Y007390D01*
X022669Y007260D02*
X022843Y007260D01*
X022799Y007130D02*
X022799Y007390D01*
X022669Y007260D01*
X023480Y009580D02*
X023610Y009580D01*
X023653Y009623D01*
X023653Y009797D01*
X023610Y009840D01*
X023480Y009840D01*
X023480Y009580D01*
X023775Y009710D02*
X023905Y009840D01*
X023905Y009580D01*
X023948Y009710D02*
X023775Y009710D01*
X024530Y009780D02*
X024530Y010040D01*
X024660Y010040D01*
X024703Y009997D01*
X024703Y009910D01*
X024660Y009867D01*
X024530Y009867D01*
X024617Y009867D02*
X024703Y009780D01*
X024825Y009780D02*
X024998Y009780D01*
X024911Y009780D02*
X024911Y010040D01*
X024825Y009953D01*
X025119Y009997D02*
X025119Y009823D01*
X025293Y009997D01*
X025293Y009823D01*
X025249Y009780D01*
X025163Y009780D01*
X025119Y009823D01*
X025119Y009997D02*
X025163Y010040D01*
X025249Y010040D01*
X025293Y009997D01*
X026730Y009840D02*
X026730Y009580D01*
X026860Y009580D01*
X026903Y009623D01*
X026903Y009797D01*
X026860Y009840D01*
X026730Y009840D01*
X027025Y009797D02*
X027068Y009840D01*
X027155Y009840D01*
X027198Y009797D01*
X027198Y009753D01*
X027155Y009710D01*
X027198Y009667D01*
X027198Y009623D01*
X027155Y009580D01*
X027068Y009580D01*
X027025Y009623D01*
X027111Y009710D02*
X027155Y009710D01*
X027930Y009830D02*
X027930Y010090D01*
X028060Y010090D01*
X028103Y010047D01*
X028103Y009960D01*
X028060Y009917D01*
X027930Y009917D01*
X028017Y009917D02*
X028103Y009830D01*
X028225Y009873D02*
X028268Y009830D01*
X028355Y009830D01*
X028398Y009873D01*
X028398Y010047D01*
X028355Y010090D01*
X028268Y010090D01*
X028225Y010047D01*
X028225Y010003D01*
X028268Y009960D01*
X028398Y009960D01*
X025825Y011930D02*
X025825Y011973D01*
X025998Y012147D01*
X025998Y012190D01*
X025825Y012190D01*
X025703Y012147D02*
X025660Y012190D01*
X025530Y012190D01*
X025530Y011930D01*
X025530Y012017D02*
X025660Y012017D01*
X025703Y012060D01*
X025703Y012147D01*
X025617Y012017D02*
X025703Y011930D01*
X027480Y012973D02*
X027523Y012930D01*
X027610Y012930D01*
X027653Y012973D01*
X027775Y012973D02*
X027818Y012930D01*
X027905Y012930D01*
X027948Y012973D01*
X027948Y013060D01*
X027905Y013103D01*
X027861Y013103D01*
X027775Y013060D01*
X027775Y013190D01*
X027948Y013190D01*
X027653Y013147D02*
X027610Y013190D01*
X027523Y013190D01*
X027480Y013147D01*
X027480Y012973D01*
X027703Y015180D02*
X027877Y015180D01*
X027920Y015223D01*
X027920Y015310D01*
X027877Y015353D01*
X027877Y015475D02*
X027920Y015518D01*
X027920Y015605D01*
X027877Y015648D01*
X027833Y015648D01*
X027790Y015605D01*
X027790Y015561D01*
X027790Y015605D02*
X027747Y015648D01*
X027703Y015648D01*
X027660Y015605D01*
X027660Y015518D01*
X027703Y015475D01*
X027703Y015353D02*
X027660Y015310D01*
X027660Y015223D01*
X027703Y015180D01*
X027220Y015223D02*
X027220Y015310D01*
X027177Y015353D01*
X027220Y015475D02*
X027047Y015648D01*
X027003Y015648D01*
X026960Y015605D01*
X026960Y015518D01*
X027003Y015475D01*
X027003Y015353D02*
X026960Y015310D01*
X026960Y015223D01*
X027003Y015180D01*
X027177Y015180D01*
X027220Y015223D01*
X027220Y015475D02*
X027220Y015648D01*
X027219Y016080D02*
X027393Y016080D01*
X027306Y016080D02*
X027306Y016340D01*
X027219Y016253D01*
X027098Y016253D02*
X027055Y016210D01*
X026925Y016210D01*
X027055Y016210D02*
X027098Y016167D01*
X027098Y016123D01*
X027055Y016080D01*
X026925Y016080D01*
X026925Y016340D01*
X027055Y016340D01*
X027098Y016297D01*
X027098Y016253D01*
X026803Y016340D02*
X026630Y016340D01*
X026630Y016080D01*
X026630Y016210D02*
X026717Y016210D01*
X027323Y016780D02*
X027410Y016780D01*
X027453Y016823D01*
X027323Y016780D02*
X027280Y016823D01*
X027280Y016997D01*
X027323Y017040D01*
X027410Y017040D01*
X027453Y016997D01*
X027575Y016910D02*
X027748Y016910D01*
X027705Y016780D02*
X027705Y017040D01*
X027575Y016910D01*
X024148Y016697D02*
X024148Y016653D01*
X024105Y016610D01*
X024148Y016567D01*
X024148Y016523D01*
X024105Y016480D01*
X024018Y016480D01*
X023975Y016523D01*
X023853Y016523D02*
X023853Y016740D01*
X023975Y016697D02*
X024018Y016740D01*
X024105Y016740D01*
X024148Y016697D01*
X024105Y016610D02*
X024061Y016610D01*
X023853Y016523D02*
X023810Y016480D01*
X023723Y016480D01*
X023680Y016523D01*
X023680Y016740D01*
X023405Y014990D02*
X023318Y014990D01*
X023275Y014947D01*
X023153Y014990D02*
X023153Y014773D01*
X023110Y014730D01*
X023023Y014730D01*
X022980Y014773D01*
X022980Y014990D01*
X023275Y014730D02*
X023448Y014903D01*
X023448Y014947D01*
X023405Y014990D01*
X023448Y014730D02*
X023275Y014730D01*
X023268Y012640D02*
X023355Y012640D01*
X023398Y012597D01*
X023398Y012553D01*
X023355Y012510D01*
X023268Y012510D01*
X023225Y012553D01*
X023225Y012597D01*
X023268Y012640D01*
X023268Y012510D02*
X023225Y012467D01*
X023225Y012423D01*
X023268Y012380D01*
X023355Y012380D01*
X023398Y012423D01*
X023398Y012467D01*
X023355Y012510D01*
X023103Y012510D02*
X023060Y012467D01*
X022930Y012467D01*
X023017Y012467D02*
X023103Y012380D01*
X023103Y012510D02*
X023103Y012597D01*
X023060Y012640D01*
X022930Y012640D01*
X022930Y012380D01*
X019299Y019680D02*
X019213Y019680D01*
X019169Y019723D01*
X019256Y019810D02*
X019299Y019810D01*
X019343Y019767D01*
X019343Y019723D01*
X019299Y019680D01*
X019299Y019810D02*
X019343Y019853D01*
X019343Y019897D01*
X019299Y019940D01*
X019213Y019940D01*
X019169Y019897D01*
X019048Y019940D02*
X019048Y019680D01*
X018875Y019940D01*
X018875Y019680D01*
X018753Y019723D02*
X018710Y019680D01*
X018623Y019680D01*
X018580Y019723D01*
X018580Y019897D01*
X018623Y019940D01*
X018710Y019940D01*
X018753Y019897D01*
X027680Y020323D02*
X027723Y020280D01*
X027810Y020280D01*
X027853Y020323D01*
X027975Y020280D02*
X027975Y020540D01*
X028148Y020280D01*
X028148Y020540D01*
X028269Y020453D02*
X028356Y020540D01*
X028356Y020280D01*
X028269Y020280D02*
X028443Y020280D01*
X027853Y020497D02*
X027810Y020540D01*
X027723Y020540D01*
X027680Y020497D01*
X027680Y020323D01*
D12*
X015115Y018050D02*
X015115Y017890D01*
X015115Y018050D02*
X015062Y018104D01*
X014902Y018104D01*
X014902Y017890D01*
X014747Y017997D02*
X014534Y017997D01*
X014534Y018050D02*
X014587Y018104D01*
X014694Y018104D01*
X014747Y018050D01*
X014747Y017997D01*
X014694Y017890D02*
X014587Y017890D01*
X014534Y017943D01*
X014534Y018050D01*
X014379Y018050D02*
X014379Y017997D01*
X014165Y017997D01*
X014165Y018050D02*
X014219Y018104D01*
X014325Y018104D01*
X014379Y018050D01*
X014325Y017890D02*
X014219Y017890D01*
X014165Y017943D01*
X014165Y018050D01*
X014018Y018104D02*
X013965Y018104D01*
X013858Y017997D01*
X013858Y017890D02*
X013858Y018104D01*
X013704Y018157D02*
X013650Y018210D01*
X013543Y018210D01*
X013490Y018157D01*
X013490Y017943D01*
X013543Y017890D01*
X013650Y017890D01*
X013704Y017943D01*
X013704Y018050D01*
X013597Y018050D01*
X012440Y018104D02*
X012280Y018104D01*
X012227Y018050D01*
X012227Y017943D01*
X012280Y017890D01*
X012440Y017890D01*
X012440Y018210D01*
X012072Y018050D02*
X012072Y017997D01*
X011858Y017997D01*
X011858Y018050D02*
X011912Y018104D01*
X012018Y018104D01*
X012072Y018050D01*
X012018Y017890D02*
X011912Y017890D01*
X011858Y017943D01*
X011858Y018050D01*
X011704Y018050D02*
X011650Y017997D01*
X011490Y017997D01*
X011597Y017997D02*
X011704Y017890D01*
X011704Y018050D02*
X011704Y018157D01*
X011650Y018210D01*
X011490Y018210D01*
X011490Y017890D01*
X023440Y012060D02*
X023654Y012060D01*
X023547Y012060D02*
X023547Y011740D01*
X023808Y011740D02*
X024022Y012060D01*
X023808Y012060D02*
X024022Y011740D01*
X026740Y011740D02*
X026740Y012060D01*
X026900Y012060D01*
X026954Y012007D01*
X026954Y011900D01*
X026900Y011847D01*
X026740Y011847D01*
X026847Y011847D02*
X026954Y011740D01*
X027108Y011740D02*
X027322Y012060D01*
X027108Y012060D02*
X027322Y011740D01*
X026268Y008560D02*
X026108Y008400D01*
X026322Y008400D01*
X026268Y008240D02*
X026268Y008560D01*
X025954Y008507D02*
X025954Y008400D01*
X025900Y008347D01*
X025740Y008347D01*
X025847Y008347D02*
X025954Y008240D01*
X025740Y008240D02*
X025740Y008560D01*
X025900Y008560D01*
X025954Y008507D01*
X019322Y008507D02*
X019322Y008454D01*
X019268Y008400D01*
X019322Y008347D01*
X019322Y008293D01*
X019268Y008240D01*
X019162Y008240D01*
X019108Y008293D01*
X019215Y008400D02*
X019268Y008400D01*
X019322Y008507D02*
X019268Y008560D01*
X019162Y008560D01*
X019108Y008507D01*
X018954Y008507D02*
X018954Y008400D01*
X018900Y008347D01*
X018740Y008347D01*
X018847Y008347D02*
X018954Y008240D01*
X018740Y008240D02*
X018740Y008560D01*
X018900Y008560D01*
X018954Y008507D01*
X012322Y008507D02*
X012268Y008560D01*
X012162Y008560D01*
X012108Y008507D01*
X011954Y008507D02*
X011954Y008400D01*
X011900Y008347D01*
X011740Y008347D01*
X011847Y008347D02*
X011954Y008240D01*
X012108Y008240D02*
X012322Y008454D01*
X012322Y008507D01*
X012322Y008240D02*
X012108Y008240D01*
X011954Y008507D02*
X011900Y008560D01*
X011740Y008560D01*
X011740Y008240D01*
X005322Y008240D02*
X005108Y008240D01*
X005215Y008240D02*
X005215Y008560D01*
X005108Y008454D01*
X004954Y008507D02*
X004954Y008400D01*
X004900Y008347D01*
X004740Y008347D01*
X004847Y008347D02*
X004954Y008240D01*
X004740Y008240D02*
X004740Y008560D01*
X004900Y008560D01*
X004954Y008507D01*
D13*
X011550Y012600D02*
X011550Y013000D01*
X011750Y013000D01*
X011817Y012934D01*
X011817Y012800D01*
X011750Y012733D01*
X011550Y012733D01*
X011683Y012733D02*
X011817Y012600D01*
X012010Y012667D02*
X012010Y012800D01*
X012077Y012867D01*
X012211Y012867D01*
X012277Y012800D01*
X012277Y012733D01*
X012010Y012733D01*
X012010Y012667D02*
X012077Y012600D01*
X012211Y012600D01*
X012471Y012600D02*
X012671Y012600D01*
X012738Y012667D01*
X012671Y012733D01*
X012538Y012733D01*
X012471Y012800D01*
X012538Y012867D01*
X012738Y012867D01*
X012931Y012800D02*
X012998Y012867D01*
X013131Y012867D01*
X013198Y012800D01*
X013198Y012733D01*
X012931Y012733D01*
X012931Y012667D02*
X012931Y012800D01*
X012931Y012667D02*
X012998Y012600D01*
X013131Y012600D01*
X013458Y012667D02*
X013525Y012600D01*
X013458Y012667D02*
X013458Y012934D01*
X013392Y012867D02*
X013525Y012867D01*
X015450Y013000D02*
X015452Y013013D01*
X015457Y013026D01*
X015466Y013037D01*
X015477Y013044D01*
X015490Y013049D01*
X015503Y013050D01*
X015517Y013047D01*
X015529Y013041D01*
X015539Y013032D01*
X015546Y013020D01*
X015550Y013007D01*
X015550Y012993D01*
X015546Y012980D01*
X015539Y012968D01*
X015529Y012959D01*
X015517Y012953D01*
X015503Y012950D01*
X015490Y012951D01*
X015477Y012956D01*
X015466Y012963D01*
X015457Y012974D01*
X015452Y012987D01*
X015450Y013000D01*
X023700Y015100D02*
X023702Y015113D01*
X023707Y015126D01*
X023716Y015137D01*
X023727Y015144D01*
X023740Y015149D01*
X023753Y015150D01*
X023767Y015147D01*
X023779Y015141D01*
X023789Y015132D01*
X023796Y015120D01*
X023800Y015107D01*
X023800Y015093D01*
X023796Y015080D01*
X023789Y015068D01*
X023779Y015059D01*
X023767Y015053D01*
X023753Y015050D01*
X023740Y015051D01*
X023727Y015056D01*
X023716Y015063D01*
X023707Y015074D01*
X023702Y015087D01*
X023700Y015100D01*
X025600Y016650D02*
X025602Y016663D01*
X025607Y016676D01*
X025616Y016687D01*
X025627Y016694D01*
X025640Y016699D01*
X025653Y016700D01*
X025667Y016697D01*
X025679Y016691D01*
X025689Y016682D01*
X025696Y016670D01*
X025700Y016657D01*
X025700Y016643D01*
X025696Y016630D01*
X025689Y016618D01*
X025679Y016609D01*
X025667Y016603D01*
X025653Y016600D01*
X025640Y016601D01*
X025627Y016606D01*
X025616Y016613D01*
X025607Y016624D01*
X025602Y016637D01*
X025600Y016650D01*
X024600Y011250D02*
X024600Y010350D01*
X027800Y010350D02*
X027800Y011250D01*
X014650Y019350D02*
X013750Y019350D01*
X012400Y019350D02*
X011500Y019350D01*
D14*
X019675Y016343D02*
X019675Y016217D01*
X019707Y016185D01*
X019770Y016185D01*
X019802Y016217D01*
X019896Y016217D02*
X019928Y016185D01*
X020023Y016185D01*
X020023Y016312D01*
X020117Y016312D02*
X020180Y016312D01*
X020149Y016343D02*
X020149Y016217D01*
X020180Y016185D01*
X020149Y015952D02*
X020117Y015920D01*
X020117Y015857D01*
X020149Y015825D01*
X020212Y015825D01*
X020244Y015857D01*
X020244Y015920D01*
X020212Y015952D01*
X020149Y015952D01*
X020023Y015920D02*
X019991Y015952D01*
X019928Y015952D01*
X019896Y015920D01*
X019896Y016015D02*
X019896Y015825D01*
X019802Y015857D02*
X019770Y015825D01*
X019707Y015825D01*
X019675Y015857D01*
X019707Y015920D02*
X019770Y015920D01*
X019802Y015888D01*
X019802Y015857D01*
X019707Y015920D02*
X019675Y015952D01*
X019675Y015983D01*
X019707Y016015D01*
X019770Y016015D01*
X019802Y015983D01*
X020023Y015920D02*
X020023Y015825D01*
X020338Y015825D02*
X020338Y015952D01*
X020401Y015952D02*
X020433Y015952D01*
X020401Y015952D02*
X020338Y015888D01*
X020522Y015952D02*
X020586Y015952D01*
X020554Y015983D02*
X020554Y015857D01*
X020586Y015825D01*
X020890Y015920D02*
X020954Y015920D01*
X020922Y015983D02*
X020922Y015825D01*
X021038Y015857D02*
X021069Y015825D01*
X021133Y015825D01*
X021165Y015857D01*
X021165Y015920D01*
X021133Y015952D01*
X021069Y015952D01*
X021038Y015920D01*
X021038Y015857D01*
X020922Y015983D02*
X020954Y016015D01*
X020959Y016185D02*
X020927Y016217D01*
X020927Y016280D01*
X020959Y016312D01*
X021022Y016312D01*
X021054Y016280D01*
X021054Y016248D01*
X020927Y016248D01*
X020959Y016185D02*
X021022Y016185D01*
X021148Y016185D02*
X021148Y016312D01*
X021243Y016312D01*
X021275Y016280D01*
X021275Y016185D01*
X021259Y015952D02*
X021259Y015825D01*
X021259Y015888D02*
X021322Y015952D01*
X021354Y015952D01*
X021664Y015920D02*
X021664Y015857D01*
X021696Y015825D01*
X021759Y015825D01*
X021791Y015857D01*
X021791Y015920D01*
X021759Y015952D01*
X021696Y015952D01*
X021664Y015920D01*
X021885Y015952D02*
X021980Y015952D01*
X022012Y015920D01*
X022012Y015857D01*
X021980Y015825D01*
X021885Y015825D01*
X021885Y015762D02*
X021885Y015952D01*
X022106Y015920D02*
X022138Y015952D01*
X022201Y015952D01*
X022233Y015920D01*
X022233Y015888D01*
X022106Y015888D01*
X022106Y015857D02*
X022106Y015920D01*
X022106Y015857D02*
X022138Y015825D01*
X022201Y015825D01*
X022327Y015825D02*
X022327Y015952D01*
X022390Y015952D02*
X022422Y015952D01*
X022390Y015952D02*
X022327Y015888D01*
X022511Y015857D02*
X022543Y015888D01*
X022638Y015888D01*
X022638Y015920D02*
X022638Y015825D01*
X022543Y015825D01*
X022511Y015857D01*
X022543Y015952D02*
X022606Y015952D01*
X022638Y015920D01*
X022732Y015952D02*
X022795Y015952D01*
X022764Y015983D02*
X022764Y015857D01*
X022795Y015825D01*
X022879Y015825D02*
X022943Y015825D01*
X022911Y015825D02*
X022911Y015952D01*
X022879Y015952D01*
X022911Y016015D02*
X022911Y016047D01*
X023027Y015920D02*
X023058Y015952D01*
X023122Y015952D01*
X023153Y015920D01*
X023153Y015857D01*
X023122Y015825D01*
X023058Y015825D01*
X023027Y015857D01*
X023027Y015920D01*
X023248Y015952D02*
X023343Y015952D01*
X023374Y015920D01*
X023374Y015825D01*
X023248Y015825D02*
X023248Y015952D01*
X022306Y016280D02*
X022275Y016248D01*
X022180Y016248D01*
X022180Y016185D02*
X022180Y016375D01*
X022275Y016375D01*
X022306Y016343D01*
X022306Y016280D01*
X022085Y016248D02*
X022085Y016217D01*
X022054Y016185D01*
X021990Y016185D01*
X021959Y016217D01*
X021990Y016280D02*
X022054Y016280D01*
X022085Y016248D01*
X022085Y016343D02*
X022054Y016375D01*
X021990Y016375D01*
X021959Y016343D01*
X021959Y016312D01*
X021990Y016280D01*
X021864Y016217D02*
X021833Y016185D01*
X021769Y016185D01*
X021738Y016217D01*
X021738Y016343D01*
X021769Y016375D01*
X021833Y016375D01*
X021864Y016343D01*
X021654Y016375D02*
X021590Y016375D01*
X021622Y016375D02*
X021622Y016185D01*
X021590Y016185D02*
X021654Y016185D01*
X020833Y016185D02*
X020833Y016280D01*
X020801Y016312D01*
X020738Y016312D01*
X020706Y016280D01*
X020706Y016375D02*
X020706Y016185D01*
X020612Y016217D02*
X020612Y016312D01*
X020612Y016217D02*
X020580Y016185D01*
X020549Y016217D01*
X020517Y016185D01*
X020485Y016217D01*
X020485Y016312D01*
X019896Y016312D02*
X019896Y016217D01*
X019802Y016343D02*
X019770Y016375D01*
X019707Y016375D01*
X019675Y016343D01*
D15*
X001850Y001620D02*
X001570Y001620D01*
X001570Y002180D01*
X001850Y002180D01*
X001944Y002087D01*
X001944Y001713D01*
X001850Y001620D01*
X002215Y001620D02*
X002588Y001620D01*
X002859Y001620D02*
X002859Y002180D01*
X003233Y002180D01*
X003046Y001900D02*
X002859Y001900D01*
X002588Y002180D02*
X002215Y002180D01*
X002215Y001620D01*
X002215Y001900D02*
X002401Y001900D01*
X004148Y001713D02*
X004242Y001620D01*
X004428Y001620D01*
X004522Y001713D01*
X004793Y001713D02*
X004886Y001620D01*
X005073Y001620D01*
X005166Y001713D01*
X005166Y002087D01*
X005073Y002180D01*
X004886Y002180D01*
X004793Y002087D01*
X004793Y001713D01*
X004148Y001713D02*
X004148Y002087D01*
X004242Y002180D01*
X004428Y002180D01*
X004522Y002087D01*
X005437Y002180D02*
X005437Y001620D01*
X005811Y001620D02*
X005811Y002180D01*
X005437Y002180D02*
X005811Y001620D01*
X006726Y001620D02*
X006726Y002180D01*
X006726Y001900D02*
X007100Y001900D01*
X007371Y001900D02*
X007745Y001900D01*
X007745Y002180D02*
X007745Y001620D01*
X008015Y001807D02*
X008202Y001620D01*
X008389Y001807D01*
X008389Y002180D01*
X008015Y002180D02*
X008015Y001807D01*
X007371Y001620D02*
X007371Y002180D01*
X007100Y002180D02*
X007100Y001620D01*
X009305Y001713D02*
X009398Y001620D01*
X009585Y001620D01*
X009678Y001713D01*
X009678Y001807D01*
X009585Y001900D01*
X009398Y001900D01*
X009305Y001994D01*
X009305Y002087D01*
X009398Y002180D01*
X009585Y002180D01*
X009678Y002087D01*
X009949Y001994D02*
X010043Y001994D01*
X010043Y001620D01*
X010136Y001620D02*
X009949Y001620D01*
X010379Y001713D02*
X010379Y001900D01*
X010472Y001994D01*
X010752Y001994D01*
X010752Y002180D02*
X010752Y001620D01*
X010472Y001620D01*
X010379Y001713D01*
X011023Y001713D02*
X011023Y001900D01*
X011117Y001994D01*
X011304Y001994D01*
X011397Y001900D01*
X011397Y001807D01*
X011023Y001807D01*
X011023Y001713D02*
X011117Y001620D01*
X011304Y001620D01*
X012312Y001713D02*
X012312Y002087D01*
X012406Y002180D01*
X012593Y002180D01*
X012686Y002087D01*
X012957Y002180D02*
X012957Y001620D01*
X012957Y001900D02*
X013050Y001994D01*
X013237Y001994D01*
X013331Y001900D01*
X013331Y001620D01*
X013602Y001713D02*
X013695Y001807D01*
X013975Y001807D01*
X013975Y001900D02*
X013975Y001620D01*
X013695Y001620D01*
X013602Y001713D01*
X013882Y001994D02*
X013975Y001900D01*
X013882Y001994D02*
X013695Y001994D01*
X014246Y001994D02*
X014526Y001994D01*
X014620Y001900D01*
X014620Y001620D01*
X014891Y001620D02*
X014891Y001994D01*
X015171Y001994D01*
X015264Y001900D01*
X015264Y001620D01*
X015535Y001713D02*
X015535Y001900D01*
X015629Y001994D01*
X015815Y001994D01*
X015909Y001900D01*
X015909Y001807D01*
X015535Y001807D01*
X015535Y001713D02*
X015629Y001620D01*
X015815Y001620D01*
X016180Y001620D02*
X016367Y001620D01*
X016273Y001620D02*
X016273Y002180D01*
X016180Y002180D01*
X017254Y002180D02*
X017628Y002180D01*
X017441Y002180D02*
X017441Y001620D01*
X017899Y001620D02*
X018085Y001620D01*
X017992Y001620D02*
X017992Y001994D01*
X017899Y001994D01*
X017992Y002180D02*
X017992Y002274D01*
X018328Y001994D02*
X018422Y001994D01*
X018515Y001900D01*
X018609Y001994D01*
X018702Y001900D01*
X018702Y001620D01*
X018515Y001620D02*
X018515Y001900D01*
X018328Y001994D02*
X018328Y001620D01*
X018973Y001620D02*
X019160Y001620D01*
X019066Y001620D02*
X019066Y001994D01*
X018973Y001994D01*
X019066Y002180D02*
X019066Y002274D01*
X019403Y001994D02*
X019683Y001994D01*
X019776Y001900D01*
X019776Y001620D01*
X020047Y001713D02*
X020047Y001900D01*
X020141Y001994D01*
X020421Y001994D01*
X020421Y001527D01*
X020327Y001433D01*
X020234Y001433D01*
X020141Y001620D02*
X020421Y001620D01*
X020141Y001620D02*
X020047Y001713D01*
X019403Y001620D02*
X019403Y001994D01*
X021336Y001994D02*
X021336Y001620D01*
X021336Y001900D02*
X021710Y001900D01*
X021710Y001994D02*
X021710Y001620D01*
X022074Y001713D02*
X022168Y001620D01*
X022074Y001713D02*
X022074Y002087D01*
X021981Y001994D02*
X022168Y001994D01*
X022410Y001994D02*
X022597Y001994D01*
X022504Y002087D02*
X022504Y001713D01*
X022597Y001620D01*
X022840Y001713D02*
X022934Y001807D01*
X023214Y001807D01*
X023214Y001900D02*
X023214Y001620D01*
X022934Y001620D01*
X022840Y001713D01*
X023120Y001994D02*
X023214Y001900D01*
X023120Y001994D02*
X022934Y001994D01*
X023485Y001900D02*
X023485Y001713D01*
X023578Y001620D01*
X023858Y001620D01*
X024129Y001620D02*
X024129Y002180D01*
X023858Y001994D02*
X023578Y001994D01*
X023485Y001900D01*
X024129Y001807D02*
X024409Y001994D01*
X024129Y001807D02*
X024409Y001620D01*
X025311Y001620D02*
X025311Y002180D01*
X025591Y002180D01*
X025685Y002087D01*
X025685Y001713D01*
X025591Y001620D01*
X025311Y001620D01*
X025955Y001713D02*
X025955Y001900D01*
X026049Y001994D01*
X026236Y001994D01*
X026329Y001900D01*
X026329Y001807D01*
X025955Y001807D01*
X025955Y001713D02*
X026049Y001620D01*
X026236Y001620D01*
X026600Y001620D02*
X026600Y001994D01*
X026693Y001994D01*
X026787Y001900D01*
X026880Y001994D01*
X026974Y001900D01*
X026974Y001620D01*
X026787Y001620D02*
X026787Y001900D01*
X027245Y001900D02*
X027245Y001713D01*
X027338Y001620D01*
X027525Y001620D01*
X027618Y001713D01*
X027618Y001900D01*
X027525Y001994D01*
X027338Y001994D01*
X027245Y001900D01*
X025000Y004120D02*
X024813Y004120D01*
X024720Y004213D01*
X024907Y004400D02*
X025000Y004400D01*
X025094Y004307D01*
X025094Y004213D01*
X025000Y004120D01*
X025000Y004400D02*
X025094Y004494D01*
X025094Y004587D01*
X025000Y004680D01*
X024813Y004680D01*
X024720Y004587D01*
X021710Y001994D02*
X021523Y002180D01*
X021336Y001994D01*
X018094Y004120D02*
X017720Y004120D01*
X018094Y004494D01*
X018094Y004587D01*
X018000Y004680D01*
X017813Y004680D01*
X017720Y004587D01*
X014246Y001994D02*
X014246Y001620D01*
X012686Y001713D02*
X012593Y001620D01*
X012406Y001620D01*
X012312Y001713D01*
X010043Y002180D02*
X010043Y002274D01*
X010720Y004120D02*
X011094Y004120D01*
X010907Y004120D02*
X010907Y004680D01*
X010720Y004494D01*
X004044Y004587D02*
X004044Y004213D01*
X003950Y004120D01*
X003763Y004120D01*
X003670Y004213D01*
X004044Y004587D01*
X003950Y004680D01*
X003763Y004680D01*
X003670Y004587D01*
X003670Y004213D01*
M02*
