G75*
%MOIN*%
%OFA0B0*%
%FSLAX24Y24*%
%IPPOS*%
%LPD*%
%AMOC8*
5,1,8,0,0,1.08239X$1,22.5*
%
%ADD10R,0.0248X0.0005*%
%ADD11R,0.0454X0.0005*%
%ADD12R,0.0589X0.0005*%
%ADD13R,0.0702X0.0005*%
%ADD14R,0.0799X0.0005*%
%ADD15R,0.0875X0.0005*%
%ADD16R,0.0950X0.0005*%
%ADD17R,0.1026X0.0005*%
%ADD18R,0.1091X0.0005*%
%ADD19R,0.1156X0.0005*%
%ADD20R,0.1210X0.0005*%
%ADD21R,0.1269X0.0005*%
%ADD22R,0.1318X0.0005*%
%ADD23R,0.1372X0.0005*%
%ADD24R,0.1420X0.0005*%
%ADD25R,0.1469X0.0005*%
%ADD26R,0.1512X0.0005*%
%ADD27R,0.1555X0.0005*%
%ADD28R,0.1598X0.0005*%
%ADD29R,0.1642X0.0005*%
%ADD30R,0.1685X0.0005*%
%ADD31R,0.1723X0.0005*%
%ADD32R,0.1760X0.0005*%
%ADD33R,0.1804X0.0005*%
%ADD34R,0.1836X0.0005*%
%ADD35R,0.1874X0.0005*%
%ADD36R,0.1912X0.0005*%
%ADD37R,0.1944X0.0005*%
%ADD38R,0.1976X0.0005*%
%ADD39R,0.2009X0.0005*%
%ADD40R,0.2041X0.0005*%
%ADD41R,0.2074X0.0005*%
%ADD42R,0.2106X0.0005*%
%ADD43R,0.2138X0.0005*%
%ADD44R,0.2171X0.0005*%
%ADD45R,0.2203X0.0005*%
%ADD46R,0.2236X0.0005*%
%ADD47R,0.2257X0.0005*%
%ADD48R,0.2290X0.0005*%
%ADD49R,0.2317X0.0005*%
%ADD50R,0.2344X0.0005*%
%ADD51R,0.2376X0.0005*%
%ADD52R,0.2398X0.0005*%
%ADD53R,0.2430X0.0005*%
%ADD54R,0.2452X0.0005*%
%ADD55R,0.2479X0.0005*%
%ADD56R,0.2506X0.0005*%
%ADD57R,0.2527X0.0005*%
%ADD58R,0.2560X0.0005*%
%ADD59R,0.1134X0.0005*%
%ADD60R,0.0243X0.0005*%
%ADD61R,0.1096X0.0005*%
%ADD62R,0.1069X0.0005*%
%ADD63R,0.0238X0.0005*%
%ADD64R,0.1031X0.0005*%
%ADD65R,0.1021X0.0005*%
%ADD66R,0.0238X0.0005*%
%ADD67R,0.0983X0.0005*%
%ADD68R,0.0988X0.0005*%
%ADD69R,0.0961X0.0005*%
%ADD70R,0.0918X0.0005*%
%ADD71R,0.0929X0.0005*%
%ADD72R,0.0891X0.0005*%
%ADD73R,0.0907X0.0005*%
%ADD74R,0.0869X0.0005*%
%ADD75R,0.0886X0.0005*%
%ADD76R,0.0848X0.0005*%
%ADD77R,0.0832X0.0005*%
%ADD78R,0.0853X0.0005*%
%ADD79R,0.0815X0.0005*%
%ADD80R,0.0837X0.0005*%
%ADD81R,0.0794X0.0005*%
%ADD82R,0.0821X0.0005*%
%ADD83R,0.0783X0.0005*%
%ADD84R,0.0805X0.0005*%
%ADD85R,0.0767X0.0005*%
%ADD86R,0.0756X0.0005*%
%ADD87R,0.0740X0.0005*%
%ADD88R,0.0772X0.0005*%
%ADD89R,0.0729X0.0005*%
%ADD90R,0.0718X0.0005*%
%ADD91R,0.0751X0.0005*%
%ADD92R,0.0707X0.0005*%
%ADD93R,0.0740X0.0005*%
%ADD94R,0.0702X0.0005*%
%ADD95R,0.0691X0.0005*%
%ADD96R,0.0680X0.0005*%
%ADD97R,0.0670X0.0005*%
%ADD98R,0.0702X0.0005*%
%ADD99R,0.0659X0.0005*%
%ADD100R,0.0653X0.0005*%
%ADD101R,0.0686X0.0005*%
%ADD102R,0.0648X0.0005*%
%ADD103R,0.0643X0.0005*%
%ADD104R,0.0670X0.0005*%
%ADD105R,0.0637X0.0005*%
%ADD106R,0.0664X0.0005*%
%ADD107R,0.0626X0.0005*%
%ADD108R,0.0621X0.0005*%
%ADD109R,0.0653X0.0005*%
%ADD110R,0.0616X0.0005*%
%ADD111R,0.0610X0.0005*%
%ADD112R,0.0637X0.0005*%
%ADD113R,0.0599X0.0005*%
%ADD114R,0.0632X0.0005*%
%ADD115R,0.0594X0.0005*%
%ADD116R,0.0621X0.0005*%
%ADD117R,0.0589X0.0005*%
%ADD118R,0.0616X0.0005*%
%ADD119R,0.0578X0.0005*%
%ADD120R,0.0572X0.0005*%
%ADD121R,0.0605X0.0005*%
%ADD122R,0.0567X0.0005*%
%ADD123R,0.0605X0.0005*%
%ADD124R,0.0562X0.0005*%
%ADD125R,0.0551X0.0005*%
%ADD126R,0.0578X0.0005*%
%ADD127R,0.0540X0.0005*%
%ADD128R,0.0540X0.0005*%
%ADD129R,0.0535X0.0005*%
%ADD130R,0.0529X0.0005*%
%ADD131R,0.0524X0.0005*%
%ADD132R,0.0556X0.0005*%
%ADD133R,0.0518X0.0005*%
%ADD134R,0.0518X0.0005*%
%ADD135R,0.0545X0.0005*%
%ADD136R,0.0508X0.0005*%
%ADD137R,0.0545X0.0005*%
%ADD138R,0.0508X0.0005*%
%ADD139R,0.0502X0.0005*%
%ADD140R,0.0497X0.0005*%
%ADD141R,0.0491X0.0005*%
%ADD142R,0.0529X0.0005*%
%ADD143R,0.0524X0.0005*%
%ADD144R,0.0486X0.0005*%
%ADD145R,0.0486X0.0005*%
%ADD146R,0.0481X0.0005*%
%ADD147R,0.0513X0.0005*%
%ADD148R,0.0481X0.0005*%
%ADD149R,0.0475X0.0005*%
%ADD150R,0.0470X0.0005*%
%ADD151R,0.0508X0.0005*%
%ADD152R,0.0464X0.0005*%
%ADD153R,0.0502X0.0005*%
%ADD154R,0.0464X0.0005*%
%ADD155R,0.0497X0.0005*%
%ADD156R,0.0459X0.0005*%
%ADD157R,0.0459X0.0005*%
%ADD158R,0.0448X0.0005*%
%ADD159R,0.0481X0.0005*%
%ADD160R,0.0443X0.0005*%
%ADD161R,0.0443X0.0005*%
%ADD162R,0.0437X0.0005*%
%ADD163R,0.0432X0.0005*%
%ADD164R,0.0432X0.0005*%
%ADD165R,0.0427X0.0005*%
%ADD166R,0.0427X0.0005*%
%ADD167R,0.0421X0.0005*%
%ADD168R,0.0416X0.0005*%
%ADD169R,0.0421X0.0005*%
%ADD170R,0.0448X0.0005*%
%ADD171R,0.0410X0.0005*%
%ADD172R,0.0410X0.0005*%
%ADD173R,0.0443X0.0005*%
%ADD174R,0.0405X0.0005*%
%ADD175R,0.0400X0.0005*%
%ADD176R,0.0437X0.0005*%
%ADD177R,0.0400X0.0005*%
%ADD178R,0.0394X0.0005*%
%ADD179R,0.0389X0.0005*%
%ADD180R,0.0389X0.0005*%
%ADD181R,0.0383X0.0005*%
%ADD182R,0.0383X0.0005*%
%ADD183R,0.0378X0.0005*%
%ADD184R,0.0416X0.0005*%
%ADD185R,0.0378X0.0005*%
%ADD186R,0.0373X0.0005*%
%ADD187R,0.0373X0.0005*%
%ADD188R,0.0367X0.0005*%
%ADD189R,0.0405X0.0005*%
%ADD190R,0.0367X0.0005*%
%ADD191R,0.0362X0.0005*%
%ADD192R,0.0362X0.0005*%
%ADD193R,0.0362X0.0005*%
%ADD194R,0.0356X0.0005*%
%ADD195R,0.0351X0.0005*%
%ADD196R,0.0351X0.0005*%
%ADD197R,0.0346X0.0005*%
%ADD198R,0.0383X0.0005*%
%ADD199R,0.0346X0.0005*%
%ADD200R,0.0340X0.0005*%
%ADD201R,0.0340X0.0005*%
%ADD202R,0.0335X0.0005*%
%ADD203R,0.3699X0.0005*%
%ADD204R,0.0335X0.0005*%
%ADD205R,0.0329X0.0005*%
%ADD206R,0.3699X0.0005*%
%ADD207R,0.0329X0.0005*%
%ADD208R,0.0324X0.0005*%
%ADD209R,0.0324X0.0005*%
%ADD210R,0.0324X0.0005*%
%ADD211R,0.0940X0.0005*%
%ADD212R,0.0319X0.0005*%
%ADD213R,0.0356X0.0005*%
%ADD214R,0.0356X0.0005*%
%ADD215R,0.0950X0.0005*%
%ADD216R,0.0319X0.0005*%
%ADD217R,0.0956X0.0005*%
%ADD218R,0.0961X0.0005*%
%ADD219R,0.0967X0.0005*%
%ADD220R,0.0313X0.0005*%
%ADD221R,0.0972X0.0005*%
%ADD222R,0.0977X0.0005*%
%ADD223R,0.0994X0.0005*%
%ADD224R,0.0999X0.0005*%
%ADD225R,0.0313X0.0005*%
%ADD226R,0.1004X0.0005*%
%ADD227R,0.1010X0.0005*%
%ADD228R,0.1015X0.0005*%
%ADD229R,0.1021X0.0005*%
%ADD230R,0.1031X0.0005*%
%ADD231R,0.0308X0.0005*%
%ADD232R,0.1037X0.0005*%
%ADD233R,0.0346X0.0005*%
%ADD234R,0.1042X0.0005*%
%ADD235R,0.1048X0.0005*%
%ADD236R,0.0346X0.0005*%
%ADD237R,0.1053X0.0005*%
%ADD238R,0.1058X0.0005*%
%ADD239R,0.1064X0.0005*%
%ADD240R,0.0308X0.0005*%
%ADD241R,0.1069X0.0005*%
%ADD242R,0.1075X0.0005*%
%ADD243R,0.1080X0.0005*%
%ADD244R,0.1085X0.0005*%
%ADD245R,0.0302X0.0005*%
%ADD246R,0.1091X0.0005*%
%ADD247R,0.0302X0.0005*%
%ADD248R,0.1102X0.0005*%
%ADD249R,0.1107X0.0005*%
%ADD250R,0.1112X0.0005*%
%ADD251R,0.1118X0.0005*%
%ADD252R,0.0297X0.0005*%
%ADD253R,0.1123X0.0005*%
%ADD254R,0.1129X0.0005*%
%ADD255R,0.0335X0.0005*%
%ADD256R,0.1134X0.0005*%
%ADD257R,0.0297X0.0005*%
%ADD258R,0.1139X0.0005*%
%ADD259R,0.0297X0.0005*%
%ADD260R,0.1145X0.0005*%
%ADD261R,0.1150X0.0005*%
%ADD262R,0.1156X0.0005*%
%ADD263R,0.1161X0.0005*%
%ADD264R,0.1166X0.0005*%
%ADD265R,0.1172X0.0005*%
%ADD266R,0.1177X0.0005*%
%ADD267R,0.0297X0.0005*%
%ADD268R,0.1183X0.0005*%
%ADD269R,0.0292X0.0005*%
%ADD270R,0.1188X0.0005*%
%ADD271R,0.1193X0.0005*%
%ADD272R,0.1199X0.0005*%
%ADD273R,0.1204X0.0005*%
%ADD274R,0.1215X0.0005*%
%ADD275R,0.1220X0.0005*%
%ADD276R,0.0292X0.0005*%
%ADD277R,0.1226X0.0005*%
%ADD278R,0.1231X0.0005*%
%ADD279R,0.1237X0.0005*%
%ADD280R,0.1242X0.0005*%
%ADD281R,0.1247X0.0005*%
%ADD282R,0.1253X0.0005*%
%ADD283R,0.0286X0.0005*%
%ADD284R,0.1258X0.0005*%
%ADD285R,0.0054X0.0005*%
%ADD286R,0.1264X0.0005*%
%ADD287R,0.1264X0.0005*%
%ADD288R,0.0443X0.0005*%
%ADD289R,0.0286X0.0005*%
%ADD290R,0.1274X0.0005*%
%ADD291R,0.1285X0.0005*%
%ADD292R,0.1296X0.0005*%
%ADD293R,0.0286X0.0005*%
%ADD294R,0.1307X0.0005*%
%ADD295R,0.1307X0.0005*%
%ADD296R,0.0394X0.0005*%
%ADD297R,0.0286X0.0005*%
%ADD298R,0.1318X0.0005*%
%ADD299R,0.1328X0.0005*%
%ADD300R,0.0281X0.0005*%
%ADD301R,0.1339X0.0005*%
%ADD302R,0.1350X0.0005*%
%ADD303R,0.0324X0.0005*%
%ADD304R,0.1350X0.0005*%
%ADD305R,0.0281X0.0005*%
%ADD306R,0.1361X0.0005*%
%ADD307R,0.1382X0.0005*%
%ADD308R,0.1393X0.0005*%
%ADD309R,0.1404X0.0005*%
%ADD310R,0.0275X0.0005*%
%ADD311R,0.1404X0.0005*%
%ADD312R,0.1415X0.0005*%
%ADD313R,0.0275X0.0005*%
%ADD314R,0.0275X0.0005*%
%ADD315R,0.0270X0.0005*%
%ADD316R,0.1426X0.0005*%
%ADD317R,0.1436X0.0005*%
%ADD318R,0.1447X0.0005*%
%ADD319R,0.1447X0.0005*%
%ADD320R,0.1458X0.0005*%
%ADD321R,0.1480X0.0005*%
%ADD322R,0.1490X0.0005*%
%ADD323R,0.1490X0.0005*%
%ADD324R,0.1501X0.0005*%
%ADD325R,0.0178X0.0005*%
%ADD326R,0.0173X0.0005*%
%ADD327R,0.1512X0.0005*%
%ADD328R,0.0167X0.0005*%
%ADD329R,0.0162X0.0005*%
%ADD330R,0.0157X0.0005*%
%ADD331R,0.0184X0.0005*%
%ADD332R,0.0146X0.0005*%
%ADD333R,0.0308X0.0005*%
%ADD334R,0.0756X0.0005*%
%ADD335R,0.0751X0.0005*%
%ADD336R,0.0184X0.0005*%
%ADD337R,0.0135X0.0005*%
%ADD338R,0.0270X0.0005*%
%ADD339R,0.0751X0.0005*%
%ADD340R,0.0135X0.0005*%
%ADD341R,0.0124X0.0005*%
%ADD342R,0.0119X0.0005*%
%ADD343R,0.0113X0.0005*%
%ADD344R,0.0108X0.0005*%
%ADD345R,0.0103X0.0005*%
%ADD346R,0.0097X0.0005*%
%ADD347R,0.0086X0.0005*%
%ADD348R,0.0189X0.0005*%
%ADD349R,0.0086X0.0005*%
%ADD350R,0.0189X0.0005*%
%ADD351R,0.0076X0.0005*%
%ADD352R,0.0070X0.0005*%
%ADD353R,0.0065X0.0005*%
%ADD354R,0.0059X0.0005*%
%ADD355R,0.0265X0.0005*%
%ADD356R,0.0049X0.0005*%
%ADD357R,0.0745X0.0005*%
%ADD358R,0.0189X0.0005*%
%ADD359R,0.0038X0.0005*%
%ADD360R,0.0265X0.0005*%
%ADD361R,0.0038X0.0005*%
%ADD362R,0.0745X0.0005*%
%ADD363R,0.0027X0.0005*%
%ADD364R,0.0194X0.0005*%
%ADD365R,0.0016X0.0005*%
%ADD366R,0.0011X0.0005*%
%ADD367R,0.0005X0.0005*%
%ADD368R,0.0751X0.0005*%
%ADD369R,0.0259X0.0005*%
%ADD370R,0.0194X0.0005*%
%ADD371R,0.0259X0.0005*%
%ADD372R,0.0200X0.0005*%
%ADD373R,0.0200X0.0005*%
%ADD374R,0.0151X0.0005*%
%ADD375R,0.0130X0.0005*%
%ADD376R,0.0097X0.0005*%
%ADD377R,0.0259X0.0005*%
%ADD378R,0.0032X0.0005*%
%ADD379R,0.0254X0.0005*%
%ADD380R,0.0259X0.0005*%
%ADD381R,0.0740X0.0005*%
%ADD382R,0.0254X0.0005*%
%ADD383R,0.0740X0.0005*%
%ADD384R,0.0248X0.0005*%
%ADD385R,0.0248X0.0005*%
%ADD386R,0.0162X0.0005*%
%ADD387R,0.0151X0.0005*%
%ADD388R,0.0248X0.0005*%
%ADD389R,0.0140X0.0005*%
%ADD390R,0.0103X0.0005*%
%ADD391R,0.0092X0.0005*%
%ADD392R,0.0081X0.0005*%
%ADD393R,0.0054X0.0005*%
%ADD394R,0.0043X0.0005*%
%ADD395R,0.0022X0.0005*%
%ADD396R,0.0308X0.0005*%
%ADD397R,0.0243X0.0005*%
%ADD398R,0.0373X0.0005*%
%ADD399R,0.0130X0.0005*%
%ADD400R,0.0394X0.0005*%
%ADD401R,0.0065X0.0005*%
%ADD402R,0.0394X0.0005*%
%ADD403R,0.0022X0.0005*%
%ADD404R,0.0238X0.0005*%
%ADD405R,0.0470X0.0005*%
%ADD406R,0.0470X0.0005*%
%ADD407R,0.0238X0.0005*%
%ADD408R,0.0491X0.0005*%
%ADD409R,0.0491X0.0005*%
%ADD410R,0.0513X0.0005*%
%ADD411R,0.0529X0.0005*%
%ADD412R,0.0535X0.0005*%
%ADD413R,0.0551X0.0005*%
%ADD414R,0.0556X0.0005*%
%ADD415R,0.0567X0.0005*%
%ADD416R,0.0578X0.0005*%
%ADD417R,0.0572X0.0005*%
%ADD418R,0.0583X0.0005*%
%ADD419R,0.0583X0.0005*%
%ADD420R,0.0594X0.0005*%
%ADD421R,0.0232X0.0005*%
%ADD422R,0.0594X0.0005*%
%ADD423R,0.0605X0.0005*%
%ADD424R,0.0232X0.0005*%
%ADD425R,0.0275X0.0005*%
%ADD426R,0.0616X0.0005*%
%ADD427R,0.0626X0.0005*%
%ADD428R,0.0626X0.0005*%
%ADD429R,0.0643X0.0005*%
%ADD430R,0.0648X0.0005*%
%ADD431R,0.0664X0.0005*%
%ADD432R,0.0664X0.0005*%
%ADD433R,0.0675X0.0005*%
%ADD434R,0.0686X0.0005*%
%ADD435R,0.0691X0.0005*%
%ADD436R,0.0697X0.0005*%
%ADD437R,0.0713X0.0005*%
%ADD438R,0.0707X0.0005*%
%ADD439R,0.0718X0.0005*%
%ADD440R,0.0724X0.0005*%
%ADD441R,0.0734X0.0005*%
%ADD442R,0.0729X0.0005*%
%ADD443R,0.0734X0.0005*%
%ADD444R,0.0140X0.0005*%
%ADD445R,0.0729X0.0005*%
%ADD446R,0.0124X0.0005*%
%ADD447R,0.0151X0.0005*%
%ADD448R,0.0761X0.0005*%
%ADD449R,0.4455X0.0005*%
%ADD450R,0.4466X0.0005*%
%ADD451R,0.4477X0.0005*%
%ADD452R,0.4477X0.0005*%
%ADD453R,0.4487X0.0005*%
%ADD454R,0.4498X0.0005*%
%ADD455R,0.4509X0.0005*%
%ADD456R,0.4520X0.0005*%
%ADD457R,0.4520X0.0005*%
%ADD458R,0.4531X0.0005*%
%ADD459R,0.4541X0.0005*%
%ADD460R,0.0410X0.0005*%
%ADD461R,0.0421X0.0005*%
%ADD462R,0.0383X0.0005*%
%ADD463R,0.0454X0.0005*%
%ADD464R,0.0475X0.0005*%
%ADD465R,0.0675X0.0005*%
%ADD466R,0.0772X0.0005*%
%ADD467R,0.0778X0.0005*%
%ADD468R,0.0810X0.0005*%
%ADD469R,0.0826X0.0005*%
%ADD470R,0.0853X0.0005*%
%ADD471R,0.0815X0.0005*%
%ADD472R,0.0918X0.0005*%
%ADD473R,0.0886X0.0005*%
%ADD474R,0.2398X0.0005*%
%ADD475R,0.2376X0.0005*%
%ADD476R,0.2138X0.0005*%
%ADD477R,0.2106X0.0005*%
%ADD478R,0.1874X0.0005*%
%ADD479R,0.1836X0.0005*%
%ADD480R,0.1728X0.0005*%
%ADD481R,0.1555X0.0005*%
%ADD482R,0.1512X0.0005*%
%ADD483R,0.1426X0.0005*%
%ADD484R,0.1026X0.0005*%
%ADD485R,0.0880X0.0005*%
%ADD486C,0.0480*%
%ADD487C,0.0600*%
%ADD488C,0.0039*%
%ADD489C,0.0040*%
%ADD490C,0.0041*%
%ADD491C,0.0040*%
%ADD492OC8,0.0480*%
%ADD493OC8,0.0600*%
%ADD494R,0.0480X0.0480*%
%ADD495C,0.0480*%
%ADD496C,0.0041*%
%ADD497C,0.0100*%
%ADD498C,0.0270*%
D10*
X003862Y009884D03*
X006875Y012314D03*
X006886Y012358D03*
X006919Y012493D03*
X006838Y014069D03*
D11*
X004861Y012687D03*
X004861Y012682D03*
X002825Y012698D03*
X002825Y012703D03*
X001999Y010646D03*
X002005Y010640D03*
X002021Y010630D03*
X003862Y009890D03*
X005590Y010538D03*
X005606Y010549D03*
X002129Y015700D03*
X002134Y015706D03*
X002118Y015695D03*
X003862Y016354D03*
X005477Y015787D03*
D12*
X005123Y015965D03*
X002542Y015932D03*
X002758Y012979D03*
X002758Y012973D03*
X004929Y012962D03*
X004929Y012957D03*
X005210Y010327D03*
X003865Y009895D03*
X002456Y010365D03*
X002445Y010370D03*
X002434Y010376D03*
D13*
X003862Y009901D03*
X004985Y013184D03*
X004985Y013189D03*
X002701Y013200D03*
X002701Y013205D03*
X003862Y016343D03*
D14*
X003862Y016337D03*
X003862Y009906D03*
D15*
X003862Y009911D03*
D16*
X003862Y009917D03*
X004715Y010165D03*
X003846Y011137D03*
X003862Y016327D03*
D17*
X003846Y011218D03*
X003862Y009922D03*
D18*
X003862Y009928D03*
D19*
X003862Y009933D03*
X003862Y016310D03*
D20*
X003862Y016305D03*
X003846Y011402D03*
X003862Y009938D03*
D21*
X003865Y009944D03*
X003865Y016300D03*
D22*
X003862Y016294D03*
X003862Y009949D03*
D23*
X003862Y009955D03*
X003846Y011564D03*
X003846Y011569D03*
X003862Y016289D03*
D24*
X003865Y009960D03*
D25*
X003862Y009965D03*
X003846Y011661D03*
X003846Y011666D03*
X003862Y016278D03*
D26*
X003862Y009971D03*
D27*
X003862Y009976D03*
D28*
X003862Y009982D03*
X003862Y016262D03*
D29*
X003862Y016256D03*
X003862Y009987D03*
D30*
X003862Y009992D03*
X003862Y016251D03*
D31*
X003865Y009998D03*
D32*
X003862Y010003D03*
X003862Y016240D03*
D33*
X003862Y016235D03*
X003862Y010009D03*
D34*
X003862Y010014D03*
D35*
X003865Y010019D03*
D36*
X003862Y010025D03*
X003862Y016219D03*
D37*
X003862Y016213D03*
X003862Y010030D03*
D38*
X003862Y010036D03*
X003862Y016208D03*
D39*
X003862Y016202D03*
X003862Y010041D03*
D40*
X003862Y010046D03*
X003862Y016197D03*
D41*
X003862Y016192D03*
X003862Y010052D03*
D42*
X003862Y010057D03*
D43*
X003862Y010063D03*
D44*
X003862Y010068D03*
X003862Y016175D03*
D45*
X003862Y016170D03*
X003862Y010073D03*
D46*
X003862Y010079D03*
X003862Y016165D03*
D47*
X003862Y016159D03*
X003862Y010084D03*
D48*
X003862Y010090D03*
X003862Y016154D03*
D49*
X003865Y016148D03*
X003865Y010095D03*
D50*
X003862Y010100D03*
X003862Y016143D03*
D51*
X003862Y010106D03*
D52*
X003862Y010111D03*
D53*
X003862Y010117D03*
X003862Y016127D03*
D54*
X003862Y016121D03*
X003862Y010122D03*
D55*
X003865Y010127D03*
D56*
X003862Y010133D03*
D57*
X003862Y010138D03*
D58*
X003862Y010144D03*
D59*
X003139Y010149D03*
D60*
X003838Y010149D03*
X006884Y012341D03*
X006889Y012363D03*
X006894Y012385D03*
X006905Y012428D03*
X006905Y012433D03*
X006911Y012455D03*
X006911Y012460D03*
X006916Y012471D03*
X006916Y012476D03*
X006916Y012482D03*
X006916Y012487D03*
X006921Y012498D03*
X006921Y012503D03*
X006921Y012509D03*
X006921Y012514D03*
X006927Y012520D03*
X006927Y012525D03*
X006927Y012530D03*
X006927Y012536D03*
X006932Y012547D03*
X006932Y012552D03*
X006932Y012557D03*
X006932Y012563D03*
X006932Y012568D03*
X006932Y012574D03*
X006938Y012579D03*
X006938Y012590D03*
X006938Y012595D03*
X006938Y012601D03*
X006943Y012611D03*
X006943Y012617D03*
X006943Y012622D03*
X006943Y012633D03*
X006948Y012649D03*
X006948Y012655D03*
X006948Y012660D03*
X006948Y012665D03*
X006954Y012687D03*
X006954Y012692D03*
X006954Y012698D03*
X006954Y012703D03*
X006959Y012725D03*
X006959Y012730D03*
X006959Y012736D03*
X006959Y012741D03*
X006965Y012773D03*
X006965Y012779D03*
X006965Y012784D03*
X006970Y012827D03*
X006970Y012833D03*
X006943Y013632D03*
X006932Y013691D03*
X006932Y013697D03*
X006927Y013724D03*
X006921Y013745D03*
X006921Y013751D03*
X006916Y013772D03*
X006916Y013778D03*
X006911Y013805D03*
X006905Y013821D03*
X006905Y013826D03*
X006905Y013832D03*
X006900Y013848D03*
X006900Y013853D03*
X006894Y013864D03*
X006894Y013870D03*
X006894Y013875D03*
X006889Y013886D03*
X006889Y013897D03*
X006884Y013907D03*
X006884Y013913D03*
X006884Y013918D03*
X006878Y013929D03*
X006878Y013940D03*
X006873Y013945D03*
X006873Y013951D03*
X006873Y013956D03*
X006873Y013961D03*
X006867Y013967D03*
X006867Y013972D03*
X006862Y013988D03*
X006862Y013994D03*
X006862Y013999D03*
X006857Y014005D03*
X006857Y014010D03*
X006857Y014015D03*
X006851Y014032D03*
X006846Y014042D03*
X006846Y014048D03*
X006840Y014059D03*
X006840Y014064D03*
X006835Y014080D03*
X006830Y014096D03*
X006819Y014129D03*
X006813Y014145D03*
D61*
X003849Y011288D03*
X004605Y010149D03*
D62*
X003095Y010154D03*
D63*
X003841Y010154D03*
X003841Y010198D03*
X003841Y010246D03*
X003841Y010289D03*
X003841Y010333D03*
X003841Y010381D03*
X003841Y010424D03*
X003841Y010468D03*
X003841Y010516D03*
X003841Y010559D03*
X003841Y010603D03*
X003841Y010651D03*
X003841Y010694D03*
X003841Y010738D03*
X003841Y010786D03*
X003841Y010829D03*
X003841Y010873D03*
X003841Y010921D03*
X003841Y010964D03*
X003841Y011008D03*
X006951Y012676D03*
X006951Y013573D03*
X006946Y013621D03*
D64*
X004648Y010154D03*
D65*
X003060Y010160D03*
D66*
X003841Y010160D03*
X003841Y010165D03*
X003841Y010171D03*
X003841Y010176D03*
X003841Y010181D03*
X003841Y010187D03*
X003841Y010192D03*
X003841Y010203D03*
X003841Y010208D03*
X003841Y010214D03*
X003841Y010219D03*
X003841Y010225D03*
X003841Y010230D03*
X003841Y010235D03*
X003841Y010241D03*
X003841Y010252D03*
X003841Y010257D03*
X003841Y010262D03*
X003841Y010268D03*
X003841Y010273D03*
X003841Y010279D03*
X003841Y010284D03*
X003841Y010295D03*
X003841Y010300D03*
X003841Y010306D03*
X003841Y010311D03*
X003841Y010316D03*
X003841Y010322D03*
X003841Y010327D03*
X003841Y010338D03*
X003841Y010343D03*
X003841Y010349D03*
X003841Y010354D03*
X003841Y010360D03*
X003841Y010365D03*
X003841Y010370D03*
X003841Y010376D03*
X003841Y010387D03*
X003841Y010392D03*
X003841Y010397D03*
X003841Y010403D03*
X003841Y010408D03*
X003841Y010414D03*
X003841Y010419D03*
X003841Y010430D03*
X003841Y010435D03*
X003841Y010441D03*
X003841Y010446D03*
X003841Y010451D03*
X003841Y010457D03*
X003841Y010462D03*
X003841Y010473D03*
X003841Y010478D03*
X003841Y010484D03*
X003841Y010489D03*
X003841Y010495D03*
X003841Y010500D03*
X003841Y010505D03*
X003841Y010511D03*
X003841Y010522D03*
X003841Y010527D03*
X003841Y010532D03*
X003841Y010538D03*
X003841Y010543D03*
X003841Y010549D03*
X003841Y010554D03*
X003841Y010565D03*
X003841Y010570D03*
X003841Y010576D03*
X003841Y010581D03*
X003841Y010586D03*
X003841Y010592D03*
X003841Y010597D03*
X003841Y010608D03*
X003841Y010613D03*
X003841Y010619D03*
X003841Y010624D03*
X003841Y010630D03*
X003841Y010635D03*
X003841Y010640D03*
X003841Y010646D03*
X003841Y010657D03*
X003841Y010662D03*
X003841Y010667D03*
X003841Y010673D03*
X003841Y010678D03*
X003841Y010684D03*
X003841Y010689D03*
X003841Y010700D03*
X003841Y010705D03*
X003841Y010711D03*
X003841Y010716D03*
X003841Y010721D03*
X003841Y010727D03*
X003841Y010732D03*
X003841Y010743D03*
X003841Y010748D03*
X003841Y010754D03*
X003841Y010759D03*
X003841Y010765D03*
X003841Y010770D03*
X003841Y010775D03*
X003841Y010781D03*
X003841Y010792D03*
X003841Y010797D03*
X003841Y010802D03*
X003841Y010808D03*
X003841Y010813D03*
X003841Y010819D03*
X003841Y010824D03*
X003841Y010835D03*
X003841Y010840D03*
X003841Y010846D03*
X003841Y010851D03*
X003841Y010856D03*
X003841Y010862D03*
X003841Y010867D03*
X003841Y010878D03*
X003841Y010883D03*
X003841Y010889D03*
X003841Y010894D03*
X003841Y010900D03*
X003841Y010905D03*
X003841Y010910D03*
X003841Y010916D03*
X003841Y010927D03*
X003841Y010932D03*
X003841Y010937D03*
X003841Y010943D03*
X003841Y010948D03*
X003841Y010954D03*
X003841Y010959D03*
X003841Y010970D03*
X003841Y010975D03*
X003841Y010981D03*
X003841Y010986D03*
X003841Y010991D03*
X003841Y010997D03*
X003841Y011002D03*
X003841Y011013D03*
X003841Y011018D03*
X006946Y012638D03*
X006946Y012644D03*
X006951Y012671D03*
X006951Y012682D03*
X006951Y013562D03*
X006951Y013567D03*
X006951Y013578D03*
X006951Y013583D03*
X006951Y013589D03*
X006951Y013594D03*
X006946Y013600D03*
X006946Y013605D03*
X006946Y013610D03*
X006946Y013616D03*
X006946Y013627D03*
X006908Y013810D03*
X006908Y013816D03*
X006903Y013837D03*
X006897Y013859D03*
D67*
X003846Y011175D03*
X004683Y010160D03*
D68*
X003028Y010165D03*
X003849Y011180D03*
X003093Y016105D03*
D69*
X003004Y010171D03*
D70*
X004743Y010171D03*
X004683Y016100D03*
D71*
X003846Y011121D03*
X003846Y011116D03*
X002977Y010176D03*
D72*
X004767Y010176D03*
X003006Y016089D03*
D73*
X002955Y010181D03*
D74*
X002909Y010192D03*
X004788Y010181D03*
X002979Y016084D03*
D75*
X002934Y010187D03*
D76*
X004810Y010187D03*
D77*
X004834Y010192D03*
X004759Y016084D03*
D78*
X002890Y010198D03*
D79*
X004853Y010198D03*
D80*
X002871Y010203D03*
D81*
X002817Y010219D03*
X004875Y010203D03*
X004805Y016073D03*
X002898Y016062D03*
D82*
X002853Y010208D03*
D83*
X002801Y010225D03*
X004891Y010208D03*
D84*
X002834Y010214D03*
D85*
X004910Y010214D03*
D86*
X004926Y010219D03*
X002766Y010235D03*
X003468Y011710D03*
X003463Y011720D03*
X003452Y011742D03*
X003446Y011753D03*
X003441Y011764D03*
X003430Y011785D03*
X002647Y013362D03*
X002642Y013373D03*
X002636Y013384D03*
X002626Y013405D03*
X002501Y013659D03*
X002496Y013670D03*
X002491Y013681D03*
X002485Y013691D03*
X002480Y013702D03*
X002474Y013713D03*
X002469Y013724D03*
X002464Y013735D03*
X002458Y013745D03*
X002448Y013767D03*
X002442Y013778D03*
X002437Y013789D03*
X002426Y013810D03*
X002420Y013821D03*
X002415Y013832D03*
X002404Y013853D03*
X002399Y013864D03*
X002393Y013875D03*
X002388Y013886D03*
X002383Y013897D03*
X002377Y013907D03*
X002372Y013918D03*
X002366Y013929D03*
X002361Y013940D03*
X002356Y013951D03*
X002356Y013956D03*
X002350Y013961D03*
X002350Y013967D03*
X002339Y013988D03*
X002334Y013999D03*
X002329Y014010D03*
X002323Y014021D03*
X002318Y014032D03*
X002313Y014042D03*
X002307Y014053D03*
X002302Y014064D03*
X002296Y014075D03*
X002291Y014086D03*
X002285Y014096D03*
X002280Y014107D03*
X002275Y014118D03*
X002269Y014129D03*
X002264Y014140D03*
X002258Y014150D03*
X002248Y014172D03*
X002242Y014183D03*
X002237Y014194D03*
X002226Y014215D03*
X002221Y014226D03*
X002215Y014237D03*
X002210Y014253D03*
X002204Y014258D03*
X002204Y014264D03*
X002199Y014269D03*
X002199Y014275D03*
X002194Y014280D03*
X002194Y014285D03*
X002188Y014291D03*
X002183Y014302D03*
X002183Y014307D03*
X002178Y014312D03*
X002178Y014318D03*
X002172Y014323D03*
X002172Y014329D03*
X002167Y014334D03*
X002161Y014345D03*
X002161Y014350D03*
X002156Y014356D03*
X002156Y014361D03*
X002150Y014366D03*
X002150Y014372D03*
X002145Y014377D03*
X002140Y014388D03*
X002140Y014393D03*
X002134Y014399D03*
X002134Y014404D03*
X002129Y014410D03*
X002129Y014415D03*
X002123Y014420D03*
X002123Y014426D03*
X002118Y014437D03*
X002113Y014442D03*
X002113Y014447D03*
X002107Y014453D03*
X002107Y014458D03*
X002102Y014464D03*
X002102Y014469D03*
X002096Y014480D03*
X002091Y014485D03*
X002091Y014491D03*
X002086Y014496D03*
X002086Y014501D03*
X002080Y014507D03*
X002080Y014512D03*
X002075Y014523D03*
X002069Y014528D03*
X002069Y014534D03*
X002064Y014545D03*
X002064Y014550D03*
X002059Y014555D03*
X002059Y014561D03*
X002053Y014572D03*
X002048Y014577D03*
X002048Y014582D03*
X002043Y014588D03*
X002043Y014593D03*
X002037Y014599D03*
X002037Y014604D03*
X002032Y014615D03*
X002026Y014620D03*
X002026Y014626D03*
X002021Y014631D03*
X002021Y014636D03*
X002015Y014642D03*
X002015Y014647D03*
X002010Y014658D03*
X002005Y014663D03*
X002005Y014669D03*
X002842Y016046D03*
X004845Y016062D03*
D87*
X004864Y016057D03*
X002823Y016040D03*
X005399Y014059D03*
X005399Y014053D03*
X005393Y014048D03*
X005393Y014042D03*
X005388Y014037D03*
X005388Y014032D03*
X005404Y014064D03*
X005355Y013972D03*
X005355Y013967D03*
X005350Y013961D03*
X005350Y013956D03*
X005345Y013951D03*
X005345Y013945D03*
X005312Y013886D03*
X005312Y013880D03*
X005307Y013875D03*
X005307Y013870D03*
X005301Y013864D03*
X005301Y013859D03*
X005296Y013853D03*
X005296Y013848D03*
X005264Y013789D03*
X005258Y013778D03*
X005253Y013767D03*
X005220Y013702D03*
X005215Y013691D03*
X005210Y013681D03*
X005177Y013616D03*
X005172Y013605D03*
X005166Y013594D03*
X004545Y012341D03*
X004545Y012336D03*
X004540Y012331D03*
X004540Y012325D03*
X004535Y012320D03*
X004502Y012255D03*
X004502Y012250D03*
X004497Y012244D03*
X004497Y012239D03*
X004491Y012233D03*
X004491Y012228D03*
X004486Y012217D03*
X004459Y012169D03*
X004454Y012158D03*
X004448Y012147D03*
X003152Y012331D03*
X003152Y012336D03*
X003147Y012341D03*
X003147Y012347D03*
X004945Y010225D03*
D88*
X002785Y010230D03*
X004826Y016067D03*
D89*
X002807Y016035D03*
X005674Y014604D03*
X005679Y014615D03*
X005685Y014620D03*
X005685Y014626D03*
X005690Y014631D03*
X005690Y014636D03*
X005696Y014642D03*
X005696Y014647D03*
X005701Y014658D03*
X005658Y014572D03*
X005652Y014561D03*
X005647Y014550D03*
X005642Y014539D03*
X005636Y014528D03*
X005625Y014507D03*
X005615Y014485D03*
X005604Y014464D03*
X005598Y014453D03*
X005593Y014442D03*
X005582Y014420D03*
X005566Y014388D03*
X005561Y014377D03*
X005555Y014366D03*
X005550Y014356D03*
X004999Y013243D03*
X004999Y013238D03*
X002688Y013254D03*
X002720Y010252D03*
X004961Y010230D03*
D90*
X004977Y010235D03*
X002709Y010257D03*
X002693Y013232D03*
X002693Y013238D03*
X004994Y013222D03*
X004902Y016046D03*
X002790Y016030D03*
D91*
X002067Y014539D03*
X002213Y014242D03*
X002234Y014199D03*
X002240Y014188D03*
X002245Y014177D03*
X002250Y014167D03*
X002256Y014156D03*
X002283Y014102D03*
X002288Y014091D03*
X002294Y014080D03*
X002304Y014059D03*
X002326Y014015D03*
X002331Y014005D03*
X002337Y013994D03*
X002342Y013983D03*
X002348Y013972D03*
X002369Y013924D03*
X002375Y013913D03*
X002380Y013902D03*
X002391Y013880D03*
X002412Y013837D03*
X002418Y013826D03*
X002423Y013816D03*
X002429Y013805D03*
X002434Y013794D03*
X002439Y013783D03*
X002456Y013751D03*
X002461Y013740D03*
X002466Y013729D03*
X002472Y013718D03*
X002483Y013697D03*
X002504Y013654D03*
X002504Y013648D03*
X002510Y013643D03*
X002510Y013637D03*
X002515Y013632D03*
X002515Y013627D03*
X002520Y013616D03*
X002526Y013610D03*
X002526Y013605D03*
X002547Y013567D03*
X002547Y013562D03*
X002553Y013556D03*
X002553Y013551D03*
X002558Y013546D03*
X002558Y013540D03*
X002564Y013535D03*
X002569Y013524D03*
X002569Y013519D03*
X002574Y013513D03*
X002574Y013508D03*
X002591Y013481D03*
X002591Y013475D03*
X002596Y013470D03*
X002596Y013465D03*
X002601Y013459D03*
X002601Y013454D03*
X002607Y013448D03*
X002607Y013443D03*
X002612Y013432D03*
X002618Y013427D03*
X002618Y013421D03*
X002639Y013378D03*
X002645Y013367D03*
X002650Y013357D03*
X002655Y013346D03*
X002655Y013340D03*
X002661Y013335D03*
X002661Y013330D03*
X003266Y012109D03*
X003271Y012098D03*
X003282Y012077D03*
X003287Y012066D03*
X003293Y012055D03*
X003314Y012012D03*
X003325Y011990D03*
X003330Y011980D03*
X003336Y011969D03*
X003357Y011931D03*
X003357Y011926D03*
X003363Y011920D03*
X003363Y011915D03*
X003368Y011904D03*
X003374Y011899D03*
X003374Y011893D03*
X003379Y011888D03*
X003379Y011882D03*
X003384Y011877D03*
X003384Y011872D03*
X003401Y011845D03*
X003401Y011839D03*
X003406Y011834D03*
X003406Y011828D03*
X003411Y011823D03*
X003417Y011812D03*
X003417Y011807D03*
X003422Y011801D03*
X003422Y011796D03*
X003428Y011791D03*
X003449Y011747D03*
X003455Y011737D03*
X003460Y011726D03*
X003465Y011715D03*
X004227Y011710D03*
X004232Y011715D03*
X004232Y011720D03*
X004238Y011726D03*
X004259Y011769D03*
X004265Y011780D03*
X004265Y011785D03*
X004270Y011791D03*
X004270Y011796D03*
X004275Y011801D03*
X004275Y011807D03*
X004281Y011812D03*
X004302Y011855D03*
X004313Y011877D03*
X004319Y011888D03*
X004324Y011899D03*
X004346Y011942D03*
X004356Y011963D03*
X004362Y011974D03*
X004367Y011985D03*
X004373Y011996D03*
X005021Y013308D03*
X005026Y013313D03*
X005026Y013319D03*
X005031Y013324D03*
X005031Y013330D03*
X005037Y013335D03*
X005042Y013346D03*
X005048Y013357D03*
X005069Y013400D03*
X005075Y013411D03*
X005080Y013421D03*
X005085Y013432D03*
X005091Y013443D03*
X002753Y010241D03*
D92*
X002693Y010262D03*
X004994Y010241D03*
X004988Y013195D03*
X004988Y013200D03*
X002699Y013211D03*
X002774Y016024D03*
X004918Y016040D03*
D93*
X005404Y014069D03*
X005269Y013799D03*
X004535Y012314D03*
X004486Y012223D03*
X004443Y012136D03*
X002736Y010246D03*
D94*
X005007Y010246D03*
D95*
X005023Y010252D03*
X002663Y010273D03*
X002707Y013178D03*
X002707Y013184D03*
X004980Y013162D03*
X002744Y016013D03*
D96*
X002728Y016008D03*
X002712Y013162D03*
X002712Y013157D03*
X004975Y013146D03*
X004975Y013141D03*
X005039Y010257D03*
X002636Y010284D03*
D97*
X005050Y010262D03*
X004969Y013119D03*
X002718Y013135D03*
X002718Y013141D03*
D98*
X002680Y010268D03*
X002761Y016019D03*
D99*
X002685Y015992D03*
X002723Y013119D03*
X002723Y013114D03*
X004964Y013103D03*
X004964Y013097D03*
X005066Y010268D03*
X002599Y010300D03*
D100*
X005080Y010273D03*
X004999Y016013D03*
D101*
X004950Y016030D03*
X004977Y013157D03*
X004977Y013151D03*
X002709Y013173D03*
X002650Y010279D03*
D102*
X002572Y010311D03*
X005094Y010279D03*
X004959Y013076D03*
X002728Y013092D03*
X002728Y013097D03*
X002674Y015986D03*
X005013Y016008D03*
D103*
X002661Y015981D03*
X002731Y013087D03*
X004956Y013070D03*
X004956Y013065D03*
X005107Y010284D03*
D104*
X002626Y010289D03*
X004969Y013124D03*
D105*
X005120Y010289D03*
X005029Y016003D03*
D106*
X004983Y016019D03*
X002699Y015997D03*
X002612Y010295D03*
D107*
X005131Y010295D03*
X004948Y013038D03*
X002631Y015970D03*
D108*
X002618Y015965D03*
X005058Y015992D03*
X004945Y013027D03*
X004945Y013022D03*
X002742Y013038D03*
X002742Y013043D03*
X005145Y010300D03*
D109*
X002585Y010306D03*
X002726Y013103D03*
X002726Y013108D03*
X004961Y013092D03*
X004961Y013087D03*
D110*
X005158Y010306D03*
X002593Y015954D03*
D111*
X005069Y015986D03*
X004940Y013006D03*
X004940Y013000D03*
X002747Y013016D03*
X002747Y013022D03*
X002499Y010343D03*
X005172Y010311D03*
D112*
X002561Y010316D03*
X004953Y013054D03*
X004953Y013060D03*
X002734Y013070D03*
X002734Y013076D03*
X002647Y015976D03*
D113*
X002569Y015943D03*
X005096Y015976D03*
X004934Y012984D03*
X004934Y012979D03*
X002753Y012995D03*
X002753Y013000D03*
X002466Y010360D03*
X005183Y010316D03*
D114*
X002547Y010322D03*
X002537Y010327D03*
X004950Y013043D03*
X004950Y013049D03*
X002736Y013060D03*
X002736Y013065D03*
X005042Y015997D03*
D115*
X005196Y010322D03*
D116*
X002526Y010333D03*
X002607Y015959D03*
D117*
X005220Y010333D03*
D118*
X002512Y010338D03*
X002744Y013027D03*
X004942Y013016D03*
X004942Y013011D03*
D119*
X005231Y010338D03*
X002412Y010387D03*
X002520Y015922D03*
D120*
X002766Y012941D03*
X004921Y012930D03*
X004921Y012925D03*
X005245Y010343D03*
X002404Y010392D03*
D121*
X002491Y010349D03*
X002583Y015949D03*
D122*
X005161Y015949D03*
X005253Y010349D03*
X002391Y010397D03*
D123*
X002480Y010354D03*
X002750Y013006D03*
X002750Y013011D03*
X004937Y012995D03*
X005083Y015981D03*
D124*
X005174Y015943D03*
X002474Y015900D03*
X002464Y015895D03*
X002771Y012925D03*
X002771Y012919D03*
X004915Y012908D03*
X004915Y012903D03*
X002383Y010403D03*
X002372Y010408D03*
X005266Y010354D03*
X005277Y010360D03*
D125*
X005288Y010365D03*
X005299Y010370D03*
X005309Y010376D03*
X004910Y012881D03*
X004910Y012887D03*
X002777Y012903D03*
X002442Y015884D03*
X002453Y015889D03*
D126*
X002423Y010381D03*
D127*
X005320Y010381D03*
X005234Y015916D03*
X002410Y015868D03*
D128*
X002420Y015873D03*
X005223Y015922D03*
X004905Y012865D03*
X004905Y012860D03*
X002782Y012876D03*
X002782Y012881D03*
X002313Y010441D03*
X002323Y010435D03*
X005331Y010387D03*
D129*
X005339Y010392D03*
X002304Y010446D03*
X002294Y010451D03*
X002785Y012865D03*
X002785Y012871D03*
X004902Y012849D03*
X005247Y015911D03*
X002402Y015862D03*
X002391Y015857D03*
D130*
X005255Y015905D03*
X004899Y012844D03*
X004899Y012838D03*
X002788Y012860D03*
X002285Y010457D03*
X005353Y010397D03*
D131*
X005361Y010403D03*
X005372Y010408D03*
X002256Y010473D03*
X004896Y012827D03*
X004896Y012833D03*
X002790Y012838D03*
X002790Y012844D03*
X002790Y012849D03*
X002369Y015846D03*
X002380Y015851D03*
X005269Y015900D03*
X005280Y015895D03*
D132*
X005199Y015932D03*
X005188Y015938D03*
X004913Y012892D03*
X002774Y012908D03*
X002774Y012914D03*
X002353Y010419D03*
X002364Y010414D03*
D133*
X005380Y010414D03*
X002361Y015841D03*
X002350Y015835D03*
D134*
X002793Y012833D03*
X002793Y012827D03*
X004894Y012822D03*
X004894Y012817D03*
X005390Y010419D03*
X002248Y010478D03*
D135*
X002342Y010424D03*
D136*
X005401Y010424D03*
X002798Y012811D03*
D137*
X002780Y012887D03*
X002780Y012892D03*
X004907Y012876D03*
X004907Y012871D03*
X002331Y010430D03*
X002434Y015878D03*
X005210Y015927D03*
D138*
X002313Y015814D03*
X002221Y010495D03*
X005412Y010430D03*
D139*
X005420Y010435D03*
X005431Y010441D03*
X002196Y010511D03*
X002801Y012795D03*
X002801Y012800D03*
X004886Y012790D03*
X004886Y012784D03*
X004886Y012779D03*
X005323Y015873D03*
X002299Y015808D03*
D140*
X002291Y015803D03*
X002275Y015792D03*
X005342Y015862D03*
X005353Y015857D03*
X004883Y012773D03*
X004883Y012768D03*
X002804Y012784D03*
X002804Y012790D03*
X002161Y010532D03*
X005439Y010446D03*
X005450Y010451D03*
D141*
X005458Y010457D03*
X005469Y010462D03*
X002169Y010527D03*
X002153Y010538D03*
X002137Y010549D03*
X004880Y012757D03*
X005361Y015851D03*
X002283Y015797D03*
D142*
X002275Y010462D03*
D143*
X002267Y010468D03*
D144*
X005477Y010468D03*
X002809Y012763D03*
D145*
X002809Y012768D03*
X004878Y012752D03*
X004878Y012746D03*
X005488Y010473D03*
X002145Y010543D03*
X002129Y010554D03*
X002237Y015770D03*
X002248Y015776D03*
X005374Y015846D03*
D146*
X005382Y015841D03*
X005393Y015835D03*
X005496Y010478D03*
X002110Y010565D03*
X002105Y010570D03*
D147*
X002213Y010500D03*
X002229Y010489D03*
X002240Y010484D03*
X002796Y012817D03*
X002796Y012822D03*
X004891Y012806D03*
X005301Y015884D03*
X005291Y015889D03*
X002342Y015830D03*
D148*
X002229Y015765D03*
X002812Y012757D03*
X002812Y012752D03*
X004875Y012741D03*
X004875Y012736D03*
X005507Y010484D03*
D149*
X005515Y010489D03*
X005531Y010500D03*
X002096Y010576D03*
X002091Y010581D03*
X002080Y010586D03*
X002815Y012741D03*
X002815Y012746D03*
X004872Y012730D03*
X004872Y012725D03*
X005423Y015819D03*
X005401Y015830D03*
X002221Y015760D03*
X002210Y015754D03*
X002204Y015749D03*
X002194Y015743D03*
D150*
X005431Y015814D03*
X005442Y015808D03*
X005539Y010505D03*
X005523Y010495D03*
X002072Y010592D03*
X002067Y010597D03*
D151*
X002204Y010505D03*
X002798Y012806D03*
X004888Y012800D03*
X004888Y012795D03*
X005309Y015878D03*
X002323Y015819D03*
D152*
X002167Y015727D03*
X002161Y015722D03*
X005450Y015803D03*
X004867Y012709D03*
X004867Y012703D03*
X002820Y012725D03*
X002043Y010613D03*
X002053Y010608D03*
X005547Y010511D03*
D153*
X002186Y010516D03*
X005334Y015868D03*
D154*
X002178Y015733D03*
X002820Y012719D03*
X002059Y010603D03*
X005558Y010516D03*
D155*
X002178Y010522D03*
D156*
X002034Y010619D03*
X002029Y010624D03*
X002013Y010635D03*
X002823Y012709D03*
X002823Y012714D03*
X004864Y012698D03*
X004864Y012692D03*
X005582Y010532D03*
X005566Y010522D03*
X002142Y015711D03*
X005458Y015797D03*
X005469Y015792D03*
D157*
X002153Y015716D03*
X005571Y010527D03*
D158*
X005598Y010543D03*
X005615Y010554D03*
X001986Y010657D03*
X001970Y010667D03*
X002828Y012687D03*
X002828Y012692D03*
X004859Y012671D03*
X002105Y015684D03*
X002094Y015679D03*
X002088Y015673D03*
X005496Y015776D03*
X005507Y015770D03*
D159*
X002121Y010559D03*
D160*
X005623Y010559D03*
X002831Y012676D03*
D161*
X001951Y010684D03*
X001956Y010678D03*
X001961Y010673D03*
X005628Y010565D03*
X005639Y010570D03*
X002080Y015668D03*
X005515Y015765D03*
X005525Y015760D03*
D162*
X005539Y015749D03*
X005550Y015743D03*
X002072Y015662D03*
X002056Y015652D03*
X002034Y015635D03*
X002834Y012671D03*
X002834Y012665D03*
X004853Y012655D03*
X004853Y012649D03*
X006101Y012017D03*
X005804Y011467D03*
X005663Y010586D03*
X005652Y010581D03*
X005647Y010576D03*
X001943Y010689D03*
X001921Y010705D03*
X001916Y010711D03*
D163*
X001929Y010700D03*
X002836Y012655D03*
X002836Y012660D03*
X004850Y012644D03*
X004850Y012638D03*
X005806Y011472D03*
X005671Y010592D03*
X002021Y015625D03*
X002026Y015630D03*
X005574Y015727D03*
D164*
X005558Y015738D03*
X002043Y015641D03*
X006098Y012023D03*
X006093Y012012D03*
X005693Y010608D03*
X005677Y010597D03*
X001908Y010716D03*
X001902Y010721D03*
D165*
X001883Y010738D03*
X004848Y012628D03*
X005685Y010603D03*
X005566Y015733D03*
D166*
X005582Y015722D03*
X002013Y015619D03*
X002007Y015614D03*
X001997Y015608D03*
X001991Y015603D03*
X002839Y012649D03*
X002839Y012644D03*
X004848Y012633D03*
X006101Y012028D03*
X005701Y010613D03*
X001894Y010727D03*
X001889Y010732D03*
D167*
X001875Y010743D03*
X001853Y010759D03*
X001848Y010765D03*
X001843Y010770D03*
X001837Y010775D03*
X002842Y012633D03*
X002842Y012638D03*
X004845Y012622D03*
X004845Y012617D03*
X005806Y011477D03*
X005714Y010624D03*
X005709Y010619D03*
X005606Y015706D03*
X001978Y015592D03*
X001961Y015581D03*
D168*
X001970Y015587D03*
X001948Y015571D03*
X001943Y015565D03*
X005615Y015700D03*
X005625Y015695D03*
X002844Y012622D03*
X004842Y012611D03*
X004842Y012606D03*
X006101Y012039D03*
X005804Y011483D03*
X005744Y010646D03*
X005739Y010640D03*
X005723Y010630D03*
X001829Y010781D03*
X001818Y010792D03*
X001813Y010797D03*
D169*
X001864Y010754D03*
X001870Y010748D03*
X005731Y010635D03*
X006098Y012034D03*
X005601Y015711D03*
X005590Y015716D03*
X001956Y015576D03*
D170*
X004859Y012676D03*
X001991Y010651D03*
D171*
X005752Y010651D03*
X006098Y012044D03*
X001929Y015554D03*
D172*
X001924Y015549D03*
X001913Y015544D03*
X001934Y015560D03*
X005639Y015684D03*
X005650Y015679D03*
X005655Y015673D03*
X002847Y012617D03*
X002847Y012611D03*
X004840Y012601D03*
X004840Y012595D03*
X005806Y011488D03*
X005774Y010667D03*
X005768Y010662D03*
X005758Y010657D03*
X001805Y010802D03*
X001799Y010808D03*
X001794Y010813D03*
X001789Y010819D03*
D173*
X001978Y010662D03*
X002831Y012682D03*
X004856Y012665D03*
X004856Y012660D03*
X002064Y015657D03*
X005531Y015754D03*
D174*
X005663Y015668D03*
X005669Y015662D03*
X005679Y015657D03*
X001899Y015533D03*
X001894Y015527D03*
X001889Y015522D03*
X002850Y012606D03*
X002850Y012601D03*
X004837Y012590D03*
X005804Y011494D03*
X005793Y010684D03*
X005787Y010678D03*
X005782Y010673D03*
X001781Y010824D03*
X001770Y010835D03*
X001764Y010840D03*
X001759Y010846D03*
D175*
X001751Y010851D03*
X001745Y010856D03*
X001740Y010862D03*
X001735Y010867D03*
X001724Y010878D03*
X002853Y012590D03*
X002853Y012595D03*
X004834Y012579D03*
X004834Y012574D03*
X006098Y012050D03*
X005806Y011499D03*
X005828Y010711D03*
X005823Y010705D03*
X005817Y010700D03*
X005801Y010689D03*
X001843Y015484D03*
X001870Y015506D03*
X001880Y015517D03*
X005688Y015652D03*
X005709Y015635D03*
D176*
X002051Y015646D03*
X001937Y010694D03*
D177*
X001729Y010873D03*
X005806Y010694D03*
X005693Y015646D03*
X001875Y015511D03*
D178*
X001856Y015495D03*
X001851Y015490D03*
X001835Y015479D03*
X001829Y015473D03*
X001824Y015468D03*
X005701Y015641D03*
X005717Y015630D03*
X005723Y015625D03*
X006101Y012055D03*
X005847Y010727D03*
X005841Y010721D03*
X005836Y010716D03*
X001716Y010883D03*
X001710Y010889D03*
X001705Y010894D03*
X001700Y010900D03*
X001694Y010905D03*
D179*
X001691Y010910D03*
X001686Y010916D03*
X002858Y012568D03*
X002858Y012574D03*
X004829Y012557D03*
X004829Y012552D03*
X006098Y012061D03*
X005887Y010759D03*
X005866Y010743D03*
X005855Y010732D03*
X001794Y015441D03*
X001799Y015446D03*
X001805Y015452D03*
X001810Y015457D03*
X005731Y015619D03*
X005736Y015614D03*
X005747Y015608D03*
X005752Y015603D03*
D180*
X001681Y010921D03*
X005860Y010738D03*
D181*
X005874Y010748D03*
X005906Y010775D03*
X006101Y012066D03*
X004826Y012547D03*
X004373Y012547D03*
X004373Y012552D03*
X004373Y012557D03*
X004373Y012563D03*
X004373Y012568D03*
X004373Y012574D03*
X004373Y012579D03*
X004373Y012590D03*
X004373Y012595D03*
X004373Y012601D03*
X004373Y012606D03*
X004373Y012611D03*
X004373Y012617D03*
X004373Y012622D03*
X004373Y012633D03*
X004373Y012638D03*
X004373Y012644D03*
X004373Y012649D03*
X004373Y012655D03*
X004373Y012660D03*
X004373Y012665D03*
X004373Y012671D03*
X004373Y012682D03*
X004373Y012687D03*
X004373Y012692D03*
X004373Y012698D03*
X004373Y012703D03*
X004373Y012709D03*
X004373Y012714D03*
X004373Y012725D03*
X004373Y012730D03*
X004373Y012736D03*
X004373Y012741D03*
X004373Y012746D03*
X004373Y012752D03*
X004373Y012757D03*
X004373Y012768D03*
X004373Y012773D03*
X004373Y012779D03*
X004373Y012784D03*
X004373Y012790D03*
X004373Y012795D03*
X004373Y012800D03*
X004373Y012806D03*
X004373Y012817D03*
X004373Y012822D03*
X004373Y012827D03*
X004373Y012833D03*
X004373Y012838D03*
X004373Y012844D03*
X004373Y012849D03*
X004373Y012860D03*
X004373Y012865D03*
X004373Y012871D03*
X004373Y012876D03*
X004373Y012881D03*
X004373Y012887D03*
X004373Y012892D03*
X004373Y012903D03*
X004373Y012908D03*
X004373Y012914D03*
X004373Y012919D03*
X004373Y012925D03*
X004373Y012930D03*
X004373Y012935D03*
X004373Y012941D03*
X004373Y012952D03*
X004373Y012957D03*
X004373Y012962D03*
X004373Y012968D03*
X004373Y012973D03*
X004373Y012979D03*
X004373Y012984D03*
X004373Y012995D03*
X004373Y013000D03*
X004373Y013006D03*
X004373Y013011D03*
X004373Y013016D03*
X004373Y013022D03*
X004373Y013027D03*
X004373Y013038D03*
X004373Y013043D03*
X004373Y013049D03*
X004373Y013054D03*
X004373Y013060D03*
X004373Y013065D03*
X004373Y013070D03*
X004373Y013076D03*
X004373Y013087D03*
X004373Y013092D03*
X004373Y013097D03*
X004373Y013103D03*
X004373Y013108D03*
X004373Y013114D03*
X004373Y013119D03*
X004373Y013130D03*
X004373Y013135D03*
X004373Y013141D03*
X004373Y013146D03*
X004373Y013151D03*
X004373Y013157D03*
X004373Y013162D03*
X004373Y013173D03*
X004373Y013178D03*
X004373Y013184D03*
X004373Y013189D03*
X004373Y013195D03*
X004373Y013200D03*
X004373Y013205D03*
X004373Y013211D03*
X004373Y013222D03*
X004373Y013227D03*
X004373Y013232D03*
X004373Y013238D03*
X004373Y013546D03*
X004373Y013551D03*
X004373Y013556D03*
X004373Y013562D03*
X004373Y013567D03*
X004373Y013578D03*
X004373Y013583D03*
X004373Y013589D03*
X004373Y013594D03*
X004373Y013600D03*
X004373Y013605D03*
X004373Y013610D03*
X004373Y013616D03*
X004373Y013627D03*
X004373Y013632D03*
X004373Y013637D03*
X004373Y013643D03*
X004373Y013648D03*
X004373Y013654D03*
X004373Y013659D03*
X004373Y013670D03*
X004373Y013675D03*
X004373Y013681D03*
X004373Y013686D03*
X004373Y013691D03*
X004373Y013697D03*
X004373Y013702D03*
X004373Y013713D03*
X004373Y013718D03*
X004373Y013724D03*
X004373Y013729D03*
X004373Y013735D03*
X004373Y013740D03*
X004373Y013745D03*
X004373Y013751D03*
X004373Y013762D03*
X004373Y013767D03*
X004373Y013772D03*
X004373Y013778D03*
X004373Y013783D03*
X004373Y013789D03*
X004373Y013794D03*
X004373Y013805D03*
X004373Y013810D03*
X004373Y013816D03*
X004373Y013821D03*
X004373Y013826D03*
X004373Y013832D03*
X004373Y013837D03*
X004373Y013848D03*
X004373Y013853D03*
X004373Y013859D03*
X004373Y013864D03*
X004373Y013870D03*
X004373Y013875D03*
X004373Y013880D03*
X004373Y013886D03*
X004373Y013897D03*
X004373Y013902D03*
X004373Y013907D03*
X004373Y013913D03*
X004373Y013918D03*
X004373Y013924D03*
X004373Y013929D03*
X004373Y013940D03*
X004373Y013945D03*
X004373Y013951D03*
X004373Y013956D03*
X004373Y013961D03*
X004373Y013967D03*
X004373Y013972D03*
X004373Y013983D03*
X004373Y013988D03*
X004373Y013994D03*
X004373Y013999D03*
X004373Y014005D03*
X004373Y014010D03*
X004373Y014015D03*
X004373Y014021D03*
X004373Y014032D03*
X004373Y014037D03*
X004373Y014042D03*
X004373Y014048D03*
X004373Y014053D03*
X004373Y014059D03*
X004373Y014064D03*
X004373Y014075D03*
X004373Y014080D03*
X004373Y014086D03*
X004373Y014091D03*
X004373Y014096D03*
X004373Y014102D03*
X004373Y014107D03*
X004373Y014118D03*
X004373Y014123D03*
X004373Y014129D03*
X004373Y014134D03*
X004373Y014140D03*
X004373Y014145D03*
X004373Y014150D03*
X004373Y014156D03*
X004373Y014167D03*
X004373Y014172D03*
X004373Y014177D03*
X004373Y014183D03*
X004373Y014188D03*
X004373Y014194D03*
X004373Y014199D03*
X004373Y014210D03*
X004373Y014215D03*
X004373Y014221D03*
X004373Y014226D03*
X004373Y014231D03*
X004373Y014237D03*
X004373Y014242D03*
X004373Y014253D03*
X004373Y014258D03*
X004373Y014264D03*
X004373Y014269D03*
X004373Y014275D03*
X004373Y014280D03*
X004373Y014285D03*
X004373Y014291D03*
X004373Y014302D03*
X004373Y014307D03*
X004373Y014312D03*
X004373Y014318D03*
X004373Y014323D03*
X004373Y014329D03*
X004373Y014334D03*
X004373Y014345D03*
X004373Y014350D03*
X004373Y014356D03*
X004373Y014361D03*
X004373Y014366D03*
X004373Y014372D03*
X004373Y014377D03*
X004373Y014388D03*
X004373Y014393D03*
X004373Y014399D03*
X004373Y014404D03*
X004373Y014410D03*
X004373Y014415D03*
X004373Y014420D03*
X004373Y014426D03*
X004373Y014437D03*
X004373Y014442D03*
X004373Y014447D03*
X004373Y014453D03*
X004373Y014458D03*
X004373Y014464D03*
X004373Y014469D03*
X005782Y015581D03*
X005787Y015576D03*
X001781Y015430D03*
X001775Y015425D03*
X001764Y015414D03*
X002861Y012563D03*
X002861Y012557D03*
X004373Y012536D03*
X004373Y012530D03*
X004373Y012525D03*
X004373Y012520D03*
X004373Y012514D03*
X004373Y012509D03*
X004373Y012503D03*
X004373Y012498D03*
X004373Y012487D03*
X004373Y012482D03*
X004373Y012476D03*
X004373Y012471D03*
X004373Y012466D03*
X004373Y012460D03*
X004373Y012455D03*
X004373Y012444D03*
X004373Y012439D03*
X004373Y012433D03*
X004373Y012428D03*
X004373Y012422D03*
X004373Y012417D03*
X001673Y010927D03*
X001646Y010954D03*
X001640Y010959D03*
X001629Y010970D03*
D182*
X001651Y010948D03*
X001656Y010943D03*
X001662Y010937D03*
X001667Y010932D03*
X005804Y011510D03*
X005804Y011515D03*
X005901Y010770D03*
X005895Y010765D03*
X005879Y010754D03*
X001786Y015436D03*
X005766Y015592D03*
D183*
X005774Y015587D03*
X005795Y015571D03*
X005801Y015565D03*
X003306Y014469D03*
X003306Y014464D03*
X003306Y014458D03*
X003306Y014453D03*
X003306Y014447D03*
X003306Y014442D03*
X003306Y014437D03*
X003306Y014426D03*
X003306Y014420D03*
X003306Y014415D03*
X003306Y014410D03*
X003306Y014404D03*
X003306Y014399D03*
X003306Y014393D03*
X003306Y014388D03*
X003306Y014377D03*
X003306Y014372D03*
X003306Y014366D03*
X003306Y014361D03*
X003306Y014356D03*
X003306Y014350D03*
X003306Y014345D03*
X003306Y014334D03*
X003306Y014329D03*
X003306Y014323D03*
X003306Y014318D03*
X003306Y014312D03*
X003306Y014307D03*
X003306Y014302D03*
X003306Y014291D03*
X003306Y014285D03*
X003306Y014280D03*
X003306Y014275D03*
X003306Y014269D03*
X003306Y014264D03*
X003306Y014258D03*
X003306Y014253D03*
X003306Y014242D03*
X003306Y014237D03*
X003306Y014231D03*
X003306Y014226D03*
X003306Y014221D03*
X003306Y014215D03*
X003306Y014210D03*
X003306Y014199D03*
X003306Y014194D03*
X003306Y014188D03*
X003306Y014183D03*
X003306Y014177D03*
X003306Y014172D03*
X003306Y014167D03*
X003306Y014156D03*
X003306Y014150D03*
X003306Y014145D03*
X003306Y014140D03*
X003306Y014134D03*
X003306Y014129D03*
X003306Y014123D03*
X003306Y014118D03*
X003306Y014107D03*
X003306Y014102D03*
X003306Y014096D03*
X003306Y014091D03*
X003306Y014086D03*
X003306Y014080D03*
X003306Y014075D03*
X003306Y014064D03*
X003306Y014059D03*
X003306Y014053D03*
X003306Y014048D03*
X003306Y014042D03*
X003306Y014037D03*
X003306Y014032D03*
X003306Y014021D03*
X003306Y014015D03*
X003306Y014010D03*
X003306Y014005D03*
X003306Y013999D03*
X003306Y013994D03*
X003306Y013988D03*
X003306Y013983D03*
X003306Y013972D03*
X003306Y013967D03*
X003306Y013961D03*
X003306Y013956D03*
X003306Y013951D03*
X003306Y013945D03*
X003306Y013940D03*
X003306Y013929D03*
X003306Y013924D03*
X003306Y013918D03*
X003306Y013913D03*
X003306Y013907D03*
X003306Y013902D03*
X003306Y013897D03*
X003306Y013886D03*
X003306Y013880D03*
X003306Y013875D03*
X003306Y013870D03*
X003306Y013864D03*
X003306Y013859D03*
X003306Y013853D03*
X003306Y013848D03*
X003306Y013837D03*
X003306Y013832D03*
X003306Y013826D03*
X003306Y013821D03*
X003306Y013816D03*
X003306Y013810D03*
X003306Y013805D03*
X003306Y013794D03*
X003306Y013789D03*
X003306Y013783D03*
X003306Y013778D03*
X003306Y013772D03*
X003306Y013767D03*
X003306Y013762D03*
X003306Y013751D03*
X003306Y013745D03*
X003306Y013740D03*
X003306Y013735D03*
X003306Y013729D03*
X003306Y013724D03*
X003306Y013718D03*
X003306Y013713D03*
X003306Y013702D03*
X003306Y013697D03*
X003306Y013691D03*
X003306Y013686D03*
X003306Y013681D03*
X003306Y013675D03*
X003306Y013670D03*
X003306Y013659D03*
X003306Y013654D03*
X003306Y013648D03*
X003306Y013643D03*
X003306Y013637D03*
X003306Y013632D03*
X003306Y013627D03*
X003306Y013616D03*
X003306Y013610D03*
X003306Y013605D03*
X003306Y013600D03*
X003306Y013594D03*
X003306Y013589D03*
X003306Y013583D03*
X003306Y013578D03*
X003306Y013567D03*
X003306Y013562D03*
X003306Y013556D03*
X003306Y013551D03*
X003306Y013546D03*
X003306Y013238D03*
X003306Y013232D03*
X003306Y013227D03*
X003306Y013222D03*
X003306Y013211D03*
X003306Y013205D03*
X003306Y013200D03*
X003306Y013195D03*
X003306Y013189D03*
X003306Y013184D03*
X003306Y013178D03*
X003306Y013173D03*
X003306Y013162D03*
X003306Y013157D03*
X003306Y013151D03*
X003306Y013146D03*
X003306Y013141D03*
X003306Y013135D03*
X003306Y013130D03*
X003306Y013119D03*
X003306Y013114D03*
X003306Y013108D03*
X003306Y013103D03*
X003306Y013097D03*
X003306Y013092D03*
X003306Y013087D03*
X003306Y013076D03*
X003306Y013070D03*
X003306Y013065D03*
X003306Y013060D03*
X003306Y013054D03*
X003306Y013049D03*
X003306Y013043D03*
X003306Y013038D03*
X003306Y013027D03*
X003306Y013022D03*
X003306Y013016D03*
X003306Y013011D03*
X003306Y013006D03*
X003306Y013000D03*
X003306Y012995D03*
X003306Y012984D03*
X003306Y012979D03*
X003306Y012973D03*
X003306Y012968D03*
X003306Y012962D03*
X003306Y012957D03*
X003306Y012952D03*
X003306Y012941D03*
X003306Y012935D03*
X003306Y012930D03*
X003306Y012925D03*
X003306Y012919D03*
X003306Y012914D03*
X003306Y012908D03*
X003306Y012903D03*
X003306Y012892D03*
X003306Y012887D03*
X003306Y012881D03*
X003306Y012876D03*
X003306Y012871D03*
X003306Y012865D03*
X003306Y012860D03*
X003306Y012849D03*
X003306Y012844D03*
X003306Y012838D03*
X003306Y012833D03*
X003306Y012827D03*
X003306Y012822D03*
X003306Y012817D03*
X003306Y012806D03*
X003306Y012800D03*
X003306Y012795D03*
X003306Y012790D03*
X003306Y012784D03*
X003306Y012779D03*
X003306Y012773D03*
X003306Y012768D03*
X003306Y012757D03*
X003306Y012752D03*
X003306Y012746D03*
X003306Y012741D03*
X003306Y012736D03*
X003306Y012730D03*
X003306Y012725D03*
X003306Y012714D03*
X003306Y012709D03*
X003306Y012703D03*
X003306Y012698D03*
X003306Y012692D03*
X003306Y012687D03*
X003306Y012682D03*
X003306Y012671D03*
X003306Y012665D03*
X003306Y012660D03*
X003306Y012655D03*
X003306Y012649D03*
X003306Y012644D03*
X003306Y012638D03*
X003306Y012633D03*
X003306Y012622D03*
X003306Y012617D03*
X003306Y012611D03*
X003306Y012606D03*
X003306Y012601D03*
X003306Y012595D03*
X003306Y012590D03*
X003306Y012579D03*
X003306Y012574D03*
X003306Y012568D03*
X003306Y012563D03*
X003306Y012557D03*
X003306Y012552D03*
X003306Y012547D03*
X003306Y012536D03*
X003306Y012530D03*
X003306Y012525D03*
X003306Y012520D03*
X003306Y012514D03*
X003306Y012509D03*
X003306Y012503D03*
X003306Y012498D03*
X003306Y012487D03*
X003306Y012482D03*
X003306Y012476D03*
X003306Y012471D03*
X003306Y012466D03*
X003306Y012460D03*
X003306Y012455D03*
X003306Y012444D03*
X003306Y012439D03*
X003306Y012433D03*
X003306Y012428D03*
X003306Y012422D03*
X003306Y012417D03*
X003306Y012412D03*
X002863Y012547D03*
X002863Y012552D03*
X004375Y012412D03*
X004824Y012530D03*
X004824Y012536D03*
X006098Y012071D03*
X005930Y010797D03*
X005925Y010792D03*
X005914Y010781D03*
X001627Y010975D03*
X001621Y010981D03*
X001616Y010986D03*
X001610Y010991D03*
X001605Y010997D03*
X001600Y011002D03*
X001589Y011013D03*
X001729Y015382D03*
X001735Y015387D03*
X001740Y015392D03*
X001745Y015398D03*
X001751Y015403D03*
X001756Y015409D03*
D184*
X005631Y015689D03*
X002844Y012628D03*
X001824Y010786D03*
D185*
X001594Y011008D03*
X003306Y012449D03*
X003306Y012493D03*
X003306Y012541D03*
X003306Y012584D03*
X003306Y012628D03*
X003306Y012676D03*
X003306Y012719D03*
X003306Y012763D03*
X003306Y012811D03*
X003306Y012854D03*
X003306Y012898D03*
X003306Y012946D03*
X003306Y012989D03*
X003306Y013033D03*
X003306Y013081D03*
X003306Y013124D03*
X003306Y013168D03*
X003306Y013216D03*
X003306Y013573D03*
X003306Y013621D03*
X003306Y013664D03*
X003306Y013708D03*
X003306Y013756D03*
X003306Y013799D03*
X003306Y013843D03*
X003306Y013891D03*
X003306Y013934D03*
X003306Y013978D03*
X003306Y014026D03*
X003306Y014069D03*
X003306Y014113D03*
X003306Y014161D03*
X003306Y014204D03*
X003306Y014248D03*
X003306Y014296D03*
X003306Y014339D03*
X003306Y014383D03*
X003306Y014431D03*
X003306Y014474D03*
X001724Y015376D03*
X005920Y010786D03*
D186*
X005939Y010802D03*
X005804Y011521D03*
X001575Y011029D03*
X001570Y011035D03*
X001565Y011040D03*
X001700Y015355D03*
X001705Y015360D03*
X001710Y015365D03*
X005841Y015533D03*
D187*
X005836Y015538D03*
X005831Y015544D03*
X005820Y015549D03*
X005809Y015560D03*
X001716Y015371D03*
X001694Y015349D03*
X001689Y015344D03*
X001683Y015338D03*
X002866Y012536D03*
X004821Y012525D03*
X004821Y012520D03*
X005955Y010819D03*
X005949Y010813D03*
X005944Y010808D03*
X001586Y011018D03*
X001581Y011024D03*
X001559Y011045D03*
D188*
X001556Y011051D03*
X001546Y011062D03*
X001540Y011067D03*
X001535Y011072D03*
X001530Y011078D03*
X002869Y012525D03*
X002869Y012530D03*
X004818Y012514D03*
X004818Y012509D03*
X006098Y012082D03*
X006098Y012077D03*
X005801Y011526D03*
X005985Y010846D03*
X005979Y010840D03*
X005974Y010835D03*
X005963Y010824D03*
X001681Y015333D03*
X005850Y015527D03*
X005855Y015522D03*
X005860Y015517D03*
D189*
X004837Y012584D03*
X001775Y010829D03*
D190*
X001551Y011056D03*
X005968Y010829D03*
X001675Y015328D03*
D191*
X001667Y015322D03*
X001662Y015317D03*
X001656Y015311D03*
X001651Y015306D03*
X001646Y015301D03*
X001640Y015295D03*
X001635Y015290D03*
X001624Y015279D03*
X001619Y015274D03*
X005874Y015506D03*
X005879Y015500D03*
X005895Y015490D03*
X005901Y015484D03*
X005906Y015479D03*
X004815Y012503D03*
X004815Y012498D03*
X005706Y011688D03*
X005804Y011531D03*
X006020Y010878D03*
X006009Y010867D03*
X006003Y010862D03*
X005998Y010856D03*
X005993Y010851D03*
X002871Y012514D03*
X002871Y012520D03*
X001484Y011132D03*
X001489Y011126D03*
X001494Y011121D03*
X001505Y011105D03*
X001516Y011094D03*
X001521Y011089D03*
X001527Y011083D03*
D192*
X001511Y011099D03*
X006014Y010873D03*
X001629Y015284D03*
X005868Y015511D03*
D193*
X006025Y010883D03*
D194*
X006033Y010889D03*
X006039Y010894D03*
X006044Y010900D03*
X006049Y010905D03*
X006006Y012239D03*
X004813Y012487D03*
X004818Y014102D03*
X004818Y014107D03*
X004818Y014118D03*
X004818Y014123D03*
X004818Y014129D03*
X004818Y014134D03*
X004818Y014140D03*
X004818Y014145D03*
X004818Y014150D03*
X004818Y014156D03*
X004818Y014167D03*
X004818Y014172D03*
X004818Y014177D03*
X004818Y014183D03*
X004818Y014188D03*
X004818Y014194D03*
X004818Y014199D03*
X005920Y015468D03*
X005914Y015473D03*
X005887Y015495D03*
X001610Y015263D03*
X001605Y015257D03*
X001600Y015252D03*
X001594Y015247D03*
X001584Y015236D03*
X001578Y015230D03*
X001449Y011175D03*
X001454Y011170D03*
X001465Y011153D03*
X001470Y011148D03*
X001497Y011116D03*
X001503Y011110D03*
D195*
X001462Y011159D03*
X001457Y011164D03*
X001446Y011180D03*
X001440Y011186D03*
X001430Y011197D03*
X001424Y011207D03*
X001419Y011213D03*
X001413Y011218D03*
X002877Y012498D03*
X004810Y012482D03*
X004810Y012476D03*
X006014Y012233D03*
X006095Y012093D03*
X005804Y011542D03*
X006074Y010932D03*
X006068Y010927D03*
X006057Y010916D03*
X006052Y010910D03*
X004821Y014210D03*
X005955Y015436D03*
X005949Y015441D03*
X005944Y015446D03*
X005939Y015452D03*
X005933Y015457D03*
X001575Y015225D03*
X001570Y015220D03*
X001565Y015214D03*
X001559Y015209D03*
X001554Y015203D03*
X001548Y015198D03*
D196*
X002877Y012493D03*
X001435Y011191D03*
X006063Y010921D03*
D197*
X006082Y010937D03*
X006087Y010943D03*
X006093Y010948D03*
X006098Y010954D03*
X006103Y010959D03*
X005720Y011677D03*
X006098Y012098D03*
X006017Y012228D03*
X004824Y014215D03*
X005990Y015403D03*
X005968Y015425D03*
X005963Y015430D03*
X001540Y015187D03*
X001535Y015182D03*
X001513Y015155D03*
X001503Y015144D03*
X001497Y015139D03*
X001373Y011272D03*
X001378Y011267D03*
X001400Y011240D03*
X001405Y011229D03*
X001411Y011224D03*
X001427Y011202D03*
D198*
X001635Y010964D03*
X004373Y012449D03*
X004373Y012493D03*
X004373Y012541D03*
X004373Y012584D03*
X004373Y012628D03*
X004373Y012676D03*
X004373Y012719D03*
X004373Y012763D03*
X004373Y012811D03*
X004373Y012854D03*
X004373Y012898D03*
X004373Y012946D03*
X004373Y012989D03*
X004373Y013033D03*
X004373Y013081D03*
X004373Y013124D03*
X004373Y013168D03*
X004373Y013216D03*
X004373Y013573D03*
X004373Y013621D03*
X004373Y013664D03*
X004373Y013708D03*
X004373Y013756D03*
X004373Y013799D03*
X004373Y013843D03*
X004373Y013891D03*
X004373Y013934D03*
X004373Y013978D03*
X004373Y014026D03*
X004373Y014069D03*
X004373Y014113D03*
X004373Y014161D03*
X004373Y014204D03*
X004373Y014248D03*
X004373Y014296D03*
X004373Y014339D03*
X004373Y014383D03*
X004373Y014431D03*
X004373Y014474D03*
X001770Y015419D03*
X004826Y012541D03*
D199*
X006109Y010964D03*
X005974Y015419D03*
D200*
X005998Y015398D03*
X006003Y015392D03*
X006009Y015387D03*
X006014Y015382D03*
X006025Y015371D03*
X001494Y015133D03*
X001489Y015128D03*
X001484Y015122D03*
X001478Y015117D03*
X001473Y015112D03*
X001467Y015101D03*
X001462Y015095D03*
X001457Y015090D03*
X002882Y012476D03*
X002882Y012471D03*
X004805Y012460D03*
X004805Y012455D03*
X006095Y012104D03*
X005728Y011672D03*
X006144Y011002D03*
X006138Y010997D03*
X006133Y010991D03*
X006128Y010986D03*
X006122Y010981D03*
X006117Y010975D03*
X006111Y010970D03*
X001381Y011261D03*
X001365Y011283D03*
X001359Y011288D03*
X001359Y011294D03*
X001354Y011299D03*
X001349Y011305D03*
X001343Y011310D03*
X001343Y011315D03*
X001338Y011321D03*
D201*
X001370Y011278D03*
X005804Y011548D03*
X006149Y011008D03*
X006025Y012223D03*
X001473Y015106D03*
X006020Y015376D03*
D202*
X006033Y015365D03*
X006060Y015338D03*
X001443Y015074D03*
X001438Y015068D03*
X001438Y015063D03*
X001427Y015052D03*
X002885Y012466D03*
X002885Y012460D03*
X004802Y012444D03*
X005801Y011553D03*
X006168Y011029D03*
X006163Y011024D03*
X006157Y011018D03*
X006152Y011013D03*
X001308Y011364D03*
X001297Y011380D03*
X001292Y011386D03*
D203*
X003838Y011110D03*
X003838Y011105D03*
X003838Y011094D03*
X003838Y011089D03*
X003838Y011083D03*
X003838Y011078D03*
X003838Y011072D03*
X003838Y011067D03*
X003838Y011062D03*
X003838Y011051D03*
X003838Y011045D03*
X003838Y011040D03*
X003838Y011035D03*
X003838Y011029D03*
X003838Y011024D03*
D204*
X005736Y011666D03*
X006098Y012109D03*
X006184Y011045D03*
X006179Y011040D03*
X006174Y011035D03*
X001330Y011332D03*
X001324Y011337D03*
X001324Y011342D03*
X001319Y011348D03*
X001314Y011353D03*
X001314Y011359D03*
X001281Y011402D03*
X001405Y015025D03*
X001411Y015031D03*
X001421Y015047D03*
X001449Y015079D03*
X001454Y015085D03*
X006039Y015360D03*
X006044Y015355D03*
X006049Y015349D03*
X006055Y015344D03*
D205*
X006063Y015333D03*
X006074Y015322D03*
X006079Y015317D03*
X006084Y015311D03*
X001419Y015041D03*
X001413Y015036D03*
X001403Y015020D03*
X001392Y015009D03*
X001392Y015004D03*
X001386Y014998D03*
X001381Y014993D03*
X001376Y014987D03*
X001370Y014977D03*
X002888Y012455D03*
X004799Y012439D03*
X004799Y012433D03*
X006030Y012217D03*
X006095Y012115D03*
X005804Y011558D03*
X006236Y011105D03*
X006214Y011078D03*
X006209Y011072D03*
X006203Y011067D03*
X006198Y011062D03*
X006187Y011051D03*
X001300Y011375D03*
X001289Y011391D03*
X001284Y011396D03*
X001278Y011407D03*
X001273Y011418D03*
X001268Y011423D03*
X001262Y011429D03*
X001262Y011434D03*
X001257Y011440D03*
X001251Y011445D03*
X001246Y011456D03*
D206*
X003838Y011099D03*
X003838Y011056D03*
D207*
X006192Y011056D03*
X002888Y012449D03*
X001273Y011413D03*
X001365Y014971D03*
X001397Y015014D03*
X006068Y015328D03*
D208*
X006098Y015301D03*
X006103Y015295D03*
X006109Y015290D03*
X006119Y015279D03*
X006125Y015274D03*
X001373Y014982D03*
X001362Y014966D03*
X001357Y014960D03*
X001351Y014955D03*
X001351Y014950D03*
X001346Y014944D03*
X001340Y014939D03*
X001335Y014933D03*
X001335Y014928D03*
X002890Y012444D03*
X002890Y012439D03*
X004796Y012428D03*
X004796Y012422D03*
X006038Y012212D03*
X005741Y011661D03*
X005801Y011564D03*
X006249Y011121D03*
X006244Y011116D03*
X006238Y011110D03*
X006254Y011126D03*
X006222Y011089D03*
X006217Y011083D03*
X001249Y011450D03*
X001238Y011467D03*
X001238Y011472D03*
X001227Y011483D03*
X001227Y011488D03*
X001222Y011494D03*
X001211Y011510D03*
X001205Y011521D03*
X001200Y011531D03*
D209*
X001233Y011477D03*
X006228Y011094D03*
X001319Y014906D03*
X006093Y015306D03*
D210*
X006114Y015284D03*
X001330Y014923D03*
X001216Y011504D03*
X001243Y011461D03*
X006233Y011099D03*
D211*
X003846Y011126D03*
X003846Y011132D03*
D212*
X005750Y011656D03*
X005804Y011569D03*
X006095Y012120D03*
X006047Y012206D03*
X004794Y012412D03*
X004794Y012417D03*
X002893Y012428D03*
X002893Y012433D03*
X001219Y011499D03*
X001208Y011515D03*
X001203Y011526D03*
X001197Y011537D03*
X001192Y011542D03*
X001187Y011553D03*
X001181Y011558D03*
X001181Y011564D03*
X001176Y011569D03*
X001176Y011575D03*
X001170Y011580D03*
X001165Y011591D03*
X001160Y011602D03*
X001149Y011618D03*
X001143Y011629D03*
X004810Y014545D03*
X004810Y014550D03*
X006128Y015268D03*
X006133Y015263D03*
X006138Y015257D03*
X006144Y015252D03*
X006149Y015247D03*
X006160Y015236D03*
X006165Y015230D03*
X001327Y014917D03*
X001322Y014912D03*
X001316Y014901D03*
X001311Y014896D03*
X001305Y014890D03*
X001305Y014885D03*
X001295Y014874D03*
X001295Y014869D03*
X001289Y014863D03*
X001284Y014858D03*
X001278Y014847D03*
X001273Y014842D03*
X001268Y014831D03*
X001257Y014815D03*
X001246Y014798D03*
X006257Y011132D03*
X006263Y011137D03*
X006273Y011148D03*
X006279Y011153D03*
X006284Y011164D03*
X006290Y011170D03*
X006295Y011175D03*
D213*
X005801Y011537D03*
X002874Y012503D03*
X002874Y012509D03*
X001481Y011137D03*
X001616Y015268D03*
D214*
X001589Y015241D03*
X004818Y014204D03*
X004818Y014161D03*
X004818Y014113D03*
X005925Y015463D03*
X004813Y012493D03*
X006098Y012088D03*
X005715Y011683D03*
X001475Y011143D03*
D215*
X003846Y011143D03*
D216*
X006268Y011143D03*
X001300Y014879D03*
X006155Y015241D03*
D217*
X004648Y016105D03*
X003060Y016100D03*
X003849Y011148D03*
D218*
X003846Y011153D03*
D219*
X003849Y011159D03*
D220*
X005801Y011575D03*
X006098Y012125D03*
X004791Y012401D03*
X002896Y012417D03*
X002896Y012422D03*
X001168Y011585D03*
X001157Y011607D03*
X001151Y011612D03*
X001146Y011623D03*
X001141Y011634D03*
X001135Y011645D03*
X001130Y011650D03*
X001130Y011656D03*
X001124Y011661D03*
X001124Y011666D03*
X001119Y011672D03*
X001108Y011693D03*
X001103Y011704D03*
X001098Y011715D03*
X001092Y011726D03*
X001087Y011737D03*
X004807Y014555D03*
X004807Y014561D03*
X006168Y015225D03*
X006173Y015220D03*
X006179Y015214D03*
X006184Y015209D03*
X006190Y015203D03*
X006195Y015198D03*
X006206Y015182D03*
X006211Y015176D03*
X006217Y015171D03*
X006222Y015166D03*
X001281Y014852D03*
X001265Y014825D03*
X001259Y014820D03*
X001254Y014809D03*
X001249Y014804D03*
X001243Y014793D03*
X001238Y014782D03*
X001233Y014777D03*
X001227Y014766D03*
X001222Y014761D03*
X001216Y014750D03*
X001205Y014734D03*
X006281Y011159D03*
X006298Y011180D03*
X006303Y011186D03*
X006314Y011197D03*
X006314Y011202D03*
X006319Y011207D03*
X006325Y011213D03*
X006330Y011218D03*
D221*
X003846Y011164D03*
D222*
X003849Y011170D03*
D223*
X003846Y011186D03*
D224*
X003849Y011191D03*
D225*
X004791Y012406D03*
X006341Y011234D03*
X006308Y011191D03*
X001162Y011596D03*
X001135Y011639D03*
X001114Y011683D03*
X001238Y014788D03*
X001270Y014836D03*
D226*
X004613Y016111D03*
X003846Y011197D03*
D227*
X003849Y011202D03*
D228*
X003846Y011207D03*
D229*
X003849Y011213D03*
D230*
X003849Y011224D03*
D231*
X005755Y011650D03*
X006344Y011240D03*
X006349Y011245D03*
X006354Y011251D03*
X006371Y011272D03*
X006381Y011288D03*
X006338Y011229D03*
X006333Y011224D03*
X006052Y012201D03*
X004805Y014572D03*
X006203Y015187D03*
X006241Y015144D03*
X006246Y015139D03*
X006263Y015117D03*
X006268Y015112D03*
X001219Y014755D03*
X001208Y014739D03*
X001203Y014728D03*
X001197Y014723D03*
X001197Y014717D03*
X001192Y014712D03*
X001192Y014707D03*
X001181Y014696D03*
X001181Y014690D03*
X001176Y014685D03*
X001176Y014680D03*
X001170Y014674D03*
X001165Y014663D03*
X001057Y011796D03*
X001062Y011785D03*
X001073Y011764D03*
X001079Y011753D03*
X001084Y011742D03*
X001106Y011699D03*
X001111Y011688D03*
X001116Y011677D03*
D232*
X003846Y011229D03*
X003128Y016111D03*
D233*
X001546Y015193D03*
X001508Y015149D03*
X001400Y011234D03*
D234*
X003849Y011234D03*
D235*
X003846Y011240D03*
D236*
X004807Y012466D03*
X004807Y012471D03*
X002879Y012482D03*
X002879Y012487D03*
X001394Y011245D03*
X001389Y011251D03*
X001384Y011256D03*
X001519Y015160D03*
X001519Y015166D03*
X001524Y015171D03*
X001529Y015176D03*
X005979Y015414D03*
X005984Y015409D03*
D237*
X003849Y011245D03*
D238*
X003846Y011251D03*
D239*
X003849Y011256D03*
D240*
X004788Y012390D03*
X004788Y012395D03*
X006095Y012131D03*
X006365Y011267D03*
X006360Y011261D03*
X006360Y011256D03*
X002898Y012412D03*
X001100Y011710D03*
X001095Y011720D03*
X001052Y011807D03*
X001143Y014626D03*
X001230Y014771D03*
X006225Y015160D03*
X006230Y015155D03*
D241*
X003846Y011261D03*
D242*
X003849Y011267D03*
D243*
X003846Y011272D03*
X004564Y016116D03*
D244*
X003849Y011278D03*
D245*
X005768Y011639D03*
X006098Y012136D03*
X006373Y011278D03*
X001049Y011818D03*
X001027Y011866D03*
X001006Y011909D03*
X001087Y014518D03*
X001135Y014609D03*
X006271Y015106D03*
D246*
X003862Y016316D03*
X003846Y011283D03*
D247*
X005731Y011456D03*
X005801Y011580D03*
X005801Y011585D03*
X005763Y011645D03*
X006384Y011294D03*
X006389Y011299D03*
X006395Y011305D03*
X006400Y011315D03*
X006406Y011321D03*
X006416Y011337D03*
X006379Y011283D03*
X006060Y012196D03*
X004786Y012379D03*
X004786Y012385D03*
X002901Y012395D03*
X002901Y012401D03*
X001081Y011747D03*
X001076Y011758D03*
X001070Y011769D03*
X001065Y011780D03*
X001060Y011791D03*
X001054Y011801D03*
X001049Y011812D03*
X001043Y011823D03*
X001043Y011828D03*
X001038Y011834D03*
X001038Y011839D03*
X001033Y011845D03*
X001033Y011850D03*
X001033Y011855D03*
X001027Y011861D03*
X001022Y011872D03*
X001022Y011877D03*
X001016Y011882D03*
X001016Y011888D03*
X001011Y011899D03*
X001000Y011926D03*
X000995Y011936D03*
X001081Y014507D03*
X001092Y014528D03*
X001098Y014539D03*
X001103Y014550D03*
X001108Y014561D03*
X001114Y014572D03*
X001119Y014582D03*
X001124Y014588D03*
X001124Y014593D03*
X001130Y014599D03*
X001130Y014604D03*
X001135Y014615D03*
X001141Y014620D03*
X001146Y014631D03*
X001151Y014636D03*
X001151Y014642D03*
X001157Y014647D03*
X001162Y014658D03*
X001168Y014669D03*
X004802Y014577D03*
X006249Y015133D03*
X006254Y015128D03*
X006260Y015122D03*
X006276Y015101D03*
X006281Y015095D03*
X006287Y015090D03*
X006298Y015074D03*
X006303Y015068D03*
D248*
X003846Y011294D03*
D249*
X003849Y011299D03*
D250*
X003846Y011305D03*
D251*
X003849Y011310D03*
D252*
X006398Y011310D03*
X006419Y011342D03*
X006425Y011348D03*
X006430Y011353D03*
X006430Y011359D03*
X006435Y011364D03*
X006462Y011402D03*
X000998Y011931D03*
X000992Y011942D03*
X000992Y011947D03*
X000987Y011958D03*
X000987Y011963D03*
X000981Y011969D03*
X000981Y011974D03*
X000976Y011980D03*
X000976Y011985D03*
X000949Y012055D03*
X001030Y014399D03*
X001035Y014410D03*
X001041Y014420D03*
X001062Y014469D03*
X001068Y014480D03*
X001073Y014491D03*
X001079Y014496D03*
X001079Y014501D03*
X001084Y014512D03*
X001116Y014577D03*
X004799Y014582D03*
X004799Y014588D03*
X006290Y015085D03*
X006295Y015079D03*
X006306Y015063D03*
X006327Y015036D03*
X006333Y015031D03*
X006338Y015025D03*
X006349Y015009D03*
D253*
X003846Y011315D03*
D254*
X003849Y011321D03*
D255*
X004802Y012449D03*
X001335Y011326D03*
X001303Y011369D03*
X001432Y015058D03*
D256*
X003846Y011326D03*
D257*
X006408Y011326D03*
X000971Y012001D03*
X001046Y014431D03*
X006311Y015058D03*
D258*
X003849Y011332D03*
D259*
X004783Y012368D03*
X004783Y012374D03*
X006095Y012142D03*
X006457Y011396D03*
X006452Y011386D03*
X006446Y011380D03*
X006414Y011332D03*
X002904Y012385D03*
X002904Y012390D03*
X001014Y011893D03*
X001008Y011904D03*
X001003Y011915D03*
X001003Y011920D03*
X000971Y011996D03*
X000965Y012007D03*
X000965Y012012D03*
X000960Y012023D03*
X000960Y012028D03*
X000954Y012039D03*
X001046Y014437D03*
X001052Y014447D03*
X001057Y014458D03*
X001089Y014523D03*
X001095Y014534D03*
X001100Y014545D03*
X001106Y014555D03*
X006317Y015052D03*
X006322Y015047D03*
X006322Y015041D03*
D260*
X003846Y011337D03*
D261*
X003849Y011342D03*
D262*
X003846Y011348D03*
D263*
X003849Y011353D03*
D264*
X003846Y011359D03*
D265*
X003849Y011364D03*
D266*
X003846Y011369D03*
D267*
X006441Y011369D03*
X000987Y011953D03*
X001111Y014566D03*
D268*
X003849Y011375D03*
D269*
X004780Y012363D03*
X005774Y011634D03*
X005801Y011591D03*
X006444Y011375D03*
X006454Y011391D03*
X006465Y011407D03*
X006470Y011418D03*
X006476Y011423D03*
X006481Y011429D03*
X006481Y011434D03*
X006487Y011440D03*
X006492Y011450D03*
X006498Y011456D03*
X006503Y011467D03*
X006514Y011483D03*
X006065Y012190D03*
X002906Y012374D03*
X002906Y012379D03*
X000973Y011990D03*
X000963Y012017D03*
X000957Y012034D03*
X000952Y012050D03*
X000946Y012061D03*
X000946Y012066D03*
X000941Y012071D03*
X000941Y012077D03*
X000941Y012082D03*
X000935Y012093D03*
X000935Y012098D03*
X000930Y012104D03*
X000930Y012109D03*
X000930Y012115D03*
X000925Y012120D03*
X000925Y012125D03*
X000919Y012142D03*
X000914Y012152D03*
X000914Y012158D03*
X000909Y012169D03*
X000909Y012174D03*
X000903Y012190D03*
X000898Y012206D03*
X000881Y012260D03*
X000957Y014221D03*
X000963Y014237D03*
X000973Y014264D03*
X000979Y014275D03*
X000984Y014291D03*
X000989Y014302D03*
X000989Y014307D03*
X000995Y014318D03*
X001000Y014329D03*
X001000Y014334D03*
X001006Y014345D03*
X001011Y014350D03*
X001011Y014356D03*
X001011Y014361D03*
X001016Y014366D03*
X001016Y014372D03*
X001022Y014377D03*
X001027Y014388D03*
X001027Y014393D03*
X001033Y014404D03*
X001038Y014415D03*
X001044Y014426D03*
X001049Y014442D03*
X001054Y014453D03*
X001060Y014464D03*
X001070Y014485D03*
X004796Y014593D03*
X006341Y015020D03*
X006352Y015004D03*
X006357Y014998D03*
X006363Y014993D03*
X006368Y014987D03*
X006368Y014982D03*
X006373Y014977D03*
X006389Y014955D03*
X006406Y014933D03*
D270*
X003846Y011380D03*
D271*
X003849Y011386D03*
D272*
X003846Y011391D03*
D273*
X003849Y011396D03*
D274*
X003849Y011407D03*
D275*
X003846Y011413D03*
D276*
X004780Y012358D03*
X005801Y011596D03*
X006470Y011413D03*
X000952Y012044D03*
X000935Y012088D03*
X000919Y012136D03*
X000892Y012223D03*
X001006Y014339D03*
X001022Y014383D03*
X001065Y014474D03*
X006346Y015014D03*
X006379Y014971D03*
D277*
X003849Y011418D03*
D278*
X003846Y011423D03*
D279*
X003849Y011429D03*
D280*
X003846Y011434D03*
D281*
X003849Y011440D03*
D282*
X003846Y011445D03*
D283*
X004778Y012352D03*
X005782Y011629D03*
X006489Y011445D03*
X006506Y011472D03*
X006511Y011477D03*
X006533Y011510D03*
X006533Y011515D03*
X006538Y011521D03*
X006543Y011531D03*
X006095Y012147D03*
X006095Y012152D03*
X002909Y012363D03*
X002909Y012368D03*
X000922Y012131D03*
X000917Y012147D03*
X000911Y012163D03*
X000906Y012185D03*
X000884Y012244D03*
X000884Y012250D03*
X000884Y012255D03*
X000879Y012266D03*
X000879Y012277D03*
X000873Y012282D03*
X000873Y012287D03*
X000873Y012293D03*
X000868Y012304D03*
X000868Y012309D03*
X000863Y012325D03*
X000863Y012331D03*
X000841Y012412D03*
X000841Y012417D03*
X000836Y012439D03*
X000906Y014075D03*
X000911Y014091D03*
X000917Y014107D03*
X000922Y014123D03*
X000927Y014134D03*
X000927Y014140D03*
X000949Y014194D03*
X000949Y014199D03*
X000954Y014210D03*
X000954Y014215D03*
X000960Y014226D03*
X000960Y014231D03*
X000965Y014242D03*
X000971Y014253D03*
X000971Y014258D03*
X000976Y014269D03*
X000998Y014323D03*
X004794Y014599D03*
X006398Y014944D03*
X006403Y014939D03*
X006408Y014928D03*
X006419Y014912D03*
X006446Y014874D03*
D284*
X003849Y011450D03*
D285*
X005077Y012017D03*
X005790Y011807D03*
X005606Y011450D03*
D286*
X003846Y011456D03*
D287*
X003846Y011461D03*
D288*
X005806Y011461D03*
D289*
X006500Y011461D03*
X000906Y012179D03*
X000879Y012271D03*
X000868Y012314D03*
X000949Y014204D03*
X000965Y014248D03*
X006414Y014923D03*
D290*
X003846Y011472D03*
X003846Y011467D03*
D291*
X003846Y011477D03*
X003846Y011483D03*
D292*
X003846Y011488D03*
X003846Y011494D03*
D293*
X006074Y012185D03*
X006560Y011558D03*
X006522Y011499D03*
X006522Y011494D03*
X006516Y011488D03*
X000900Y012196D03*
X000900Y012201D03*
X000895Y012212D03*
X000895Y012217D03*
X000890Y012228D03*
X000890Y012233D03*
X000890Y012239D03*
X000857Y012347D03*
X000857Y012352D03*
X000852Y012368D03*
X000852Y012374D03*
X000846Y012390D03*
X000846Y012395D03*
X000890Y014021D03*
X000933Y014150D03*
X000933Y014156D03*
X000938Y014167D03*
X000938Y014172D03*
X000944Y014183D03*
X000944Y014188D03*
X000981Y014280D03*
X000981Y014285D03*
X000992Y014312D03*
X006381Y014966D03*
X006387Y014960D03*
X006392Y014950D03*
X006425Y014906D03*
X006435Y014890D03*
D294*
X003846Y011499D03*
D295*
X003846Y011504D03*
D296*
X005804Y011504D03*
D297*
X006527Y011504D03*
X000987Y014296D03*
D298*
X003846Y011515D03*
X003846Y011510D03*
D299*
X003846Y011521D03*
X003846Y011526D03*
D300*
X002912Y012352D03*
X000871Y012298D03*
X000865Y012320D03*
X000860Y012336D03*
X000860Y012341D03*
X000854Y012363D03*
X000849Y012379D03*
X000849Y012385D03*
X000844Y012401D03*
X000838Y012422D03*
X000838Y012428D03*
X000838Y012433D03*
X000833Y012444D03*
X000833Y012455D03*
X000833Y012460D03*
X000828Y012466D03*
X000828Y012471D03*
X000828Y012476D03*
X000828Y012482D03*
X000828Y012487D03*
X000822Y012498D03*
X000822Y012503D03*
X000822Y012509D03*
X000822Y012514D03*
X000817Y012520D03*
X000817Y012525D03*
X000817Y012530D03*
X000817Y012536D03*
X000811Y012547D03*
X000811Y012552D03*
X000811Y012557D03*
X000811Y012563D03*
X000806Y012579D03*
X000806Y012590D03*
X000806Y012595D03*
X000800Y012611D03*
X000800Y012617D03*
X000800Y012622D03*
X000795Y012649D03*
X000795Y012655D03*
X000795Y012660D03*
X000790Y012687D03*
X000790Y012692D03*
X000784Y012725D03*
X000784Y012730D03*
X000779Y012773D03*
X000811Y013697D03*
X000817Y013724D03*
X000822Y013751D03*
X000828Y013778D03*
X000833Y013805D03*
X000838Y013826D03*
X000838Y013832D03*
X000844Y013848D03*
X000844Y013853D03*
X000849Y013870D03*
X000849Y013875D03*
X000854Y013897D03*
X000860Y013913D03*
X000860Y013918D03*
X000865Y013929D03*
X000865Y013940D03*
X000871Y013951D03*
X000871Y013956D03*
X000871Y013961D03*
X000876Y013967D03*
X000876Y013972D03*
X000876Y013983D03*
X000881Y013988D03*
X000881Y013994D03*
X000881Y013999D03*
X000887Y014005D03*
X000887Y014010D03*
X000887Y014015D03*
X000892Y014032D03*
X000892Y014037D03*
X000898Y014042D03*
X000898Y014048D03*
X000898Y014053D03*
X000903Y014059D03*
X000903Y014064D03*
X000909Y014080D03*
X000909Y014086D03*
X000914Y014096D03*
X000914Y014102D03*
X000919Y014118D03*
X000925Y014129D03*
X000930Y014145D03*
X000941Y014177D03*
X004791Y014604D03*
X006416Y014917D03*
X006427Y014901D03*
X006433Y014896D03*
X006438Y014885D03*
X006449Y014869D03*
X006454Y014863D03*
X006460Y014858D03*
X006460Y014852D03*
X006465Y014847D03*
X006470Y014842D03*
X006476Y014831D03*
X006481Y014820D03*
X006487Y014815D03*
X006611Y011650D03*
X006600Y011629D03*
X006595Y011618D03*
X006589Y011612D03*
X006584Y011602D03*
X006579Y011591D03*
X006573Y011585D03*
X006573Y011580D03*
X006568Y011575D03*
X006568Y011569D03*
X006562Y011564D03*
X006557Y011553D03*
X006551Y011542D03*
X006546Y011537D03*
X006541Y011526D03*
X005801Y011602D03*
D301*
X003846Y011537D03*
X003846Y011531D03*
D302*
X003846Y011542D03*
X003295Y016116D03*
D303*
X001189Y011548D03*
D304*
X003846Y011548D03*
D305*
X002912Y012358D03*
X000854Y012358D03*
X000844Y012406D03*
X000833Y012449D03*
X000822Y012493D03*
X000806Y012584D03*
X000833Y013799D03*
X000854Y013891D03*
X000865Y013934D03*
X000876Y013978D03*
X000892Y014026D03*
X000903Y014069D03*
X000919Y014113D03*
X000935Y014161D03*
X006082Y012179D03*
X006605Y011639D03*
X006551Y011548D03*
X006470Y014836D03*
X006444Y014879D03*
D306*
X003846Y011558D03*
X003846Y011553D03*
D307*
X003846Y011575D03*
X003846Y011580D03*
D308*
X003846Y011585D03*
X003846Y011591D03*
D309*
X003846Y011596D03*
D310*
X006581Y011596D03*
X006630Y011683D03*
X006506Y014788D03*
X000841Y013843D03*
X000825Y013756D03*
X000814Y013708D03*
X000798Y013621D03*
X000792Y013573D03*
X000787Y013529D03*
X000782Y013486D03*
X000776Y013438D03*
X000771Y013394D03*
X000765Y013303D03*
X000765Y012946D03*
X000765Y012898D03*
X000771Y012854D03*
X000776Y012811D03*
X000782Y012763D03*
X000787Y012719D03*
X000792Y012676D03*
X000798Y012628D03*
X000814Y012541D03*
D311*
X003846Y011602D03*
D312*
X003846Y011607D03*
X003846Y011612D03*
D313*
X005798Y011607D03*
X006608Y011645D03*
X006657Y011737D03*
X006522Y014755D03*
X006522Y014761D03*
X000852Y013886D03*
X000852Y013880D03*
X000803Y013659D03*
X000803Y013654D03*
X000803Y013648D03*
X000803Y013643D03*
X000803Y013637D03*
X000760Y013249D03*
X000760Y013243D03*
X000760Y013238D03*
X000760Y013232D03*
X000760Y013227D03*
X000760Y013222D03*
X000760Y013211D03*
X000760Y013205D03*
X000760Y013200D03*
X000760Y013195D03*
X000760Y013189D03*
X000760Y013184D03*
X000760Y013178D03*
X000760Y013173D03*
X000760Y013162D03*
X000760Y013157D03*
X000760Y013151D03*
X000760Y013146D03*
X000760Y013141D03*
X000760Y013135D03*
X000760Y013130D03*
X000760Y013119D03*
X000760Y013114D03*
X000760Y013108D03*
X000760Y013103D03*
X000760Y013097D03*
X000760Y013092D03*
X000760Y013087D03*
X000760Y013076D03*
X000760Y013070D03*
X000760Y013065D03*
X000760Y013060D03*
X000760Y013054D03*
X000760Y013049D03*
X000760Y013043D03*
X000760Y013038D03*
X000760Y013027D03*
X000760Y013022D03*
X000760Y013016D03*
X000760Y013011D03*
X000760Y013006D03*
X000760Y013000D03*
X000760Y012995D03*
X000803Y012606D03*
X000803Y012601D03*
D314*
X000809Y012574D03*
X000809Y012568D03*
X000798Y012633D03*
X000798Y012638D03*
X000798Y012644D03*
X000792Y012665D03*
X000792Y012671D03*
X000792Y012682D03*
X000787Y012698D03*
X000787Y012703D03*
X000787Y012709D03*
X000787Y012714D03*
X000782Y012736D03*
X000782Y012741D03*
X000782Y012746D03*
X000782Y012752D03*
X000782Y012757D03*
X000782Y012768D03*
X000776Y012779D03*
X000776Y012784D03*
X000776Y012790D03*
X000776Y012795D03*
X000776Y012800D03*
X000776Y012806D03*
X000776Y012817D03*
X000776Y012822D03*
X000771Y012827D03*
X000771Y012833D03*
X000771Y012838D03*
X000771Y012844D03*
X000771Y012849D03*
X000771Y012860D03*
X000771Y012865D03*
X000771Y012871D03*
X000771Y012876D03*
X000771Y012881D03*
X000771Y012887D03*
X000765Y012903D03*
X000765Y012908D03*
X000765Y012914D03*
X000765Y012919D03*
X000765Y012925D03*
X000765Y012930D03*
X000765Y012935D03*
X000765Y012941D03*
X000765Y012952D03*
X000765Y012957D03*
X000765Y012962D03*
X000765Y013297D03*
X000765Y013308D03*
X000765Y013313D03*
X000765Y013319D03*
X000765Y013324D03*
X000765Y013330D03*
X000765Y013335D03*
X000765Y013340D03*
X000765Y013346D03*
X000771Y013378D03*
X000771Y013384D03*
X000771Y013389D03*
X000771Y013400D03*
X000771Y013405D03*
X000771Y013411D03*
X000771Y013416D03*
X000776Y013443D03*
X000776Y013448D03*
X000776Y013454D03*
X000776Y013459D03*
X000776Y013465D03*
X000776Y013470D03*
X000782Y013492D03*
X000782Y013497D03*
X000782Y013502D03*
X000782Y013508D03*
X000782Y013513D03*
X000782Y013519D03*
X000787Y013535D03*
X000787Y013540D03*
X000787Y013546D03*
X000787Y013551D03*
X000787Y013556D03*
X000792Y013578D03*
X000792Y013583D03*
X000792Y013589D03*
X000792Y013594D03*
X000792Y013600D03*
X000798Y013605D03*
X000798Y013610D03*
X000798Y013616D03*
X000798Y013627D03*
X000798Y013632D03*
X000809Y013670D03*
X000809Y013675D03*
X000809Y013681D03*
X000809Y013686D03*
X000809Y013691D03*
X000814Y013702D03*
X000814Y013713D03*
X000814Y013718D03*
X000819Y013729D03*
X000819Y013735D03*
X000819Y013740D03*
X000819Y013745D03*
X000825Y013762D03*
X000825Y013767D03*
X000825Y013772D03*
X000830Y013783D03*
X000830Y013789D03*
X000830Y013794D03*
X000836Y013810D03*
X000836Y013816D03*
X000836Y013821D03*
X000841Y013837D03*
X000846Y013859D03*
X000846Y013864D03*
X000857Y013902D03*
X000857Y013907D03*
X000863Y013924D03*
X000868Y013945D03*
X005787Y011623D03*
X006587Y011607D03*
X006597Y011623D03*
X006603Y011634D03*
X006614Y011656D03*
X006619Y011661D03*
X006619Y011666D03*
X006624Y011672D03*
X006624Y011677D03*
X006630Y011688D03*
X006635Y011693D03*
X006641Y011704D03*
X006646Y011715D03*
X006651Y011726D03*
X006095Y012158D03*
X006084Y012174D03*
X006560Y014696D03*
X006543Y014723D03*
X006538Y014734D03*
X006533Y014739D03*
X006527Y014750D03*
X006516Y014766D03*
X006511Y014777D03*
X006506Y014782D03*
X006500Y014793D03*
X006495Y014798D03*
X006495Y014804D03*
X006489Y014809D03*
X006479Y014825D03*
D315*
X006514Y014771D03*
X006541Y014728D03*
X006546Y014717D03*
X006551Y014712D03*
X006551Y014707D03*
X006562Y014690D03*
X006568Y014685D03*
X006568Y014680D03*
X006573Y014674D03*
X006573Y014669D03*
X006579Y014663D03*
X006589Y014642D03*
X006600Y014626D03*
X006605Y014615D03*
X006611Y014604D03*
X006093Y012169D03*
X006093Y012163D03*
X005795Y011618D03*
X005801Y011612D03*
X006638Y011699D03*
X006643Y011710D03*
X006649Y011720D03*
X006660Y011742D03*
X006660Y011747D03*
X006665Y011753D03*
X006665Y011758D03*
X006670Y011764D03*
X006670Y011769D03*
X006676Y011780D03*
X006681Y011785D03*
X006681Y011791D03*
X006686Y011796D03*
X006686Y011801D03*
X006692Y011812D03*
X006697Y011823D03*
X006703Y011834D03*
X006708Y011845D03*
X000768Y012892D03*
X000763Y012968D03*
X000763Y012973D03*
X000763Y012979D03*
X000763Y012984D03*
X000763Y013254D03*
X000763Y013265D03*
X000763Y013270D03*
X000763Y013276D03*
X000763Y013281D03*
X000763Y013286D03*
X000763Y013292D03*
X000768Y013357D03*
X000768Y013362D03*
X000768Y013367D03*
X000768Y013373D03*
X000774Y013421D03*
X000774Y013427D03*
X000774Y013432D03*
X000779Y013475D03*
X000779Y013481D03*
X000784Y013524D03*
X000790Y013562D03*
X000790Y013567D03*
D316*
X003846Y011623D03*
X003846Y011618D03*
D317*
X003846Y011629D03*
X003846Y011634D03*
D318*
X003846Y011639D03*
X003841Y013259D03*
X003841Y013303D03*
X003841Y013351D03*
X003841Y013394D03*
X003841Y013438D03*
X003841Y013486D03*
X003841Y013529D03*
D319*
X003841Y013524D03*
X003841Y013519D03*
X003841Y013513D03*
X003841Y013508D03*
X003841Y013502D03*
X003841Y013497D03*
X003841Y013492D03*
X003841Y013481D03*
X003841Y013475D03*
X003841Y013470D03*
X003841Y013465D03*
X003841Y013459D03*
X003841Y013454D03*
X003841Y013448D03*
X003841Y013443D03*
X003841Y013432D03*
X003841Y013427D03*
X003841Y013421D03*
X003841Y013416D03*
X003841Y013411D03*
X003841Y013405D03*
X003841Y013400D03*
X003841Y013389D03*
X003841Y013384D03*
X003841Y013378D03*
X003841Y013373D03*
X003841Y013367D03*
X003841Y013362D03*
X003841Y013357D03*
X003841Y013346D03*
X003841Y013340D03*
X003841Y013335D03*
X003841Y013330D03*
X003841Y013324D03*
X003841Y013319D03*
X003841Y013313D03*
X003841Y013308D03*
X003841Y013297D03*
X003841Y013292D03*
X003841Y013286D03*
X003841Y013281D03*
X003841Y013276D03*
X003841Y013270D03*
X003841Y013265D03*
X003841Y013254D03*
X003841Y013249D03*
X003841Y013243D03*
X003841Y013535D03*
X003841Y013540D03*
X003846Y011645D03*
D320*
X003846Y011650D03*
X003846Y011656D03*
D321*
X003846Y011672D03*
X003846Y011677D03*
D322*
X003846Y011683D03*
D323*
X003846Y011688D03*
D324*
X003846Y011693D03*
X003846Y011699D03*
D325*
X005107Y011969D03*
X005517Y011742D03*
X005566Y011715D03*
X005577Y011710D03*
X005588Y011704D03*
X005598Y011699D03*
X005609Y011693D03*
X005793Y011693D03*
X005906Y012244D03*
X005895Y012250D03*
X005885Y012255D03*
X005836Y012282D03*
X005825Y012287D03*
X006090Y012250D03*
X006090Y012244D03*
D326*
X005795Y011699D03*
X004796Y014631D03*
D327*
X003846Y011704D03*
D328*
X005102Y011974D03*
X005399Y012525D03*
X006090Y012255D03*
X005793Y011704D03*
D329*
X005795Y011710D03*
D330*
X005793Y011715D03*
X006090Y012266D03*
X005393Y012530D03*
D331*
X005401Y012520D03*
X005715Y012347D03*
X005725Y012341D03*
X005736Y012336D03*
X005747Y012331D03*
X005763Y012320D03*
X005785Y012309D03*
X005795Y012304D03*
X005806Y012298D03*
X005817Y012293D03*
X005844Y012277D03*
X005866Y012266D03*
X005876Y012260D03*
X005525Y011737D03*
X005509Y011747D03*
X005499Y011753D03*
X005488Y011758D03*
X005477Y011764D03*
X005466Y011769D03*
X005418Y011796D03*
X005407Y011801D03*
X005547Y011726D03*
X005558Y011720D03*
D332*
X005793Y011720D03*
X005793Y011726D03*
X006090Y012277D03*
X005393Y012536D03*
X004902Y014528D03*
D333*
X004805Y014566D03*
X006198Y015193D03*
X006236Y015149D03*
X001214Y014744D03*
X001160Y014653D03*
X001068Y011774D03*
X001089Y011731D03*
D334*
X003436Y011774D03*
X003457Y011731D03*
X002631Y013394D03*
X002453Y013756D03*
X002431Y013799D03*
X002410Y013843D03*
X002345Y013978D03*
X002253Y014161D03*
X002231Y014204D03*
X002210Y014248D03*
X002188Y014296D03*
X002167Y014339D03*
X002145Y014383D03*
X002118Y014431D03*
X002096Y014474D03*
X002075Y014518D03*
X002053Y014566D03*
X002032Y014609D03*
X002010Y014653D03*
D335*
X002277Y014113D03*
X002299Y014069D03*
X002321Y014026D03*
X002385Y013891D03*
X002477Y013708D03*
X002520Y013621D03*
X002564Y013529D03*
X002612Y013438D03*
X002650Y013351D03*
X003276Y012088D03*
X003320Y012001D03*
X003368Y011909D03*
X003411Y011818D03*
X004238Y011731D03*
X004259Y011774D03*
X004308Y011866D03*
X004329Y011909D03*
X004351Y011953D03*
X005021Y013303D03*
D336*
X005774Y012314D03*
X005855Y012271D03*
X005536Y011731D03*
X005455Y011774D03*
D337*
X005793Y011731D03*
X004810Y014296D03*
X004853Y014339D03*
X004907Y014518D03*
D338*
X004786Y014609D03*
X006530Y014744D03*
X006557Y014701D03*
X006584Y014653D03*
X006676Y011774D03*
X006654Y011731D03*
X000763Y012989D03*
X000763Y013259D03*
X000768Y013351D03*
D339*
X002272Y014123D03*
X002267Y014134D03*
X002261Y014145D03*
X002229Y014210D03*
X002223Y014221D03*
X002218Y014231D03*
X002310Y014048D03*
X002315Y014037D03*
X002358Y013945D03*
X002396Y013870D03*
X002402Y013859D03*
X002407Y013848D03*
X002445Y013772D03*
X002450Y013762D03*
X002488Y013686D03*
X002493Y013675D03*
X002531Y013600D03*
X002531Y013594D03*
X002537Y013589D03*
X002537Y013583D03*
X002542Y013578D03*
X002580Y013502D03*
X002580Y013497D03*
X002585Y013492D03*
X002623Y013416D03*
X002623Y013411D03*
X002628Y013400D03*
X002634Y013389D03*
X002666Y013324D03*
X002666Y013319D03*
X002672Y013313D03*
X002672Y013308D03*
X002677Y013297D03*
X003260Y012120D03*
X003303Y012034D03*
X003309Y012023D03*
X003341Y011958D03*
X003347Y011947D03*
X003352Y011942D03*
X003352Y011936D03*
X003390Y011861D03*
X003395Y011855D03*
X003395Y011850D03*
X003433Y011780D03*
X003438Y011769D03*
X003444Y011758D03*
X004243Y011742D03*
X004243Y011737D03*
X004248Y011747D03*
X004248Y011753D03*
X004254Y011758D03*
X004254Y011764D03*
X004286Y011823D03*
X004292Y011834D03*
X004297Y011845D03*
X004335Y011920D03*
X004340Y011931D03*
X005010Y013281D03*
X005010Y013286D03*
X005015Y013292D03*
X005015Y013297D03*
X005053Y013367D03*
X005058Y013378D03*
X005064Y013389D03*
D340*
X004740Y014231D03*
X004745Y014237D03*
X004778Y014264D03*
X004783Y014269D03*
X004788Y014275D03*
X004794Y014280D03*
X004799Y014285D03*
X004805Y014291D03*
X004815Y014302D03*
X004821Y014307D03*
X004826Y014312D03*
X004832Y014318D03*
X004837Y014323D03*
X004842Y014329D03*
X004848Y014334D03*
X004859Y014350D03*
X004864Y014356D03*
X004869Y014361D03*
X005096Y011985D03*
X005793Y011737D03*
D341*
X005793Y011742D03*
X004891Y014393D03*
X004896Y014404D03*
X004902Y014415D03*
X004902Y014420D03*
X004907Y014426D03*
X004913Y014442D03*
X004913Y014447D03*
X004913Y014453D03*
X004913Y014458D03*
X004913Y014464D03*
X004913Y014469D03*
X004913Y014480D03*
X004913Y014485D03*
X004913Y014491D03*
X004913Y014496D03*
X004913Y014501D03*
X004799Y014636D03*
D342*
X004910Y014437D03*
X005385Y012547D03*
X006087Y012304D03*
X006087Y012298D03*
X005790Y011747D03*
D343*
X005793Y011753D03*
X005091Y011996D03*
D344*
X005790Y011758D03*
X006087Y012309D03*
D345*
X005382Y012552D03*
X005793Y011764D03*
D346*
X005790Y011769D03*
X006087Y012320D03*
D347*
X005790Y011774D03*
D348*
X005447Y011780D03*
X005426Y011791D03*
X005388Y011812D03*
X005366Y011823D03*
X005355Y011828D03*
X005345Y011834D03*
X005328Y011845D03*
X005318Y011850D03*
X005296Y011861D03*
X005237Y011893D03*
X005636Y012390D03*
X005625Y012395D03*
X005615Y012401D03*
X005593Y012412D03*
X005555Y012433D03*
X005544Y012439D03*
X005647Y012385D03*
X005652Y012379D03*
X005674Y012368D03*
X005685Y012363D03*
D349*
X005380Y012557D03*
X005083Y012007D03*
X005790Y011780D03*
X004694Y014539D03*
D350*
X005663Y012374D03*
X005706Y012352D03*
X005755Y012325D03*
X005436Y011785D03*
X005399Y011807D03*
X005307Y011855D03*
D351*
X005790Y011785D03*
D352*
X005787Y011791D03*
X006084Y012341D03*
X006084Y012347D03*
X005080Y012012D03*
X004686Y014534D03*
D353*
X005790Y011796D03*
D354*
X005787Y011801D03*
X006084Y012352D03*
X004680Y014528D03*
D355*
X006581Y014658D03*
X006587Y014647D03*
X006592Y014636D03*
X006597Y014631D03*
X006603Y014620D03*
X006614Y014599D03*
X006619Y014593D03*
X006619Y014588D03*
X006624Y014582D03*
X006624Y014577D03*
X006630Y014572D03*
X006635Y014561D03*
X006635Y014555D03*
X006641Y014550D03*
X006646Y014539D03*
X006651Y014528D03*
X006662Y014507D03*
X006749Y011936D03*
X006743Y011926D03*
X006738Y011915D03*
X006732Y011904D03*
X006732Y011899D03*
X006727Y011888D03*
X006722Y011877D03*
X006722Y011872D03*
X006716Y011861D03*
X006711Y011855D03*
X006711Y011850D03*
X006705Y011839D03*
X006700Y011828D03*
X006689Y011807D03*
D356*
X006084Y012363D03*
X005372Y012574D03*
X005075Y012023D03*
X005787Y011812D03*
X004675Y014523D03*
X004799Y014642D03*
D357*
X005223Y013708D03*
X005201Y013664D03*
X005180Y013621D03*
X005153Y013573D03*
X005131Y013529D03*
X005110Y013486D03*
X005088Y013438D03*
X005066Y013394D03*
X005045Y013351D03*
X003182Y012271D03*
X003209Y012223D03*
X003230Y012179D03*
X003252Y012136D03*
X004284Y011818D03*
X004375Y012001D03*
X004397Y012044D03*
X004419Y012088D03*
D358*
X005285Y011866D03*
X005377Y011818D03*
X005696Y012358D03*
X005604Y012406D03*
D359*
X005787Y011818D03*
X004670Y014518D03*
D360*
X006608Y014609D03*
X006630Y014566D03*
X006657Y014518D03*
X006754Y011953D03*
X006738Y011909D03*
X006716Y011866D03*
X006695Y011818D03*
D361*
X006084Y012374D03*
X005366Y012579D03*
X005787Y011823D03*
D362*
X004462Y012174D03*
X004456Y012163D03*
X004451Y012152D03*
X004445Y012142D03*
X004440Y012131D03*
X004435Y012120D03*
X004435Y012115D03*
X004429Y012109D03*
X004429Y012104D03*
X004424Y012098D03*
X004424Y012093D03*
X004419Y012082D03*
X004413Y012077D03*
X004413Y012071D03*
X004408Y012066D03*
X004408Y012061D03*
X004402Y012055D03*
X004402Y012050D03*
X004397Y012039D03*
X004391Y012034D03*
X004391Y012028D03*
X004386Y012023D03*
X004386Y012017D03*
X004381Y012012D03*
X004381Y012007D03*
X004370Y011990D03*
X004364Y011980D03*
X004359Y011969D03*
X004354Y011958D03*
X004348Y011947D03*
X004343Y011936D03*
X004338Y011926D03*
X004332Y011915D03*
X004327Y011904D03*
X004321Y011893D03*
X004316Y011882D03*
X004310Y011872D03*
X004305Y011861D03*
X004300Y011850D03*
X004294Y011839D03*
X004289Y011828D03*
X003339Y011963D03*
X003333Y011974D03*
X003328Y011985D03*
X003322Y011996D03*
X003317Y012007D03*
X003311Y012017D03*
X003306Y012028D03*
X003301Y012039D03*
X003295Y012050D03*
X003290Y012061D03*
X003284Y012071D03*
X003279Y012082D03*
X003274Y012093D03*
X003268Y012104D03*
X003263Y012115D03*
X003258Y012125D03*
X003252Y012131D03*
X003247Y012142D03*
X003247Y012147D03*
X003241Y012152D03*
X003241Y012158D03*
X003236Y012163D03*
X003236Y012169D03*
X003230Y012174D03*
X003225Y012185D03*
X003225Y012190D03*
X003220Y012196D03*
X003220Y012201D03*
X003214Y012206D03*
X003214Y012212D03*
X003209Y012217D03*
X003204Y012228D03*
X003204Y012233D03*
X003198Y012239D03*
X003198Y012244D03*
X003193Y012250D03*
X003193Y012255D03*
X003187Y012260D03*
X003187Y012266D03*
X003182Y012277D03*
X003176Y012287D03*
X002680Y013286D03*
X002680Y013292D03*
X005007Y013276D03*
X005007Y013270D03*
X005039Y013340D03*
X005050Y013362D03*
X005056Y013373D03*
X005061Y013384D03*
X005072Y013405D03*
X005077Y013416D03*
X005083Y013427D03*
X005094Y013448D03*
X005094Y013454D03*
X005099Y013459D03*
X005099Y013465D03*
X005104Y013470D03*
X005104Y013475D03*
X005110Y013481D03*
X005115Y013492D03*
X005115Y013497D03*
X005120Y013502D03*
X005120Y013508D03*
X005126Y013513D03*
X005126Y013519D03*
X005131Y013524D03*
X005137Y013535D03*
X005137Y013540D03*
X005142Y013546D03*
X005142Y013551D03*
X005148Y013556D03*
X005148Y013562D03*
X005153Y013567D03*
X005158Y013578D03*
X005158Y013583D03*
X005164Y013589D03*
X005169Y013600D03*
X005174Y013610D03*
X005185Y013632D03*
X005191Y013643D03*
X005196Y013654D03*
X005207Y013675D03*
X005212Y013686D03*
X005218Y013697D03*
X005229Y013718D03*
X005234Y013729D03*
X005239Y013740D03*
X005245Y013751D03*
X005250Y013762D03*
X005255Y013772D03*
X005261Y013783D03*
X005266Y013794D03*
X005272Y013805D03*
X005277Y013816D03*
X005283Y013826D03*
X005288Y013837D03*
D363*
X004664Y014512D03*
X005787Y011834D03*
X005787Y011828D03*
D364*
X005336Y011839D03*
X005277Y011872D03*
X005266Y011877D03*
X005255Y011882D03*
X005245Y011888D03*
X005229Y011899D03*
X005218Y011904D03*
X005196Y011915D03*
X005185Y011920D03*
X005174Y011926D03*
X005137Y011947D03*
X005115Y011958D03*
X005110Y011963D03*
X005434Y012498D03*
X005455Y012487D03*
X005466Y012482D03*
X005482Y012471D03*
X005493Y012466D03*
X005504Y012460D03*
X005515Y012455D03*
X005536Y012444D03*
X005563Y012428D03*
X005574Y012422D03*
X005585Y012417D03*
X005407Y012514D03*
D365*
X005069Y012034D03*
X005787Y011839D03*
D366*
X005785Y011845D03*
X006082Y012395D03*
X006082Y012401D03*
X005358Y012590D03*
X004656Y014501D03*
D367*
X005064Y012039D03*
X005787Y011850D03*
D368*
X003390Y011866D03*
X003347Y011953D03*
X003298Y012044D03*
X002677Y013303D03*
X002585Y013486D03*
X002542Y013573D03*
X002499Y013664D03*
X002364Y013934D03*
D369*
X003841Y014777D03*
X003841Y014782D03*
X003841Y014793D03*
X003841Y014798D03*
X003841Y014804D03*
X003841Y014809D03*
X003841Y014815D03*
X003841Y014820D03*
X003841Y014825D03*
X003841Y014831D03*
X003841Y014842D03*
X003841Y014847D03*
X003841Y014852D03*
X003841Y014858D03*
X003841Y014863D03*
X003841Y014869D03*
X003841Y014874D03*
X003841Y014885D03*
X003841Y014890D03*
X003841Y014896D03*
X003841Y014901D03*
X003841Y014906D03*
X003841Y014912D03*
X003841Y014917D03*
X003841Y014928D03*
X003841Y014933D03*
X003841Y014939D03*
X003841Y014944D03*
X003841Y014950D03*
X003841Y014955D03*
X003841Y014960D03*
X003841Y014966D03*
X003841Y014977D03*
X003841Y014982D03*
X003841Y014987D03*
X003841Y014993D03*
X003841Y014998D03*
X003841Y015004D03*
X003841Y015009D03*
X003841Y015020D03*
X003841Y015025D03*
X003841Y015031D03*
X003841Y015036D03*
X003841Y015041D03*
X003841Y015047D03*
X003841Y015052D03*
X003841Y015063D03*
X003841Y015068D03*
X003841Y015074D03*
X003841Y015079D03*
X003841Y015085D03*
X003841Y015090D03*
X003841Y015095D03*
X003841Y015101D03*
X003841Y015112D03*
X003841Y015117D03*
X003841Y015122D03*
X003841Y015128D03*
X003841Y015133D03*
X003841Y015139D03*
X003841Y015144D03*
X003841Y015155D03*
X003841Y015160D03*
X003841Y015166D03*
X003841Y015171D03*
X003841Y015176D03*
X003841Y015182D03*
X003841Y015187D03*
X003841Y015198D03*
X003841Y015203D03*
X003841Y015209D03*
X003841Y015214D03*
X003841Y015220D03*
X003841Y015225D03*
X003841Y015230D03*
X003841Y015236D03*
X003841Y015247D03*
X003841Y015252D03*
X003841Y015257D03*
X003841Y015263D03*
X003841Y015268D03*
X003841Y015274D03*
X003841Y015279D03*
X003841Y015290D03*
X003841Y015295D03*
X003841Y015301D03*
X003841Y015306D03*
X003841Y015311D03*
X003841Y015317D03*
X003841Y015322D03*
X003841Y015333D03*
X003841Y015338D03*
X003841Y015344D03*
X003841Y015349D03*
X003841Y015355D03*
X003841Y015360D03*
X003841Y015365D03*
X003841Y015371D03*
X003841Y015382D03*
X003841Y015387D03*
X003841Y015392D03*
X003841Y015398D03*
X003841Y015403D03*
X003841Y015409D03*
X003841Y015414D03*
X003841Y015425D03*
X003841Y015430D03*
X003841Y015436D03*
X003841Y015441D03*
X003841Y015446D03*
X003841Y015452D03*
X003841Y015457D03*
X003841Y015468D03*
X003841Y015473D03*
X003841Y015479D03*
X003841Y015484D03*
X003841Y015490D03*
X003841Y015495D03*
X003841Y015500D03*
X003841Y015506D03*
X003841Y015517D03*
X003841Y015522D03*
X003841Y015527D03*
X003841Y015533D03*
X003841Y015538D03*
X003841Y015544D03*
X003841Y015549D03*
X003841Y015560D03*
X003841Y015565D03*
X003841Y015571D03*
X003841Y015576D03*
X003841Y015581D03*
X003841Y015587D03*
X003841Y015592D03*
X003841Y015603D03*
X003841Y015608D03*
X003841Y015614D03*
X003841Y015619D03*
X003841Y015625D03*
X003841Y015630D03*
X003841Y015635D03*
X003841Y015641D03*
X003841Y015652D03*
X003841Y015657D03*
X003841Y015662D03*
X003841Y015668D03*
X003841Y015673D03*
X003841Y015679D03*
X003841Y015684D03*
X003841Y015695D03*
X003841Y015700D03*
X003841Y015706D03*
X003841Y015711D03*
X003841Y015716D03*
X003841Y015722D03*
X003841Y015727D03*
X003841Y015738D03*
X003841Y015743D03*
X003841Y015749D03*
X003841Y015754D03*
X003841Y015760D03*
X003841Y015765D03*
X003841Y015770D03*
X003841Y015776D03*
X003841Y015787D03*
X003841Y015792D03*
X003841Y015797D03*
X003841Y015803D03*
X003841Y015808D03*
X003841Y015814D03*
X003841Y015819D03*
X003841Y015830D03*
X003841Y015835D03*
X003841Y015841D03*
X003841Y015846D03*
X003841Y015851D03*
X003841Y015857D03*
X003841Y015862D03*
X003841Y015873D03*
X003841Y015878D03*
X003841Y015884D03*
X003841Y015889D03*
X003841Y015895D03*
X003841Y015900D03*
X003841Y015905D03*
X003841Y015911D03*
X003841Y015922D03*
X003841Y015927D03*
X003841Y015932D03*
X003841Y015938D03*
X003841Y015943D03*
X003841Y015949D03*
X003841Y015954D03*
X003841Y015965D03*
X003841Y015970D03*
X003841Y015976D03*
X003841Y015981D03*
X003841Y015986D03*
X003841Y015992D03*
X003841Y015997D03*
X003841Y016008D03*
X003841Y016013D03*
X003841Y016019D03*
X003841Y016024D03*
X003841Y016030D03*
X003841Y016035D03*
X003841Y016040D03*
X003841Y016046D03*
X003841Y016057D03*
X003841Y016062D03*
X003841Y016067D03*
X003841Y016073D03*
X003841Y016078D03*
X003841Y016084D03*
X003841Y016089D03*
X003841Y016100D03*
X003841Y016105D03*
X003841Y016111D03*
X006643Y014545D03*
X006649Y014534D03*
X006665Y014501D03*
X006665Y014496D03*
X006670Y014491D03*
X006670Y014485D03*
X006676Y014480D03*
X006681Y014469D03*
X006681Y014464D03*
X006686Y014458D03*
X006686Y014453D03*
X006692Y014447D03*
X006692Y014442D03*
X006708Y014410D03*
X006714Y014399D03*
X006724Y014372D03*
X006730Y014361D03*
X006800Y012071D03*
X006784Y012028D03*
X006784Y012023D03*
X006778Y012017D03*
X006778Y012012D03*
X006778Y012007D03*
X006773Y011996D03*
X006768Y011990D03*
X006768Y011985D03*
X006768Y011980D03*
X006762Y011974D03*
X006762Y011969D03*
X006757Y011963D03*
X006757Y011958D03*
X006751Y011947D03*
X006751Y011942D03*
X006730Y011893D03*
X006724Y011882D03*
D370*
X005525Y012449D03*
X005444Y012493D03*
X005126Y011953D03*
X005207Y011909D03*
D371*
X006740Y011920D03*
X006746Y011931D03*
X006789Y012039D03*
X006794Y012055D03*
X006703Y014420D03*
X006659Y014512D03*
X006654Y014523D03*
X003862Y016359D03*
D372*
X005976Y012007D03*
X005166Y011931D03*
D373*
X005156Y011936D03*
X005145Y011942D03*
X005426Y012503D03*
X005415Y012509D03*
X005474Y012476D03*
X004794Y014626D03*
D374*
X005099Y011980D03*
D375*
X005093Y011990D03*
X006087Y012287D03*
X006087Y012293D03*
X004856Y014345D03*
X004872Y014366D03*
X004878Y014372D03*
X004883Y014377D03*
X004888Y014388D03*
X004894Y014399D03*
X004899Y014410D03*
X004910Y014507D03*
X004910Y014512D03*
D376*
X005088Y012001D03*
D377*
X006773Y012001D03*
X006805Y012088D03*
X006676Y014474D03*
X003841Y014788D03*
X003841Y014836D03*
X003841Y014879D03*
X003841Y014923D03*
X003841Y014971D03*
X003841Y015014D03*
X003841Y015058D03*
X003841Y015106D03*
X003841Y015149D03*
X003841Y015193D03*
X003841Y015241D03*
X003841Y015284D03*
X003841Y015328D03*
X003841Y015376D03*
X003841Y015419D03*
X003841Y015463D03*
X003841Y015511D03*
X003841Y015554D03*
X003841Y015598D03*
X003841Y015646D03*
X003841Y015689D03*
X003841Y015733D03*
X003841Y015781D03*
X003841Y015824D03*
X003841Y015868D03*
X003841Y015916D03*
X003841Y015959D03*
X003841Y016003D03*
X003841Y016051D03*
X003841Y016094D03*
D378*
X006082Y012379D03*
X005072Y012028D03*
D379*
X006786Y012034D03*
X006792Y012050D03*
X006797Y012061D03*
X006797Y012066D03*
X006803Y012077D03*
X006803Y012082D03*
X006808Y012093D03*
X006808Y012098D03*
X006813Y012104D03*
X006813Y012109D03*
X006813Y012115D03*
X006819Y012120D03*
X006819Y012125D03*
X006819Y012131D03*
X006824Y012142D03*
X006824Y012147D03*
X006830Y012152D03*
X006830Y012158D03*
X006830Y012163D03*
X006835Y012169D03*
X006835Y012174D03*
X006840Y012190D03*
X006840Y012196D03*
X006846Y012206D03*
X006846Y012212D03*
X006851Y012228D03*
X006857Y012244D03*
X006862Y012260D03*
X006867Y012282D03*
X006786Y014221D03*
X006781Y014231D03*
X006781Y014237D03*
X006770Y014258D03*
X006770Y014264D03*
X006765Y014275D03*
X006759Y014285D03*
X006759Y014291D03*
X006754Y014302D03*
X006754Y014307D03*
X006749Y014312D03*
X006749Y014318D03*
X006743Y014323D03*
X006743Y014329D03*
X006743Y014334D03*
X006738Y014345D03*
X006732Y014350D03*
X006732Y014356D03*
X006727Y014366D03*
X006722Y014377D03*
X006716Y014388D03*
X006716Y014393D03*
X006711Y014404D03*
X006705Y014415D03*
X006700Y014426D03*
X006695Y014437D03*
X004788Y014615D03*
D380*
X006697Y014431D03*
X006789Y012044D03*
D381*
X005004Y013265D03*
X005183Y013627D03*
X005188Y013637D03*
X005193Y013648D03*
X005199Y013659D03*
X005204Y013670D03*
X005226Y013713D03*
X005231Y013724D03*
X005237Y013735D03*
X005242Y013745D03*
X005274Y013810D03*
X005280Y013821D03*
X005285Y013832D03*
X005318Y013897D03*
X005323Y013902D03*
X005323Y013907D03*
X005328Y013913D03*
X005328Y013918D03*
X005334Y013924D03*
X005334Y013929D03*
X005339Y013940D03*
X005361Y013983D03*
X005366Y013988D03*
X005366Y013994D03*
X005372Y013999D03*
X005372Y014005D03*
X005377Y014010D03*
X005377Y014015D03*
X005382Y014021D03*
X005409Y014075D03*
X005409Y014080D03*
X005415Y014086D03*
X005415Y014091D03*
X005420Y014096D03*
X005426Y014107D03*
X002682Y013281D03*
X002682Y013276D03*
X003158Y012325D03*
X003158Y012320D03*
X003163Y012309D03*
X003168Y012304D03*
X003168Y012298D03*
X003174Y012293D03*
X003179Y012282D03*
X004437Y012125D03*
X004470Y012185D03*
X004470Y012190D03*
X004475Y012196D03*
X004475Y012201D03*
X004481Y012206D03*
X004481Y012212D03*
X004508Y012260D03*
X004508Y012266D03*
X004513Y012277D03*
X004518Y012282D03*
X004518Y012287D03*
X004524Y012293D03*
X004524Y012298D03*
X004529Y012304D03*
X004529Y012309D03*
X004551Y012347D03*
D382*
X006824Y012136D03*
X006835Y012179D03*
X006851Y012223D03*
X006792Y014204D03*
X006776Y014248D03*
X006738Y014339D03*
X006722Y014383D03*
D383*
X005382Y014026D03*
X005361Y013978D03*
X005339Y013934D03*
X005318Y013891D03*
X005291Y013843D03*
X005247Y013756D03*
X005004Y013259D03*
X004513Y012271D03*
X004464Y012179D03*
X003163Y012314D03*
D384*
X006838Y012185D03*
X006843Y012201D03*
X006870Y012287D03*
X006870Y012293D03*
X006870Y012298D03*
X006875Y012304D03*
X006875Y012309D03*
X006875Y012320D03*
X006881Y012325D03*
X006881Y012331D03*
X006881Y012336D03*
X006886Y012347D03*
X006886Y012352D03*
X006843Y014053D03*
X006838Y014075D03*
X006832Y014086D03*
X006832Y014091D03*
X006827Y014102D03*
X006827Y014107D03*
X006800Y014177D03*
X006800Y014183D03*
X006800Y014188D03*
X006794Y014194D03*
X006794Y014199D03*
X006789Y014210D03*
X006789Y014215D03*
X006784Y014226D03*
D385*
X006778Y014242D03*
X006773Y014253D03*
X006768Y014269D03*
X006762Y014280D03*
X006805Y014172D03*
X006805Y014167D03*
X006811Y014156D03*
X006811Y014150D03*
X006816Y014140D03*
X006816Y014134D03*
X006821Y014123D03*
X006821Y014118D03*
X006849Y014037D03*
X006854Y014021D03*
X006865Y013983D03*
X006913Y012466D03*
X006908Y012444D03*
X006908Y012439D03*
X006903Y012422D03*
X006903Y012417D03*
X006903Y012412D03*
X006897Y012401D03*
X006897Y012395D03*
X006897Y012390D03*
X006892Y012379D03*
X006892Y012374D03*
X006892Y012368D03*
X006865Y012277D03*
X006865Y012266D03*
X006859Y012255D03*
X006859Y012250D03*
X006854Y012239D03*
X006854Y012233D03*
X006849Y012217D03*
D386*
X006087Y012260D03*
X004888Y014539D03*
D387*
X006087Y012271D03*
D388*
X006865Y012271D03*
X006805Y014161D03*
X006757Y014296D03*
D389*
X004904Y014523D03*
X004769Y014258D03*
X004764Y014253D03*
X004753Y014242D03*
X004732Y014226D03*
X004726Y014221D03*
X006087Y012282D03*
D390*
X006084Y012314D03*
D391*
X006084Y012325D03*
D392*
X006084Y012331D03*
X006084Y012336D03*
X005377Y012563D03*
D393*
X006082Y012358D03*
D394*
X006082Y012368D03*
D395*
X006082Y012385D03*
X006082Y012390D03*
X004661Y014507D03*
D396*
X002898Y012406D03*
X001187Y014701D03*
D397*
X006824Y014113D03*
X006851Y014026D03*
X006867Y013978D03*
X006878Y013934D03*
X006889Y013891D03*
X006900Y013843D03*
X006911Y013799D03*
X006938Y013664D03*
X006975Y012898D03*
X006943Y012628D03*
X006938Y012584D03*
X006927Y012541D03*
X006911Y012449D03*
X006900Y012406D03*
D398*
X002866Y012541D03*
X005814Y015554D03*
D399*
X004883Y014383D03*
X005390Y012541D03*
D400*
X004832Y012563D03*
X004832Y012568D03*
X002855Y012579D03*
X001862Y015500D03*
D401*
X005374Y012568D03*
D402*
X002855Y012584D03*
X001818Y015463D03*
D403*
X005364Y012584D03*
D404*
X006940Y012606D03*
X006956Y012709D03*
X006956Y012714D03*
X006962Y012746D03*
X006962Y012752D03*
X006962Y012757D03*
X006962Y012768D03*
X006967Y012790D03*
X006967Y012795D03*
X006967Y012800D03*
X006967Y012806D03*
X006967Y012817D03*
X006967Y012822D03*
X006973Y012838D03*
X006973Y012844D03*
X006973Y012849D03*
X006973Y012860D03*
X006973Y012865D03*
X006973Y012871D03*
X006973Y012876D03*
X006973Y012881D03*
X006973Y012887D03*
X006973Y012892D03*
X006978Y012903D03*
X006978Y012908D03*
X006978Y012914D03*
X006978Y012919D03*
X006978Y012925D03*
X006978Y012930D03*
X006978Y012935D03*
X006978Y012941D03*
X006978Y012952D03*
X006978Y012957D03*
X006978Y012962D03*
X006978Y012968D03*
X006978Y012973D03*
X006978Y012979D03*
X006983Y013000D03*
X006983Y013006D03*
X006983Y013011D03*
X006983Y013016D03*
X006983Y013022D03*
X006983Y013027D03*
X006983Y013038D03*
X006983Y013043D03*
X006983Y013049D03*
X006983Y013054D03*
X006983Y013060D03*
X006983Y013065D03*
X006983Y013070D03*
X006983Y013076D03*
X006983Y013087D03*
X006983Y013092D03*
X006983Y013097D03*
X006983Y013103D03*
X006983Y013108D03*
X006983Y013114D03*
X006983Y013119D03*
X006983Y013130D03*
X006983Y013135D03*
X006983Y013141D03*
X006983Y013146D03*
X006983Y013151D03*
X006983Y013157D03*
X006983Y013162D03*
X006983Y013173D03*
X006983Y013178D03*
X006983Y013184D03*
X006983Y013189D03*
X006983Y013195D03*
X006983Y013200D03*
X006983Y013205D03*
X006983Y013211D03*
X006983Y013222D03*
X006983Y013227D03*
X006983Y013232D03*
X006983Y013238D03*
X006983Y013243D03*
X006978Y013281D03*
X006978Y013286D03*
X006978Y013292D03*
X006978Y013297D03*
X006978Y013308D03*
X006978Y013313D03*
X006978Y013319D03*
X006978Y013324D03*
X006978Y013330D03*
X006978Y013335D03*
X006978Y013340D03*
X006978Y013346D03*
X006973Y013367D03*
X006973Y013373D03*
X006973Y013378D03*
X006973Y013384D03*
X006973Y013389D03*
X006973Y013400D03*
X006973Y013405D03*
X006973Y013411D03*
X006973Y013416D03*
X006967Y013432D03*
X006967Y013443D03*
X006967Y013448D03*
X006967Y013454D03*
X006967Y013459D03*
X006967Y013465D03*
X006967Y013470D03*
X006962Y013481D03*
X006962Y013492D03*
X006962Y013497D03*
X006962Y013502D03*
X006962Y013508D03*
X006962Y013513D03*
X006962Y013519D03*
X006956Y013524D03*
X006956Y013535D03*
X006956Y013540D03*
X006956Y013546D03*
X006956Y013551D03*
X006956Y013556D03*
X006940Y013637D03*
X006940Y013643D03*
X006940Y013648D03*
X006940Y013654D03*
X006940Y013659D03*
X006935Y013670D03*
X006935Y013675D03*
X006935Y013681D03*
X006935Y013686D03*
X006929Y013702D03*
X006929Y013713D03*
X006929Y013718D03*
X006924Y013729D03*
X006924Y013735D03*
X006924Y013740D03*
X006919Y013762D03*
X006919Y013767D03*
X006913Y013783D03*
X006913Y013789D03*
X006913Y013794D03*
X006892Y013880D03*
X006886Y013902D03*
X006881Y013924D03*
D405*
X004869Y012714D03*
X002817Y012730D03*
X002817Y012736D03*
X002186Y015738D03*
D406*
X004869Y012719D03*
D407*
X006956Y012719D03*
X006962Y012763D03*
X006967Y012811D03*
X006973Y012854D03*
X006978Y012946D03*
X006983Y013033D03*
X006983Y013081D03*
X006983Y013124D03*
X006983Y013168D03*
X006983Y013216D03*
X006978Y013303D03*
X006973Y013394D03*
X006967Y013438D03*
X006962Y013486D03*
X006956Y013529D03*
X006929Y013708D03*
X006919Y013756D03*
D408*
X004880Y012763D03*
X002256Y015781D03*
D409*
X002267Y015787D03*
X002807Y012779D03*
X002807Y012773D03*
D410*
X004891Y012811D03*
X002331Y015824D03*
D411*
X002788Y012854D03*
D412*
X004902Y012854D03*
D413*
X002777Y012898D03*
D414*
X004913Y012898D03*
D415*
X004918Y012914D03*
X004918Y012919D03*
X002769Y012930D03*
X002769Y012935D03*
X002488Y015905D03*
X002499Y015911D03*
D416*
X005150Y015954D03*
X004923Y012941D03*
X004923Y012935D03*
X002763Y012952D03*
X002763Y012957D03*
D417*
X002766Y012946D03*
X002507Y015916D03*
D418*
X005137Y015959D03*
X004926Y012946D03*
D419*
X004926Y012952D03*
X002761Y012962D03*
X002761Y012968D03*
X002534Y015927D03*
D420*
X002555Y015938D03*
X003862Y016348D03*
X005110Y015970D03*
X004931Y012973D03*
X004931Y012968D03*
X002755Y012984D03*
D421*
X004788Y014620D03*
X006965Y013475D03*
X006970Y013427D03*
X006970Y013421D03*
X006975Y013362D03*
X006975Y013357D03*
X006981Y013276D03*
X006981Y013270D03*
X006981Y013265D03*
X006981Y013254D03*
X006981Y013249D03*
X006981Y012995D03*
X006981Y012984D03*
D422*
X002755Y012989D03*
D423*
X004937Y012989D03*
D424*
X006981Y012989D03*
X006981Y013259D03*
X006975Y013351D03*
D425*
X000803Y013664D03*
X000760Y013216D03*
X000760Y013168D03*
X000760Y013124D03*
X000760Y013081D03*
X000760Y013033D03*
D426*
X002744Y013033D03*
D427*
X004948Y013033D03*
D428*
X002739Y013049D03*
X002739Y013054D03*
D429*
X002731Y013081D03*
D430*
X004959Y013081D03*
D431*
X004967Y013108D03*
X004967Y013114D03*
X002720Y013130D03*
D432*
X002720Y013124D03*
D433*
X002715Y013146D03*
X002715Y013151D03*
X004972Y013135D03*
X004972Y013130D03*
X004967Y016024D03*
D434*
X002709Y013168D03*
D435*
X004980Y013168D03*
D436*
X004983Y013173D03*
X004983Y013178D03*
X002704Y013189D03*
X002704Y013195D03*
X004934Y016035D03*
D437*
X004991Y013211D03*
X004991Y013205D03*
X002696Y013222D03*
X002696Y013227D03*
D438*
X002699Y013216D03*
D439*
X004994Y013216D03*
D440*
X004996Y013227D03*
X004996Y013232D03*
X002690Y013243D03*
X002690Y013249D03*
D441*
X002685Y013265D03*
X002685Y013270D03*
X005002Y013254D03*
X005002Y013249D03*
X005423Y014102D03*
X005428Y014118D03*
X005434Y014123D03*
X005434Y014129D03*
X005439Y014134D03*
X005439Y014140D03*
X005444Y014145D03*
X005444Y014150D03*
X005450Y014156D03*
X005455Y014167D03*
X005455Y014172D03*
X005461Y014177D03*
X005461Y014183D03*
X005466Y014188D03*
X005466Y014194D03*
X005471Y014199D03*
X005477Y014210D03*
X005477Y014215D03*
X005482Y014221D03*
X005482Y014226D03*
X005488Y014231D03*
X005488Y014237D03*
X005493Y014242D03*
X005499Y014253D03*
X005499Y014258D03*
X005504Y014264D03*
X005504Y014269D03*
X005509Y014275D03*
X005509Y014280D03*
X005515Y014285D03*
X005515Y014291D03*
X005520Y014302D03*
X005525Y014307D03*
X005525Y014312D03*
X005531Y014318D03*
X005531Y014323D03*
X005536Y014329D03*
X005536Y014334D03*
X005542Y014345D03*
X005547Y014350D03*
X005553Y014361D03*
X005558Y014372D03*
X005569Y014393D03*
X005574Y014404D03*
X005579Y014415D03*
X005585Y014426D03*
X005590Y014437D03*
X005596Y014447D03*
X005601Y014458D03*
X005606Y014469D03*
X005612Y014480D03*
X005617Y014491D03*
X005623Y014501D03*
X005628Y014512D03*
X005634Y014523D03*
X005639Y014534D03*
X005644Y014545D03*
X005650Y014555D03*
X005660Y014577D03*
X005666Y014588D03*
X005671Y014599D03*
X005709Y014674D03*
D442*
X005701Y014653D03*
X005679Y014609D03*
X005631Y014518D03*
X005609Y014474D03*
X005588Y014431D03*
X002688Y013259D03*
D443*
X005428Y014113D03*
X005450Y014161D03*
X005471Y014204D03*
X005493Y014248D03*
X005520Y014296D03*
X005542Y014339D03*
X005563Y014383D03*
X005655Y014566D03*
X004883Y016051D03*
D444*
X004759Y014248D03*
D445*
X005571Y014399D03*
X005577Y014410D03*
X005620Y014496D03*
X005663Y014582D03*
X005669Y014593D03*
X005706Y014663D03*
X005706Y014669D03*
D446*
X004913Y014474D03*
X004907Y014431D03*
D447*
X004899Y014534D03*
D448*
X002002Y014674D03*
D449*
X003849Y014680D03*
D450*
X003849Y014685D03*
X003849Y014690D03*
D451*
X003849Y014696D03*
D452*
X003849Y014701D03*
D453*
X003849Y014707D03*
X003849Y014712D03*
D454*
X003849Y014717D03*
X003849Y014723D03*
D455*
X003849Y014728D03*
X003849Y014734D03*
D456*
X003849Y014739D03*
D457*
X003849Y014744D03*
D458*
X003849Y014750D03*
X003849Y014755D03*
D459*
X003849Y014761D03*
X003849Y014766D03*
X003849Y014771D03*
D460*
X001908Y015538D03*
D461*
X001983Y015598D03*
D462*
X005760Y015598D03*
D463*
X005488Y015781D03*
X002113Y015689D03*
D464*
X005412Y015824D03*
D465*
X002715Y016003D03*
D466*
X002861Y016051D03*
D467*
X002879Y016057D03*
D468*
X002917Y016067D03*
D469*
X002936Y016073D03*
D470*
X002960Y016078D03*
X004737Y016089D03*
D471*
X004783Y016078D03*
D472*
X003031Y016094D03*
D473*
X004710Y016094D03*
D474*
X003862Y016132D03*
D475*
X003862Y016138D03*
D476*
X003862Y016181D03*
D477*
X003862Y016186D03*
D478*
X003865Y016224D03*
D479*
X003862Y016229D03*
D480*
X003862Y016246D03*
D481*
X003862Y016267D03*
D482*
X003862Y016273D03*
D483*
X003862Y016283D03*
D484*
X003862Y016321D03*
D485*
X003865Y016332D03*
D486*
X016351Y020442D02*
X016351Y020922D01*
X017351Y020922D02*
X017351Y020442D01*
X018351Y020442D02*
X018351Y020922D01*
X019351Y020922D02*
X019351Y020442D01*
X020351Y020442D02*
X020351Y020922D01*
X021351Y020922D02*
X021351Y020442D01*
D487*
X002920Y005510D02*
X002320Y005510D01*
X004880Y005510D02*
X005480Y005510D01*
X005480Y007290D02*
X004880Y007290D01*
X002920Y007290D02*
X002320Y007290D01*
X009320Y007290D02*
X009920Y007290D01*
X011880Y007290D02*
X012480Y007290D01*
X012480Y005510D02*
X011880Y005510D01*
X009920Y005510D02*
X009320Y005510D01*
X016320Y005510D02*
X016920Y005510D01*
X018880Y005510D02*
X019480Y005510D01*
X019480Y007290D02*
X018880Y007290D01*
X016920Y007290D02*
X016320Y007290D01*
X023320Y007290D02*
X023920Y007290D01*
X025880Y007290D02*
X026480Y007290D01*
X026480Y005510D02*
X025880Y005510D01*
X023920Y005510D02*
X023320Y005510D01*
X014130Y013610D02*
X013530Y013610D01*
X011570Y013610D02*
X010970Y013610D01*
X010970Y015390D02*
X011570Y015390D01*
X013530Y015390D02*
X014130Y015390D01*
D488*
X014043Y018603D02*
X013687Y018603D01*
X013687Y018997D01*
X014043Y018997D01*
X014043Y018603D01*
X014043Y018641D02*
X013687Y018641D01*
X013687Y018679D02*
X014043Y018679D01*
X014043Y018717D02*
X013687Y018717D01*
X013687Y018755D02*
X014043Y018755D01*
X014043Y018793D02*
X013687Y018793D01*
X013687Y018831D02*
X014043Y018831D01*
X014043Y018869D02*
X013687Y018869D01*
X013687Y018907D02*
X014043Y018907D01*
X014043Y018945D02*
X013687Y018945D01*
X013687Y018983D02*
X014043Y018983D01*
X014357Y018603D02*
X014713Y018603D01*
X014357Y018603D02*
X014357Y018997D01*
X014713Y018997D01*
X014713Y018603D01*
X014713Y018641D02*
X014357Y018641D01*
X014357Y018679D02*
X014713Y018679D01*
X014713Y018717D02*
X014357Y018717D01*
X014357Y018755D02*
X014713Y018755D01*
X014713Y018793D02*
X014357Y018793D01*
X014357Y018831D02*
X014713Y018831D01*
X014713Y018869D02*
X014357Y018869D01*
X014357Y018907D02*
X014713Y018907D01*
X014713Y018945D02*
X014357Y018945D01*
X014357Y018983D02*
X014713Y018983D01*
X012463Y018603D02*
X012107Y018603D01*
X012107Y018997D01*
X012463Y018997D01*
X012463Y018603D01*
X012463Y018641D02*
X012107Y018641D01*
X012107Y018679D02*
X012463Y018679D01*
X012463Y018717D02*
X012107Y018717D01*
X012107Y018755D02*
X012463Y018755D01*
X012463Y018793D02*
X012107Y018793D01*
X012107Y018831D02*
X012463Y018831D01*
X012463Y018869D02*
X012107Y018869D01*
X012107Y018907D02*
X012463Y018907D01*
X012463Y018945D02*
X012107Y018945D01*
X012107Y018983D02*
X012463Y018983D01*
X011793Y018603D02*
X011437Y018603D01*
X011437Y018997D01*
X011793Y018997D01*
X011793Y018603D01*
X011793Y018641D02*
X011437Y018641D01*
X011437Y018679D02*
X011793Y018679D01*
X011793Y018717D02*
X011437Y018717D01*
X011437Y018755D02*
X011793Y018755D01*
X011793Y018793D02*
X011437Y018793D01*
X011437Y018831D02*
X011793Y018831D01*
X011793Y018869D02*
X011437Y018869D01*
X011437Y018907D02*
X011793Y018907D01*
X011793Y018945D02*
X011437Y018945D01*
X011437Y018983D02*
X011793Y018983D01*
X022658Y018643D02*
X023406Y018643D01*
X023406Y017697D01*
X022658Y017697D01*
X022658Y018643D01*
X022658Y017735D02*
X023406Y017735D01*
X023406Y017773D02*
X022658Y017773D01*
X022658Y017811D02*
X023406Y017811D01*
X023406Y017849D02*
X022658Y017849D01*
X022658Y017887D02*
X023406Y017887D01*
X023406Y017925D02*
X022658Y017925D01*
X022658Y017963D02*
X023406Y017963D01*
X023406Y018001D02*
X022658Y018001D01*
X022658Y018039D02*
X023406Y018039D01*
X023406Y018077D02*
X022658Y018077D01*
X022658Y018115D02*
X023406Y018115D01*
X023406Y018153D02*
X022658Y018153D01*
X022658Y018191D02*
X023406Y018191D01*
X023406Y018229D02*
X022658Y018229D01*
X022658Y018267D02*
X023406Y018267D01*
X023406Y018305D02*
X022658Y018305D01*
X022658Y018343D02*
X023406Y018343D01*
X023406Y018381D02*
X022658Y018381D01*
X022658Y018419D02*
X023406Y018419D01*
X023406Y018457D02*
X022658Y018457D01*
X022658Y018495D02*
X023406Y018495D01*
X023406Y018533D02*
X022658Y018533D01*
X022658Y018571D02*
X023406Y018571D01*
X023406Y018609D02*
X022658Y018609D01*
X024075Y018643D02*
X024233Y018643D01*
X024233Y017303D01*
X024075Y017303D01*
X024075Y018643D01*
X024075Y017341D02*
X024233Y017341D01*
X024233Y017379D02*
X024075Y017379D01*
X024075Y017417D02*
X024233Y017417D01*
X024233Y017455D02*
X024075Y017455D01*
X024075Y017493D02*
X024233Y017493D01*
X024233Y017531D02*
X024075Y017531D01*
X024075Y017569D02*
X024233Y017569D01*
X024233Y017607D02*
X024075Y017607D01*
X024075Y017645D02*
X024233Y017645D01*
X024233Y017683D02*
X024075Y017683D01*
X024075Y017721D02*
X024233Y017721D01*
X024233Y017759D02*
X024075Y017759D01*
X024075Y017797D02*
X024233Y017797D01*
X024233Y017835D02*
X024075Y017835D01*
X024075Y017873D02*
X024233Y017873D01*
X024233Y017911D02*
X024075Y017911D01*
X024075Y017949D02*
X024233Y017949D01*
X024233Y017987D02*
X024075Y017987D01*
X024075Y018025D02*
X024233Y018025D01*
X024233Y018063D02*
X024075Y018063D01*
X024075Y018101D02*
X024233Y018101D01*
X024233Y018139D02*
X024075Y018139D01*
X024075Y018177D02*
X024233Y018177D01*
X024233Y018215D02*
X024075Y018215D01*
X024075Y018253D02*
X024233Y018253D01*
X024233Y018291D02*
X024075Y018291D01*
X024075Y018329D02*
X024233Y018329D01*
X024233Y018367D02*
X024075Y018367D01*
X024075Y018405D02*
X024233Y018405D01*
X024233Y018443D02*
X024075Y018443D01*
X024075Y018481D02*
X024233Y018481D01*
X024233Y018519D02*
X024075Y018519D01*
X024075Y018557D02*
X024233Y018557D01*
X024233Y018595D02*
X024075Y018595D01*
X024075Y018633D02*
X024233Y018633D01*
X024390Y018643D02*
X024548Y018643D01*
X024548Y017303D01*
X024390Y017303D01*
X024390Y018643D01*
X024390Y017341D02*
X024548Y017341D01*
X024548Y017379D02*
X024390Y017379D01*
X024390Y017417D02*
X024548Y017417D01*
X024548Y017455D02*
X024390Y017455D01*
X024390Y017493D02*
X024548Y017493D01*
X024548Y017531D02*
X024390Y017531D01*
X024390Y017569D02*
X024548Y017569D01*
X024548Y017607D02*
X024390Y017607D01*
X024390Y017645D02*
X024548Y017645D01*
X024548Y017683D02*
X024390Y017683D01*
X024390Y017721D02*
X024548Y017721D01*
X024548Y017759D02*
X024390Y017759D01*
X024390Y017797D02*
X024548Y017797D01*
X024548Y017835D02*
X024390Y017835D01*
X024390Y017873D02*
X024548Y017873D01*
X024548Y017911D02*
X024390Y017911D01*
X024390Y017949D02*
X024548Y017949D01*
X024548Y017987D02*
X024390Y017987D01*
X024390Y018025D02*
X024548Y018025D01*
X024548Y018063D02*
X024390Y018063D01*
X024390Y018101D02*
X024548Y018101D01*
X024548Y018139D02*
X024390Y018139D01*
X024390Y018177D02*
X024548Y018177D01*
X024548Y018215D02*
X024390Y018215D01*
X024390Y018253D02*
X024548Y018253D01*
X024548Y018291D02*
X024390Y018291D01*
X024390Y018329D02*
X024548Y018329D01*
X024548Y018367D02*
X024390Y018367D01*
X024390Y018405D02*
X024548Y018405D01*
X024548Y018443D02*
X024390Y018443D01*
X024390Y018481D02*
X024548Y018481D01*
X024548Y018519D02*
X024390Y018519D01*
X024390Y018557D02*
X024548Y018557D01*
X024548Y018595D02*
X024390Y018595D01*
X024390Y018633D02*
X024548Y018633D01*
X024705Y018643D02*
X024863Y018643D01*
X024863Y017303D01*
X024705Y017303D01*
X024705Y018643D01*
X024705Y017341D02*
X024863Y017341D01*
X024863Y017379D02*
X024705Y017379D01*
X024705Y017417D02*
X024863Y017417D01*
X024863Y017455D02*
X024705Y017455D01*
X024705Y017493D02*
X024863Y017493D01*
X024863Y017531D02*
X024705Y017531D01*
X024705Y017569D02*
X024863Y017569D01*
X024863Y017607D02*
X024705Y017607D01*
X024705Y017645D02*
X024863Y017645D01*
X024863Y017683D02*
X024705Y017683D01*
X024705Y017721D02*
X024863Y017721D01*
X024863Y017759D02*
X024705Y017759D01*
X024705Y017797D02*
X024863Y017797D01*
X024863Y017835D02*
X024705Y017835D01*
X024705Y017873D02*
X024863Y017873D01*
X024863Y017911D02*
X024705Y017911D01*
X024705Y017949D02*
X024863Y017949D01*
X024863Y017987D02*
X024705Y017987D01*
X024705Y018025D02*
X024863Y018025D01*
X024863Y018063D02*
X024705Y018063D01*
X024705Y018101D02*
X024863Y018101D01*
X024863Y018139D02*
X024705Y018139D01*
X024705Y018177D02*
X024863Y018177D01*
X024863Y018215D02*
X024705Y018215D01*
X024705Y018253D02*
X024863Y018253D01*
X024863Y018291D02*
X024705Y018291D01*
X024705Y018329D02*
X024863Y018329D01*
X024863Y018367D02*
X024705Y018367D01*
X024705Y018405D02*
X024863Y018405D01*
X024863Y018443D02*
X024705Y018443D01*
X024705Y018481D02*
X024863Y018481D01*
X024863Y018519D02*
X024705Y018519D01*
X024705Y018557D02*
X024863Y018557D01*
X024863Y018595D02*
X024705Y018595D01*
X024705Y018633D02*
X024863Y018633D01*
X025020Y018643D02*
X025178Y018643D01*
X025178Y017303D01*
X025020Y017303D01*
X025020Y018643D01*
X025020Y017341D02*
X025178Y017341D01*
X025178Y017379D02*
X025020Y017379D01*
X025020Y017417D02*
X025178Y017417D01*
X025178Y017455D02*
X025020Y017455D01*
X025020Y017493D02*
X025178Y017493D01*
X025178Y017531D02*
X025020Y017531D01*
X025020Y017569D02*
X025178Y017569D01*
X025178Y017607D02*
X025020Y017607D01*
X025020Y017645D02*
X025178Y017645D01*
X025178Y017683D02*
X025020Y017683D01*
X025020Y017721D02*
X025178Y017721D01*
X025178Y017759D02*
X025020Y017759D01*
X025020Y017797D02*
X025178Y017797D01*
X025178Y017835D02*
X025020Y017835D01*
X025020Y017873D02*
X025178Y017873D01*
X025178Y017911D02*
X025020Y017911D01*
X025020Y017949D02*
X025178Y017949D01*
X025178Y017987D02*
X025020Y017987D01*
X025020Y018025D02*
X025178Y018025D01*
X025178Y018063D02*
X025020Y018063D01*
X025020Y018101D02*
X025178Y018101D01*
X025178Y018139D02*
X025020Y018139D01*
X025020Y018177D02*
X025178Y018177D01*
X025178Y018215D02*
X025020Y018215D01*
X025020Y018253D02*
X025178Y018253D01*
X025178Y018291D02*
X025020Y018291D01*
X025020Y018329D02*
X025178Y018329D01*
X025178Y018367D02*
X025020Y018367D01*
X025020Y018405D02*
X025178Y018405D01*
X025178Y018443D02*
X025020Y018443D01*
X025020Y018481D02*
X025178Y018481D01*
X025178Y018519D02*
X025020Y018519D01*
X025020Y018557D02*
X025178Y018557D01*
X025178Y018595D02*
X025020Y018595D01*
X025020Y018633D02*
X025178Y018633D01*
X025335Y018643D02*
X025493Y018643D01*
X025493Y017303D01*
X025335Y017303D01*
X025335Y018643D01*
X025335Y017341D02*
X025493Y017341D01*
X025493Y017379D02*
X025335Y017379D01*
X025335Y017417D02*
X025493Y017417D01*
X025493Y017455D02*
X025335Y017455D01*
X025335Y017493D02*
X025493Y017493D01*
X025493Y017531D02*
X025335Y017531D01*
X025335Y017569D02*
X025493Y017569D01*
X025493Y017607D02*
X025335Y017607D01*
X025335Y017645D02*
X025493Y017645D01*
X025493Y017683D02*
X025335Y017683D01*
X025335Y017721D02*
X025493Y017721D01*
X025493Y017759D02*
X025335Y017759D01*
X025335Y017797D02*
X025493Y017797D01*
X025493Y017835D02*
X025335Y017835D01*
X025335Y017873D02*
X025493Y017873D01*
X025493Y017911D02*
X025335Y017911D01*
X025335Y017949D02*
X025493Y017949D01*
X025493Y017987D02*
X025335Y017987D01*
X025335Y018025D02*
X025493Y018025D01*
X025493Y018063D02*
X025335Y018063D01*
X025335Y018101D02*
X025493Y018101D01*
X025493Y018139D02*
X025335Y018139D01*
X025335Y018177D02*
X025493Y018177D01*
X025493Y018215D02*
X025335Y018215D01*
X025335Y018253D02*
X025493Y018253D01*
X025493Y018291D02*
X025335Y018291D01*
X025335Y018329D02*
X025493Y018329D01*
X025493Y018367D02*
X025335Y018367D01*
X025335Y018405D02*
X025493Y018405D01*
X025493Y018443D02*
X025335Y018443D01*
X025335Y018481D02*
X025493Y018481D01*
X025493Y018519D02*
X025335Y018519D01*
X025335Y018557D02*
X025493Y018557D01*
X025493Y018595D02*
X025335Y018595D01*
X025335Y018633D02*
X025493Y018633D01*
X026162Y018643D02*
X026910Y018643D01*
X026910Y017697D01*
X026162Y017697D01*
X026162Y018643D01*
X026162Y017735D02*
X026910Y017735D01*
X026910Y017773D02*
X026162Y017773D01*
X026162Y017811D02*
X026910Y017811D01*
X026910Y017849D02*
X026162Y017849D01*
X026162Y017887D02*
X026910Y017887D01*
X026910Y017925D02*
X026162Y017925D01*
X026162Y017963D02*
X026910Y017963D01*
X026910Y018001D02*
X026162Y018001D01*
X026162Y018039D02*
X026910Y018039D01*
X026910Y018077D02*
X026162Y018077D01*
X026162Y018115D02*
X026910Y018115D01*
X026910Y018153D02*
X026162Y018153D01*
X026162Y018191D02*
X026910Y018191D01*
X026910Y018229D02*
X026162Y018229D01*
X026162Y018267D02*
X026910Y018267D01*
X026910Y018305D02*
X026162Y018305D01*
X026162Y018343D02*
X026910Y018343D01*
X026910Y018381D02*
X026162Y018381D01*
X026162Y018419D02*
X026910Y018419D01*
X026910Y018457D02*
X026162Y018457D01*
X026162Y018495D02*
X026910Y018495D01*
X026910Y018533D02*
X026162Y018533D01*
X026162Y018571D02*
X026910Y018571D01*
X026910Y018609D02*
X026162Y018609D01*
X026162Y020808D02*
X026910Y020808D01*
X026910Y019862D01*
X026162Y019862D01*
X026162Y020808D01*
X026162Y019900D02*
X026910Y019900D01*
X026910Y019938D02*
X026162Y019938D01*
X026162Y019976D02*
X026910Y019976D01*
X026910Y020014D02*
X026162Y020014D01*
X026162Y020052D02*
X026910Y020052D01*
X026910Y020090D02*
X026162Y020090D01*
X026162Y020128D02*
X026910Y020128D01*
X026910Y020166D02*
X026162Y020166D01*
X026162Y020204D02*
X026910Y020204D01*
X026910Y020242D02*
X026162Y020242D01*
X026162Y020280D02*
X026910Y020280D01*
X026910Y020318D02*
X026162Y020318D01*
X026162Y020356D02*
X026910Y020356D01*
X026910Y020394D02*
X026162Y020394D01*
X026162Y020432D02*
X026910Y020432D01*
X026910Y020470D02*
X026162Y020470D01*
X026162Y020508D02*
X026910Y020508D01*
X026910Y020546D02*
X026162Y020546D01*
X026162Y020584D02*
X026910Y020584D01*
X026910Y020622D02*
X026162Y020622D01*
X026162Y020660D02*
X026910Y020660D01*
X026910Y020698D02*
X026162Y020698D01*
X026162Y020736D02*
X026910Y020736D01*
X026910Y020774D02*
X026162Y020774D01*
X023406Y020808D02*
X022658Y020808D01*
X023406Y020808D02*
X023406Y019862D01*
X022658Y019862D01*
X022658Y020808D01*
X022658Y019900D02*
X023406Y019900D01*
X023406Y019938D02*
X022658Y019938D01*
X022658Y019976D02*
X023406Y019976D01*
X023406Y020014D02*
X022658Y020014D01*
X022658Y020052D02*
X023406Y020052D01*
X023406Y020090D02*
X022658Y020090D01*
X022658Y020128D02*
X023406Y020128D01*
X023406Y020166D02*
X022658Y020166D01*
X022658Y020204D02*
X023406Y020204D01*
X023406Y020242D02*
X022658Y020242D01*
X022658Y020280D02*
X023406Y020280D01*
X023406Y020318D02*
X022658Y020318D01*
X022658Y020356D02*
X023406Y020356D01*
X023406Y020394D02*
X022658Y020394D01*
X022658Y020432D02*
X023406Y020432D01*
X023406Y020470D02*
X022658Y020470D01*
X022658Y020508D02*
X023406Y020508D01*
X023406Y020546D02*
X022658Y020546D01*
X022658Y020584D02*
X023406Y020584D01*
X023406Y020622D02*
X022658Y020622D01*
X022658Y020660D02*
X023406Y020660D01*
X023406Y020698D02*
X022658Y020698D01*
X022658Y020736D02*
X023406Y020736D01*
X023406Y020774D02*
X022658Y020774D01*
X026347Y016363D02*
X026347Y016007D01*
X025953Y016007D01*
X025953Y016363D01*
X026347Y016363D01*
X026347Y016045D02*
X025953Y016045D01*
X025953Y016083D02*
X026347Y016083D01*
X026347Y016121D02*
X025953Y016121D01*
X025953Y016159D02*
X026347Y016159D01*
X026347Y016197D02*
X025953Y016197D01*
X025953Y016235D02*
X026347Y016235D01*
X026347Y016273D02*
X025953Y016273D01*
X025953Y016311D02*
X026347Y016311D01*
X026347Y016349D02*
X025953Y016349D01*
X026347Y015693D02*
X026347Y015337D01*
X025953Y015337D01*
X025953Y015693D01*
X026347Y015693D01*
X026347Y015375D02*
X025953Y015375D01*
X025953Y015413D02*
X026347Y015413D01*
X026347Y015451D02*
X025953Y015451D01*
X025953Y015489D02*
X026347Y015489D01*
X026347Y015527D02*
X025953Y015527D01*
X025953Y015565D02*
X026347Y015565D01*
X026347Y015603D02*
X025953Y015603D01*
X025953Y015641D02*
X026347Y015641D01*
X026347Y015679D02*
X025953Y015679D01*
X025147Y011313D02*
X025147Y010957D01*
X024753Y010957D01*
X024753Y011313D01*
X025147Y011313D01*
X025147Y010995D02*
X024753Y010995D01*
X024753Y011033D02*
X025147Y011033D01*
X025147Y011071D02*
X024753Y011071D01*
X024753Y011109D02*
X025147Y011109D01*
X025147Y011147D02*
X024753Y011147D01*
X024753Y011185D02*
X025147Y011185D01*
X025147Y011223D02*
X024753Y011223D01*
X024753Y011261D02*
X025147Y011261D01*
X025147Y011299D02*
X024753Y011299D01*
X025147Y010643D02*
X025147Y010287D01*
X024753Y010287D01*
X024753Y010643D01*
X025147Y010643D01*
X025147Y010325D02*
X024753Y010325D01*
X024753Y010363D02*
X025147Y010363D01*
X025147Y010401D02*
X024753Y010401D01*
X024753Y010439D02*
X025147Y010439D01*
X025147Y010477D02*
X024753Y010477D01*
X024753Y010515D02*
X025147Y010515D01*
X025147Y010553D02*
X024753Y010553D01*
X024753Y010591D02*
X025147Y010591D01*
X025147Y010629D02*
X024753Y010629D01*
X028347Y010643D02*
X028347Y010287D01*
X027953Y010287D01*
X027953Y010643D01*
X028347Y010643D01*
X028347Y010325D02*
X027953Y010325D01*
X027953Y010363D02*
X028347Y010363D01*
X028347Y010401D02*
X027953Y010401D01*
X027953Y010439D02*
X028347Y010439D01*
X028347Y010477D02*
X027953Y010477D01*
X027953Y010515D02*
X028347Y010515D01*
X028347Y010553D02*
X027953Y010553D01*
X027953Y010591D02*
X028347Y010591D01*
X028347Y010629D02*
X027953Y010629D01*
X028347Y010957D02*
X028347Y011313D01*
X028347Y010957D02*
X027953Y010957D01*
X027953Y011313D01*
X028347Y011313D01*
X028347Y010995D02*
X027953Y010995D01*
X027953Y011033D02*
X028347Y011033D01*
X028347Y011071D02*
X027953Y011071D01*
X027953Y011109D02*
X028347Y011109D01*
X028347Y011147D02*
X027953Y011147D01*
X027953Y011185D02*
X028347Y011185D01*
X028347Y011223D02*
X027953Y011223D01*
X027953Y011261D02*
X028347Y011261D01*
X028347Y011299D02*
X027953Y011299D01*
X025413Y008597D02*
X025057Y008597D01*
X025413Y008597D02*
X025413Y008203D01*
X025057Y008203D01*
X025057Y008597D01*
X025057Y008241D02*
X025413Y008241D01*
X025413Y008279D02*
X025057Y008279D01*
X025057Y008317D02*
X025413Y008317D01*
X025413Y008355D02*
X025057Y008355D01*
X025057Y008393D02*
X025413Y008393D01*
X025413Y008431D02*
X025057Y008431D01*
X025057Y008469D02*
X025413Y008469D01*
X025413Y008507D02*
X025057Y008507D01*
X025057Y008545D02*
X025413Y008545D01*
X025413Y008583D02*
X025057Y008583D01*
X024743Y008597D02*
X024387Y008597D01*
X024743Y008597D02*
X024743Y008203D01*
X024387Y008203D01*
X024387Y008597D01*
X024387Y008241D02*
X024743Y008241D01*
X024743Y008279D02*
X024387Y008279D01*
X024387Y008317D02*
X024743Y008317D01*
X024743Y008355D02*
X024387Y008355D01*
X024387Y008393D02*
X024743Y008393D01*
X024743Y008431D02*
X024387Y008431D01*
X024387Y008469D02*
X024743Y008469D01*
X024743Y008507D02*
X024387Y008507D01*
X024387Y008545D02*
X024743Y008545D01*
X024743Y008583D02*
X024387Y008583D01*
X018413Y008597D02*
X018057Y008597D01*
X018413Y008597D02*
X018413Y008203D01*
X018057Y008203D01*
X018057Y008597D01*
X018057Y008241D02*
X018413Y008241D01*
X018413Y008279D02*
X018057Y008279D01*
X018057Y008317D02*
X018413Y008317D01*
X018413Y008355D02*
X018057Y008355D01*
X018057Y008393D02*
X018413Y008393D01*
X018413Y008431D02*
X018057Y008431D01*
X018057Y008469D02*
X018413Y008469D01*
X018413Y008507D02*
X018057Y008507D01*
X018057Y008545D02*
X018413Y008545D01*
X018413Y008583D02*
X018057Y008583D01*
X017743Y008597D02*
X017387Y008597D01*
X017743Y008597D02*
X017743Y008203D01*
X017387Y008203D01*
X017387Y008597D01*
X017387Y008241D02*
X017743Y008241D01*
X017743Y008279D02*
X017387Y008279D01*
X017387Y008317D02*
X017743Y008317D01*
X017743Y008355D02*
X017387Y008355D01*
X017387Y008393D02*
X017743Y008393D01*
X017743Y008431D02*
X017387Y008431D01*
X017387Y008469D02*
X017743Y008469D01*
X017743Y008507D02*
X017387Y008507D01*
X017387Y008545D02*
X017743Y008545D01*
X017743Y008583D02*
X017387Y008583D01*
X011413Y008597D02*
X011057Y008597D01*
X011413Y008597D02*
X011413Y008203D01*
X011057Y008203D01*
X011057Y008597D01*
X011057Y008241D02*
X011413Y008241D01*
X011413Y008279D02*
X011057Y008279D01*
X011057Y008317D02*
X011413Y008317D01*
X011413Y008355D02*
X011057Y008355D01*
X011057Y008393D02*
X011413Y008393D01*
X011413Y008431D02*
X011057Y008431D01*
X011057Y008469D02*
X011413Y008469D01*
X011413Y008507D02*
X011057Y008507D01*
X011057Y008545D02*
X011413Y008545D01*
X011413Y008583D02*
X011057Y008583D01*
X010743Y008597D02*
X010387Y008597D01*
X010743Y008597D02*
X010743Y008203D01*
X010387Y008203D01*
X010387Y008597D01*
X010387Y008241D02*
X010743Y008241D01*
X010743Y008279D02*
X010387Y008279D01*
X010387Y008317D02*
X010743Y008317D01*
X010743Y008355D02*
X010387Y008355D01*
X010387Y008393D02*
X010743Y008393D01*
X010743Y008431D02*
X010387Y008431D01*
X010387Y008469D02*
X010743Y008469D01*
X010743Y008507D02*
X010387Y008507D01*
X010387Y008545D02*
X010743Y008545D01*
X010743Y008583D02*
X010387Y008583D01*
X004413Y008597D02*
X004057Y008597D01*
X004413Y008597D02*
X004413Y008203D01*
X004057Y008203D01*
X004057Y008597D01*
X004057Y008241D02*
X004413Y008241D01*
X004413Y008279D02*
X004057Y008279D01*
X004057Y008317D02*
X004413Y008317D01*
X004413Y008355D02*
X004057Y008355D01*
X004057Y008393D02*
X004413Y008393D01*
X004413Y008431D02*
X004057Y008431D01*
X004057Y008469D02*
X004413Y008469D01*
X004413Y008507D02*
X004057Y008507D01*
X004057Y008545D02*
X004413Y008545D01*
X004413Y008583D02*
X004057Y008583D01*
X003743Y008597D02*
X003387Y008597D01*
X003743Y008597D02*
X003743Y008203D01*
X003387Y008203D01*
X003387Y008597D01*
X003387Y008241D02*
X003743Y008241D01*
X003743Y008279D02*
X003387Y008279D01*
X003387Y008317D02*
X003743Y008317D01*
X003743Y008355D02*
X003387Y008355D01*
X003387Y008393D02*
X003743Y008393D01*
X003743Y008431D02*
X003387Y008431D01*
X003387Y008469D02*
X003743Y008469D01*
X003743Y008507D02*
X003387Y008507D01*
X003387Y008545D02*
X003743Y008545D01*
X003743Y008583D02*
X003387Y008583D01*
D489*
X023710Y013015D02*
X024030Y013015D01*
X023710Y013015D02*
X023710Y013135D01*
X024030Y013135D01*
X024030Y013015D01*
X024030Y013054D02*
X023710Y013054D01*
X023710Y013093D02*
X024030Y013093D01*
X024030Y013132D02*
X023710Y013132D01*
X023710Y013265D02*
X024030Y013265D01*
X023710Y013265D02*
X023710Y013385D01*
X024030Y013385D01*
X024030Y013265D01*
X024030Y013304D02*
X023710Y013304D01*
X023710Y013343D02*
X024030Y013343D01*
X024030Y013382D02*
X023710Y013382D01*
X023710Y013515D02*
X024030Y013515D01*
X023710Y013515D02*
X023710Y013635D01*
X024030Y013635D01*
X024030Y013515D01*
X024030Y013554D02*
X023710Y013554D01*
X023710Y013593D02*
X024030Y013593D01*
X024030Y013632D02*
X023710Y013632D01*
X023710Y013765D02*
X024030Y013765D01*
X023710Y013765D02*
X023710Y013885D01*
X024030Y013885D01*
X024030Y013765D01*
X024030Y013804D02*
X023710Y013804D01*
X023710Y013843D02*
X024030Y013843D01*
X024030Y013882D02*
X023710Y013882D01*
X023710Y014015D02*
X024030Y014015D01*
X023710Y014015D02*
X023710Y014135D01*
X024030Y014135D01*
X024030Y014015D01*
X024030Y014054D02*
X023710Y014054D01*
X023710Y014093D02*
X024030Y014093D01*
X024030Y014132D02*
X023710Y014132D01*
X023710Y014265D02*
X024030Y014265D01*
X023710Y014265D02*
X023710Y014385D01*
X024030Y014385D01*
X024030Y014265D01*
X024030Y014304D02*
X023710Y014304D01*
X023710Y014343D02*
X024030Y014343D01*
X024030Y014382D02*
X023710Y014382D01*
X023710Y014515D02*
X024030Y014515D01*
X023710Y014515D02*
X023710Y014635D01*
X024030Y014635D01*
X024030Y014515D01*
X024030Y014554D02*
X023710Y014554D01*
X023710Y014593D02*
X024030Y014593D01*
X024030Y014632D02*
X023710Y014632D01*
X023710Y014765D02*
X024030Y014765D01*
X023710Y014765D02*
X023710Y014885D01*
X024030Y014885D01*
X024030Y014765D01*
X024030Y014804D02*
X023710Y014804D01*
X023710Y014843D02*
X024030Y014843D01*
X024030Y014882D02*
X023710Y014882D01*
X025850Y014765D02*
X026170Y014765D01*
X025850Y014765D02*
X025850Y014885D01*
X026170Y014885D01*
X026170Y014765D01*
X026170Y014804D02*
X025850Y014804D01*
X025850Y014843D02*
X026170Y014843D01*
X026170Y014882D02*
X025850Y014882D01*
X025850Y014515D02*
X026170Y014515D01*
X025850Y014515D02*
X025850Y014635D01*
X026170Y014635D01*
X026170Y014515D01*
X026170Y014554D02*
X025850Y014554D01*
X025850Y014593D02*
X026170Y014593D01*
X026170Y014632D02*
X025850Y014632D01*
X025850Y014265D02*
X026170Y014265D01*
X025850Y014265D02*
X025850Y014385D01*
X026170Y014385D01*
X026170Y014265D01*
X026170Y014304D02*
X025850Y014304D01*
X025850Y014343D02*
X026170Y014343D01*
X026170Y014382D02*
X025850Y014382D01*
X025850Y014015D02*
X026170Y014015D01*
X025850Y014015D02*
X025850Y014135D01*
X026170Y014135D01*
X026170Y014015D01*
X026170Y014054D02*
X025850Y014054D01*
X025850Y014093D02*
X026170Y014093D01*
X026170Y014132D02*
X025850Y014132D01*
X025850Y013765D02*
X026170Y013765D01*
X025850Y013765D02*
X025850Y013885D01*
X026170Y013885D01*
X026170Y013765D01*
X026170Y013804D02*
X025850Y013804D01*
X025850Y013843D02*
X026170Y013843D01*
X026170Y013882D02*
X025850Y013882D01*
X025850Y013515D02*
X026170Y013515D01*
X025850Y013515D02*
X025850Y013635D01*
X026170Y013635D01*
X026170Y013515D01*
X026170Y013554D02*
X025850Y013554D01*
X025850Y013593D02*
X026170Y013593D01*
X026170Y013632D02*
X025850Y013632D01*
X025850Y013265D02*
X026170Y013265D01*
X025850Y013265D02*
X025850Y013385D01*
X026170Y013385D01*
X026170Y013265D01*
X026170Y013304D02*
X025850Y013304D01*
X025850Y013343D02*
X026170Y013343D01*
X026170Y013382D02*
X025850Y013382D01*
X025850Y013015D02*
X026170Y013015D01*
X025850Y013015D02*
X025850Y013135D01*
X026170Y013135D01*
X026170Y013015D01*
X026170Y013054D02*
X025850Y013054D01*
X025850Y013093D02*
X026170Y013093D01*
X026170Y013132D02*
X025850Y013132D01*
D490*
X025898Y012667D02*
X026134Y012667D01*
X026134Y012353D01*
X025898Y012353D01*
X025898Y012667D01*
X025898Y012393D02*
X026134Y012393D01*
X026134Y012433D02*
X025898Y012433D01*
X025898Y012473D02*
X026134Y012473D01*
X026134Y012513D02*
X025898Y012513D01*
X025898Y012553D02*
X026134Y012553D01*
X026134Y012593D02*
X025898Y012593D01*
X025898Y012633D02*
X026134Y012633D01*
X025622Y012667D02*
X025386Y012667D01*
X025622Y012667D02*
X025622Y012353D01*
X025386Y012353D01*
X025386Y012667D01*
X025386Y012393D02*
X025622Y012393D01*
X025622Y012433D02*
X025386Y012433D01*
X025386Y012473D02*
X025622Y012473D01*
X025622Y012513D02*
X025386Y012513D01*
X025386Y012553D02*
X025622Y012553D01*
X025622Y012593D02*
X025386Y012593D01*
X025386Y012633D02*
X025622Y012633D01*
X024514Y012667D02*
X024278Y012667D01*
X024514Y012667D02*
X024514Y012353D01*
X024278Y012353D01*
X024278Y012667D01*
X024278Y012393D02*
X024514Y012393D01*
X024514Y012433D02*
X024278Y012433D01*
X024278Y012473D02*
X024514Y012473D01*
X024514Y012513D02*
X024278Y012513D01*
X024278Y012553D02*
X024514Y012553D01*
X024514Y012593D02*
X024278Y012593D01*
X024278Y012633D02*
X024514Y012633D01*
X024002Y012667D02*
X023766Y012667D01*
X024002Y012667D02*
X024002Y012353D01*
X023766Y012353D01*
X023766Y012667D01*
X023766Y012393D02*
X024002Y012393D01*
X024002Y012433D02*
X023766Y012433D01*
X023766Y012473D02*
X024002Y012473D01*
X024002Y012513D02*
X023766Y012513D01*
X023766Y012553D02*
X024002Y012553D01*
X024002Y012593D02*
X023766Y012593D01*
X023766Y012633D02*
X024002Y012633D01*
X026908Y012470D02*
X026908Y012842D01*
X027292Y012842D01*
X027292Y012470D01*
X026908Y012470D01*
X026908Y012510D02*
X027292Y012510D01*
X027292Y012550D02*
X026908Y012550D01*
X026908Y012590D02*
X027292Y012590D01*
X027292Y012630D02*
X026908Y012630D01*
X026908Y012670D02*
X027292Y012670D01*
X027292Y012710D02*
X026908Y012710D01*
X026908Y012750D02*
X027292Y012750D01*
X027292Y012790D02*
X026908Y012790D01*
X026908Y012830D02*
X027292Y012830D01*
X026908Y013158D02*
X026908Y013530D01*
X027292Y013530D01*
X027292Y013158D01*
X026908Y013158D01*
X026908Y013198D02*
X027292Y013198D01*
X027292Y013238D02*
X026908Y013238D01*
X026908Y013278D02*
X027292Y013278D01*
X027292Y013318D02*
X026908Y013318D01*
X026908Y013358D02*
X027292Y013358D01*
X027292Y013398D02*
X026908Y013398D01*
X026908Y013438D02*
X027292Y013438D01*
X027292Y013478D02*
X026908Y013478D01*
X026908Y013518D02*
X027292Y013518D01*
X027292Y013870D02*
X027292Y014242D01*
X027292Y013870D02*
X026908Y013870D01*
X026908Y014242D01*
X027292Y014242D01*
X027292Y013910D02*
X026908Y013910D01*
X026908Y013950D02*
X027292Y013950D01*
X027292Y013990D02*
X026908Y013990D01*
X026908Y014030D02*
X027292Y014030D01*
X027292Y014070D02*
X026908Y014070D01*
X026908Y014110D02*
X027292Y014110D01*
X027292Y014150D02*
X026908Y014150D01*
X026908Y014190D02*
X027292Y014190D01*
X027292Y014230D02*
X026908Y014230D01*
X027292Y014558D02*
X027292Y014930D01*
X027292Y014558D02*
X026908Y014558D01*
X026908Y014930D01*
X027292Y014930D01*
X027292Y014598D02*
X026908Y014598D01*
X026908Y014638D02*
X027292Y014638D01*
X027292Y014678D02*
X026908Y014678D01*
X026908Y014718D02*
X027292Y014718D01*
X027292Y014758D02*
X026908Y014758D01*
X026908Y014798D02*
X027292Y014798D01*
X027292Y014838D02*
X026908Y014838D01*
X026908Y014878D02*
X027292Y014878D01*
X027292Y014918D02*
X026908Y014918D01*
X027992Y014930D02*
X027992Y014558D01*
X027608Y014558D01*
X027608Y014930D01*
X027992Y014930D01*
X027992Y014598D02*
X027608Y014598D01*
X027608Y014638D02*
X027992Y014638D01*
X027992Y014678D02*
X027608Y014678D01*
X027608Y014718D02*
X027992Y014718D01*
X027992Y014758D02*
X027608Y014758D01*
X027608Y014798D02*
X027992Y014798D01*
X027992Y014838D02*
X027608Y014838D01*
X027608Y014878D02*
X027992Y014878D01*
X027992Y014918D02*
X027608Y014918D01*
X027992Y014242D02*
X027992Y013870D01*
X027608Y013870D01*
X027608Y014242D01*
X027992Y014242D01*
X027992Y013910D02*
X027608Y013910D01*
X027608Y013950D02*
X027992Y013950D01*
X027992Y013990D02*
X027608Y013990D01*
X027608Y014030D02*
X027992Y014030D01*
X027992Y014070D02*
X027608Y014070D01*
X027608Y014110D02*
X027992Y014110D01*
X027992Y014150D02*
X027608Y014150D01*
X027608Y014190D02*
X027992Y014190D01*
X027992Y014230D02*
X027608Y014230D01*
X027030Y016708D02*
X026658Y016708D01*
X026658Y017092D01*
X027030Y017092D01*
X027030Y016708D01*
X027030Y016748D02*
X026658Y016748D01*
X026658Y016788D02*
X027030Y016788D01*
X027030Y016828D02*
X026658Y016828D01*
X026658Y016868D02*
X027030Y016868D01*
X027030Y016908D02*
X026658Y016908D01*
X026658Y016948D02*
X027030Y016948D01*
X027030Y016988D02*
X026658Y016988D01*
X026658Y017028D02*
X027030Y017028D01*
X027030Y017068D02*
X026658Y017068D01*
X026342Y016708D02*
X025970Y016708D01*
X025970Y017092D01*
X026342Y017092D01*
X026342Y016708D01*
X026342Y016748D02*
X025970Y016748D01*
X025970Y016788D02*
X026342Y016788D01*
X026342Y016828D02*
X025970Y016828D01*
X025970Y016868D02*
X026342Y016868D01*
X026342Y016908D02*
X025970Y016908D01*
X025970Y016948D02*
X026342Y016948D01*
X026342Y016988D02*
X025970Y016988D01*
X025970Y017028D02*
X026342Y017028D01*
X026342Y017068D02*
X025970Y017068D01*
X015858Y011980D02*
X015858Y011608D01*
X015858Y011980D02*
X016242Y011980D01*
X016242Y011608D01*
X015858Y011608D01*
X015858Y011648D02*
X016242Y011648D01*
X016242Y011688D02*
X015858Y011688D01*
X015858Y011728D02*
X016242Y011728D01*
X016242Y011768D02*
X015858Y011768D01*
X015858Y011808D02*
X016242Y011808D01*
X016242Y011848D02*
X015858Y011848D01*
X015858Y011888D02*
X016242Y011888D01*
X016242Y011928D02*
X015858Y011928D01*
X015858Y011968D02*
X016242Y011968D01*
X015858Y011292D02*
X015858Y010920D01*
X015858Y011292D02*
X016242Y011292D01*
X016242Y010920D01*
X015858Y010920D01*
X015858Y010960D02*
X016242Y010960D01*
X016242Y011000D02*
X015858Y011000D01*
X015858Y011040D02*
X016242Y011040D01*
X016242Y011080D02*
X015858Y011080D01*
X015858Y011120D02*
X016242Y011120D01*
X016242Y011160D02*
X015858Y011160D01*
X015858Y011200D02*
X016242Y011200D01*
X016242Y011240D02*
X015858Y011240D01*
X015858Y011280D02*
X016242Y011280D01*
D491*
X024462Y015531D02*
X024462Y015805D01*
X024670Y015805D01*
X024670Y015531D01*
X024462Y015531D01*
X024462Y015570D02*
X024670Y015570D01*
X024670Y015609D02*
X024462Y015609D01*
X024462Y015648D02*
X024670Y015648D01*
X024670Y015687D02*
X024462Y015687D01*
X024462Y015726D02*
X024670Y015726D01*
X024670Y015765D02*
X024462Y015765D01*
X024462Y015804D02*
X024670Y015804D01*
X024836Y015805D02*
X024836Y015531D01*
X024836Y015805D02*
X025044Y015805D01*
X025044Y015531D01*
X024836Y015531D01*
X024836Y015570D02*
X025044Y015570D01*
X025044Y015609D02*
X024836Y015609D01*
X024836Y015648D02*
X025044Y015648D01*
X025044Y015687D02*
X024836Y015687D01*
X024836Y015726D02*
X025044Y015726D01*
X025044Y015765D02*
X024836Y015765D01*
X024836Y015804D02*
X025044Y015804D01*
X025210Y015805D02*
X025210Y015531D01*
X025210Y015805D02*
X025418Y015805D01*
X025418Y015531D01*
X025210Y015531D01*
X025210Y015570D02*
X025418Y015570D01*
X025418Y015609D02*
X025210Y015609D01*
X025210Y015648D02*
X025418Y015648D01*
X025418Y015687D02*
X025210Y015687D01*
X025210Y015726D02*
X025418Y015726D01*
X025418Y015765D02*
X025210Y015765D01*
X025210Y015804D02*
X025418Y015804D01*
X025210Y016475D02*
X025210Y016749D01*
X025418Y016749D01*
X025418Y016475D01*
X025210Y016475D01*
X025210Y016514D02*
X025418Y016514D01*
X025418Y016553D02*
X025210Y016553D01*
X025210Y016592D02*
X025418Y016592D01*
X025418Y016631D02*
X025210Y016631D01*
X025210Y016670D02*
X025418Y016670D01*
X025418Y016709D02*
X025210Y016709D01*
X025210Y016748D02*
X025418Y016748D01*
X024836Y016749D02*
X024836Y016475D01*
X024836Y016749D02*
X025044Y016749D01*
X025044Y016475D01*
X024836Y016475D01*
X024836Y016514D02*
X025044Y016514D01*
X025044Y016553D02*
X024836Y016553D01*
X024836Y016592D02*
X025044Y016592D01*
X025044Y016631D02*
X024836Y016631D01*
X024836Y016670D02*
X025044Y016670D01*
X025044Y016709D02*
X024836Y016709D01*
X024836Y016748D02*
X025044Y016748D01*
X024462Y016749D02*
X024462Y016475D01*
X024462Y016749D02*
X024670Y016749D01*
X024670Y016475D01*
X024462Y016475D01*
X024462Y016514D02*
X024670Y016514D01*
X024670Y016553D02*
X024462Y016553D01*
X024462Y016592D02*
X024670Y016592D01*
X024670Y016631D02*
X024462Y016631D01*
X024462Y016670D02*
X024670Y016670D01*
X024670Y016709D02*
X024462Y016709D01*
X024462Y016748D02*
X024670Y016748D01*
D492*
X014200Y019700D03*
X014200Y020700D03*
X011950Y020700D03*
X011950Y019700D03*
X023250Y010800D03*
X024250Y010800D03*
X026450Y010800D03*
X027450Y010800D03*
D493*
X009750Y019050D03*
X008750Y019050D03*
X007750Y019050D03*
X006750Y019050D03*
X005750Y019050D03*
X005750Y020050D03*
X006750Y020050D03*
X007750Y020050D03*
X008750Y020050D03*
X009750Y020050D03*
D494*
X016050Y013000D03*
D495*
X017050Y013000D03*
X018050Y013000D03*
X019050Y013000D03*
X019050Y016000D03*
X018050Y016000D03*
X017050Y016000D03*
X016050Y016000D03*
D496*
X020340Y014755D02*
X020760Y014755D01*
X020340Y014755D02*
X020340Y015345D01*
X020760Y015345D01*
X020760Y014755D01*
X020760Y014795D02*
X020340Y014795D01*
X020340Y014835D02*
X020760Y014835D01*
X020760Y014875D02*
X020340Y014875D01*
X020340Y014915D02*
X020760Y014915D01*
X020760Y014955D02*
X020340Y014955D01*
X020340Y014995D02*
X020760Y014995D01*
X020760Y015035D02*
X020340Y015035D01*
X020340Y015075D02*
X020760Y015075D01*
X020760Y015115D02*
X020340Y015115D01*
X020340Y015155D02*
X020760Y015155D01*
X020760Y015195D02*
X020340Y015195D01*
X020340Y015235D02*
X020760Y015235D01*
X020760Y015275D02*
X020340Y015275D01*
X020340Y015315D02*
X020760Y015315D01*
X020940Y014755D02*
X021360Y014755D01*
X020940Y014755D02*
X020940Y015345D01*
X021360Y015345D01*
X021360Y014755D01*
X021360Y014795D02*
X020940Y014795D01*
X020940Y014835D02*
X021360Y014835D01*
X021360Y014875D02*
X020940Y014875D01*
X020940Y014915D02*
X021360Y014915D01*
X021360Y014955D02*
X020940Y014955D01*
X020940Y014995D02*
X021360Y014995D01*
X021360Y015035D02*
X020940Y015035D01*
X020940Y015075D02*
X021360Y015075D01*
X021360Y015115D02*
X020940Y015115D01*
X020940Y015155D02*
X021360Y015155D01*
X021360Y015195D02*
X020940Y015195D01*
X020940Y015235D02*
X021360Y015235D01*
X021360Y015275D02*
X020940Y015275D01*
X020940Y015315D02*
X021360Y015315D01*
X021360Y013655D02*
X020940Y013655D01*
X020940Y014245D01*
X021360Y014245D01*
X021360Y013655D01*
X021360Y013695D02*
X020940Y013695D01*
X020940Y013735D02*
X021360Y013735D01*
X021360Y013775D02*
X020940Y013775D01*
X020940Y013815D02*
X021360Y013815D01*
X021360Y013855D02*
X020940Y013855D01*
X020940Y013895D02*
X021360Y013895D01*
X021360Y013935D02*
X020940Y013935D01*
X020940Y013975D02*
X021360Y013975D01*
X021360Y014015D02*
X020940Y014015D01*
X020940Y014055D02*
X021360Y014055D01*
X021360Y014095D02*
X020940Y014095D01*
X020940Y014135D02*
X021360Y014135D01*
X021360Y014175D02*
X020940Y014175D01*
X020940Y014215D02*
X021360Y014215D01*
X020760Y013655D02*
X020340Y013655D01*
X020340Y014245D01*
X020760Y014245D01*
X020760Y013655D01*
X020760Y013695D02*
X020340Y013695D01*
X020340Y013735D02*
X020760Y013735D01*
X020760Y013775D02*
X020340Y013775D01*
X020340Y013815D02*
X020760Y013815D01*
X020760Y013855D02*
X020340Y013855D01*
X020340Y013895D02*
X020760Y013895D01*
X020760Y013935D02*
X020340Y013935D01*
X020340Y013975D02*
X020760Y013975D01*
X020760Y014015D02*
X020340Y014015D01*
X020340Y014055D02*
X020760Y014055D01*
X020760Y014095D02*
X020340Y014095D01*
X020340Y014135D02*
X020760Y014135D01*
X020760Y014175D02*
X020340Y014175D01*
X020340Y014215D02*
X020760Y014215D01*
D497*
X020700Y013950D02*
X021000Y013950D01*
X021150Y013950D02*
X022700Y013950D01*
X022800Y014050D01*
X023100Y014100D02*
X023325Y014325D01*
X022025Y014325D01*
X021900Y014450D01*
X022600Y015050D02*
X022825Y014825D01*
X023870Y014825D01*
X023870Y014325D02*
X023325Y014325D01*
X023475Y014075D02*
X023450Y014050D01*
X023475Y014075D02*
X023870Y014075D01*
X023870Y013825D02*
X023575Y013825D01*
X023450Y013700D01*
X023525Y013325D02*
X023300Y013100D01*
X023300Y012200D01*
X023400Y012100D01*
X024800Y012100D01*
X024950Y012250D01*
X024760Y012510D02*
X024396Y012510D01*
X024760Y012510D02*
X024850Y012600D01*
X024850Y014850D01*
X024300Y015400D01*
X024300Y016100D01*
X024566Y016366D01*
X024566Y016612D01*
X024566Y016886D01*
X024784Y017104D01*
X024784Y017973D01*
X025099Y017973D02*
X025099Y017101D01*
X025314Y016886D01*
X025314Y016612D01*
X025314Y016366D01*
X025600Y016080D01*
X025600Y015400D01*
X025050Y014850D01*
X025050Y012600D01*
X025140Y012510D01*
X025504Y012510D01*
X026016Y012510D02*
X026360Y012510D01*
X026400Y012550D01*
X026400Y013000D01*
X026325Y013075D01*
X026010Y013075D01*
X026010Y013325D02*
X026400Y013325D01*
X026400Y013550D01*
X026375Y013575D01*
X026010Y013575D01*
X026010Y013825D02*
X026375Y013825D01*
X026550Y014000D01*
X026750Y014000D01*
X026800Y014050D01*
X027094Y014050D01*
X027100Y014056D01*
X027800Y014056D01*
X028294Y014056D01*
X028600Y014361D01*
X028600Y015000D01*
X028450Y015150D01*
X026200Y015150D01*
X026150Y015200D01*
X026100Y015150D01*
X025700Y015150D01*
X026150Y015200D02*
X026150Y015515D01*
X026150Y016185D02*
X026150Y016894D01*
X026156Y016900D01*
X025650Y016900D01*
X025414Y017136D01*
X025414Y017973D01*
X025712Y017979D02*
X025992Y017979D01*
X025992Y018077D02*
X025712Y018077D01*
X025712Y018176D02*
X026486Y018176D01*
X026486Y018220D02*
X026486Y018120D01*
X025992Y018120D01*
X025992Y017675D01*
X026004Y017632D01*
X026026Y017593D01*
X026058Y017561D01*
X026096Y017539D01*
X026139Y017528D01*
X026486Y017528D01*
X026486Y018120D01*
X026586Y018120D01*
X026586Y018220D01*
X026486Y018220D01*
X026486Y018812D01*
X026139Y018812D01*
X026096Y018800D01*
X026058Y018778D01*
X026026Y018746D01*
X026004Y018708D01*
X025992Y018664D01*
X025992Y018220D01*
X026486Y018220D01*
X026486Y018274D02*
X026586Y018274D01*
X026586Y018220D02*
X026586Y018812D01*
X026932Y018812D01*
X026975Y018800D01*
X027014Y018778D01*
X027046Y018746D01*
X027068Y018708D01*
X027080Y018664D01*
X027080Y018220D01*
X026586Y018220D01*
X026586Y018176D02*
X027550Y018176D01*
X027550Y018274D02*
X027080Y018274D01*
X027080Y018373D02*
X027550Y018373D01*
X027550Y018471D02*
X027080Y018471D01*
X027080Y018570D02*
X027550Y018570D01*
X027550Y018668D02*
X027079Y018668D01*
X027025Y018767D02*
X027550Y018767D01*
X027550Y018865D02*
X025898Y018865D01*
X025864Y018830D02*
X025970Y018936D01*
X026027Y019075D01*
X026027Y019225D01*
X025970Y019364D01*
X025864Y019470D01*
X025725Y019527D01*
X025575Y019527D01*
X025436Y019470D01*
X025330Y019364D01*
X025273Y019225D01*
X025273Y019075D01*
X025330Y018936D01*
X025405Y018862D01*
X024342Y018862D01*
X024339Y018865D01*
X024166Y018865D01*
X024237Y018936D01*
X024295Y019075D01*
X024295Y019225D01*
X024237Y019364D01*
X024131Y019470D01*
X023993Y019527D01*
X023843Y019527D01*
X023704Y019470D01*
X023598Y019364D01*
X023541Y019225D01*
X023541Y019075D01*
X023598Y018936D01*
X023704Y018830D01*
X023843Y018773D01*
X023869Y018773D01*
X023835Y018739D01*
X023835Y017350D01*
X022050Y017350D01*
X022050Y021150D01*
X027550Y021150D01*
X027550Y017350D01*
X025712Y017350D01*
X025712Y018733D01*
X025672Y018773D01*
X025725Y018773D01*
X025864Y018830D01*
X025981Y018964D02*
X027550Y018964D01*
X027550Y019062D02*
X026022Y019062D01*
X026027Y019161D02*
X027550Y019161D01*
X027550Y019259D02*
X026013Y019259D01*
X025972Y019358D02*
X027550Y019358D01*
X027550Y019456D02*
X025877Y019456D01*
X026096Y019704D02*
X026139Y019693D01*
X026486Y019693D01*
X026486Y020285D01*
X026586Y020285D01*
X026586Y020385D01*
X027080Y020385D01*
X027080Y020830D01*
X027068Y020873D01*
X027046Y020912D01*
X027014Y020943D01*
X026975Y020966D01*
X026932Y020977D01*
X026586Y020977D01*
X026586Y020385D01*
X026486Y020385D01*
X026486Y020977D01*
X026139Y020977D01*
X026096Y020966D01*
X026058Y020943D01*
X026026Y020912D01*
X026004Y020873D01*
X025992Y020830D01*
X025992Y020385D01*
X026486Y020385D01*
X026486Y020285D01*
X025992Y020285D01*
X025992Y019840D01*
X026004Y019797D01*
X026026Y019758D01*
X026058Y019727D01*
X026096Y019704D01*
X026033Y019752D02*
X023535Y019752D01*
X023542Y019758D02*
X023564Y019797D01*
X023576Y019840D01*
X023576Y020285D01*
X023082Y020285D01*
X023082Y020385D01*
X023576Y020385D01*
X023576Y020830D01*
X023564Y020873D01*
X023542Y020912D01*
X023510Y020943D01*
X023471Y020966D01*
X023428Y020977D01*
X023082Y020977D01*
X023082Y020385D01*
X022982Y020385D01*
X022982Y020977D01*
X022636Y020977D01*
X022592Y020966D01*
X022554Y020943D01*
X022522Y020912D01*
X022500Y020873D01*
X022488Y020830D01*
X022488Y020385D01*
X022982Y020385D01*
X022982Y020285D01*
X023082Y020285D01*
X023082Y019693D01*
X023428Y019693D01*
X023471Y019704D01*
X023510Y019727D01*
X023542Y019758D01*
X023576Y019850D02*
X025992Y019850D01*
X025992Y019949D02*
X023576Y019949D01*
X023576Y020047D02*
X025992Y020047D01*
X025992Y020146D02*
X023576Y020146D01*
X023576Y020244D02*
X025992Y020244D01*
X025992Y020441D02*
X023576Y020441D01*
X023576Y020540D02*
X025992Y020540D01*
X025992Y020638D02*
X023576Y020638D01*
X023576Y020737D02*
X025992Y020737D01*
X025994Y020835D02*
X023574Y020835D01*
X023520Y020934D02*
X026048Y020934D01*
X026486Y020934D02*
X026586Y020934D01*
X026586Y020835D02*
X026486Y020835D01*
X026486Y020737D02*
X026586Y020737D01*
X026586Y020638D02*
X026486Y020638D01*
X026486Y020540D02*
X026586Y020540D01*
X026586Y020441D02*
X026486Y020441D01*
X026486Y020343D02*
X023082Y020343D01*
X023082Y020441D02*
X022982Y020441D01*
X022982Y020343D02*
X022050Y020343D01*
X022050Y020441D02*
X022488Y020441D01*
X022488Y020540D02*
X022050Y020540D01*
X022050Y020638D02*
X022488Y020638D01*
X022488Y020737D02*
X022050Y020737D01*
X022050Y020835D02*
X022490Y020835D01*
X022544Y020934D02*
X022050Y020934D01*
X022050Y021032D02*
X027550Y021032D01*
X027550Y020934D02*
X027024Y020934D01*
X027078Y020835D02*
X027550Y020835D01*
X027550Y020737D02*
X027080Y020737D01*
X027080Y020638D02*
X027550Y020638D01*
X027550Y020540D02*
X027080Y020540D01*
X027080Y020441D02*
X027550Y020441D01*
X027550Y020343D02*
X026586Y020343D01*
X026586Y020285D02*
X027080Y020285D01*
X027080Y019840D01*
X027068Y019797D01*
X027046Y019758D01*
X027014Y019727D01*
X026975Y019704D01*
X026932Y019693D01*
X026586Y019693D01*
X026586Y020285D01*
X026586Y020244D02*
X026486Y020244D01*
X026486Y020146D02*
X026586Y020146D01*
X026586Y020047D02*
X026486Y020047D01*
X026486Y019949D02*
X026586Y019949D01*
X026586Y019850D02*
X026486Y019850D01*
X026486Y019752D02*
X026586Y019752D01*
X027039Y019752D02*
X027550Y019752D01*
X027550Y019850D02*
X027080Y019850D01*
X027080Y019949D02*
X027550Y019949D01*
X027550Y020047D02*
X027080Y020047D01*
X027080Y020146D02*
X027550Y020146D01*
X027550Y020244D02*
X027080Y020244D01*
X027550Y019653D02*
X022050Y019653D01*
X022050Y019555D02*
X027550Y019555D01*
X026586Y018767D02*
X026486Y018767D01*
X026486Y018668D02*
X026586Y018668D01*
X026586Y018570D02*
X026486Y018570D01*
X026486Y018471D02*
X026586Y018471D01*
X026586Y018373D02*
X026486Y018373D01*
X025992Y018373D02*
X025712Y018373D01*
X025712Y018471D02*
X025992Y018471D01*
X025992Y018570D02*
X025712Y018570D01*
X025712Y018668D02*
X025993Y018668D01*
X026046Y018767D02*
X025679Y018767D01*
X025402Y018865D02*
X024166Y018865D01*
X024249Y018964D02*
X025319Y018964D01*
X025278Y019062D02*
X024290Y019062D01*
X024295Y019161D02*
X025273Y019161D01*
X025287Y019259D02*
X024281Y019259D01*
X024240Y019358D02*
X025328Y019358D01*
X025423Y019456D02*
X024145Y019456D01*
X023690Y019456D02*
X022050Y019456D01*
X022050Y019358D02*
X023595Y019358D01*
X023555Y019259D02*
X022050Y019259D01*
X022050Y019161D02*
X023541Y019161D01*
X023546Y019062D02*
X022050Y019062D01*
X022050Y018964D02*
X023587Y018964D01*
X023669Y018865D02*
X022050Y018865D01*
X022050Y018767D02*
X022542Y018767D01*
X022554Y018778D02*
X022522Y018746D01*
X022500Y018708D01*
X022488Y018664D01*
X022488Y018220D01*
X022982Y018220D01*
X022982Y018812D01*
X022636Y018812D01*
X022592Y018800D01*
X022554Y018778D01*
X022489Y018668D02*
X022050Y018668D01*
X022050Y018570D02*
X022488Y018570D01*
X022488Y018471D02*
X022050Y018471D01*
X022050Y018373D02*
X022488Y018373D01*
X022488Y018274D02*
X022050Y018274D01*
X022050Y018176D02*
X022982Y018176D01*
X022982Y018220D02*
X022982Y018120D01*
X022488Y018120D01*
X022488Y017675D01*
X022500Y017632D01*
X022522Y017593D01*
X022554Y017561D01*
X022592Y017539D01*
X022636Y017528D01*
X022982Y017528D01*
X022982Y018120D01*
X023082Y018120D01*
X023082Y018220D01*
X022982Y018220D01*
X022982Y018274D02*
X023082Y018274D01*
X023082Y018220D02*
X023082Y018812D01*
X023428Y018812D01*
X023471Y018800D01*
X023510Y018778D01*
X023542Y018746D01*
X023564Y018708D01*
X023576Y018664D01*
X023576Y018220D01*
X023082Y018220D01*
X023082Y018176D02*
X023835Y018176D01*
X023835Y018274D02*
X023576Y018274D01*
X023576Y018373D02*
X023835Y018373D01*
X023835Y018471D02*
X023576Y018471D01*
X023576Y018570D02*
X023835Y018570D01*
X023835Y018668D02*
X023575Y018668D01*
X023521Y018767D02*
X023862Y018767D01*
X023082Y018767D02*
X022982Y018767D01*
X022982Y018668D02*
X023082Y018668D01*
X023082Y018570D02*
X022982Y018570D01*
X022982Y018471D02*
X023082Y018471D01*
X023082Y018373D02*
X022982Y018373D01*
X023082Y018120D02*
X023576Y018120D01*
X023576Y017675D01*
X023564Y017632D01*
X023542Y017593D01*
X023510Y017561D01*
X023471Y017539D01*
X023428Y017528D01*
X023082Y017528D01*
X023082Y018120D01*
X023082Y018077D02*
X022982Y018077D01*
X022982Y017979D02*
X023082Y017979D01*
X023082Y017880D02*
X022982Y017880D01*
X022982Y017782D02*
X023082Y017782D01*
X023082Y017683D02*
X022982Y017683D01*
X022982Y017585D02*
X023082Y017585D01*
X022531Y017585D02*
X022050Y017585D01*
X022050Y017683D02*
X022488Y017683D01*
X022488Y017782D02*
X022050Y017782D01*
X022050Y017880D02*
X022488Y017880D01*
X022488Y017979D02*
X022050Y017979D01*
X022050Y018077D02*
X022488Y018077D01*
X022050Y017486D02*
X023835Y017486D01*
X023835Y017388D02*
X022050Y017388D01*
X021351Y017101D02*
X019750Y015500D01*
X019000Y015050D02*
X018050Y016000D01*
X018050Y017750D01*
X017351Y018449D01*
X017351Y020682D01*
X015450Y019450D02*
X015450Y016350D01*
X017050Y016000D02*
X019100Y013950D01*
X020550Y013950D01*
X019750Y013350D02*
X019400Y013000D01*
X019050Y013000D01*
X018350Y012300D01*
X016900Y012300D01*
X016550Y012650D01*
X016550Y013350D01*
X016300Y013600D01*
X013840Y013600D01*
X013830Y013610D01*
X011270Y013610D01*
X015544Y011794D02*
X013050Y009300D01*
X003350Y009300D01*
X003100Y009050D01*
X003100Y008500D01*
X003200Y008400D01*
X003565Y008400D01*
X004235Y008400D02*
X004235Y007290D01*
X002620Y007290D01*
X004235Y007290D02*
X005180Y007290D01*
X004235Y008400D02*
X010565Y008400D01*
X010565Y008865D01*
X010750Y009050D01*
X017650Y009050D01*
X018550Y009950D01*
X018550Y011400D01*
X016050Y011106D02*
X016050Y010650D01*
X016050Y011794D02*
X015544Y011794D01*
X016050Y011794D02*
X023094Y011794D01*
X023100Y011800D01*
X023100Y010950D01*
X023250Y010800D01*
X024250Y010800D02*
X024250Y010400D01*
X024600Y010050D01*
X024950Y010050D01*
X024950Y010465D01*
X024950Y011135D02*
X024950Y011550D01*
X023884Y012510D02*
X023540Y012510D01*
X023500Y012550D01*
X023500Y013000D01*
X023575Y013075D01*
X023870Y013075D01*
X023870Y013325D02*
X023525Y013325D01*
X023100Y014100D02*
X023100Y011900D01*
X026450Y011900D01*
X026450Y010800D01*
X027450Y010800D02*
X027450Y010400D01*
X027800Y010050D01*
X028150Y010050D01*
X028150Y010465D01*
X028150Y011135D02*
X028150Y013400D01*
X027850Y013700D01*
X026650Y013700D01*
X026400Y013325D02*
X027081Y013325D01*
X027100Y013344D01*
X027556Y013344D01*
X027700Y013200D01*
X027700Y012100D01*
X027500Y011900D01*
X026450Y011900D01*
X027100Y012200D02*
X027100Y012656D01*
X026325Y014075D02*
X026550Y014300D01*
X026650Y014300D01*
X026450Y014450D02*
X026450Y014600D01*
X026450Y014450D02*
X026325Y014325D01*
X026010Y014325D01*
X026010Y014075D02*
X026325Y014075D01*
X027100Y014744D02*
X027800Y014744D01*
X028294Y014744D01*
X028300Y014750D01*
X024950Y015300D02*
X024940Y015310D01*
X024940Y015668D01*
X024950Y016150D02*
X024950Y016602D01*
X024940Y016612D01*
X024154Y016954D02*
X024150Y016950D01*
X024154Y016954D02*
X024154Y017973D01*
X023835Y017979D02*
X023576Y017979D01*
X023576Y018077D02*
X023835Y018077D01*
X023835Y017880D02*
X023576Y017880D01*
X023576Y017782D02*
X023835Y017782D01*
X023835Y017683D02*
X023576Y017683D01*
X023533Y017585D02*
X023835Y017585D01*
X025712Y017585D02*
X026035Y017585D01*
X025992Y017683D02*
X025712Y017683D01*
X025712Y017782D02*
X025992Y017782D01*
X025992Y017880D02*
X025712Y017880D01*
X025712Y017486D02*
X027550Y017486D01*
X027550Y017388D02*
X025712Y017388D01*
X026486Y017585D02*
X026586Y017585D01*
X026586Y017528D02*
X026932Y017528D01*
X026975Y017539D01*
X027014Y017561D01*
X027046Y017593D01*
X027068Y017632D01*
X027080Y017675D01*
X027080Y018120D01*
X026586Y018120D01*
X026586Y017528D01*
X026586Y017683D02*
X026486Y017683D01*
X026486Y017782D02*
X026586Y017782D01*
X026586Y017880D02*
X026486Y017880D01*
X026486Y017979D02*
X026586Y017979D01*
X026586Y018077D02*
X026486Y018077D01*
X025992Y018274D02*
X025712Y018274D01*
X027080Y018077D02*
X027550Y018077D01*
X027550Y017979D02*
X027080Y017979D01*
X027080Y017880D02*
X027550Y017880D01*
X027550Y017782D02*
X027080Y017782D01*
X027080Y017683D02*
X027550Y017683D01*
X027550Y017585D02*
X027037Y017585D01*
X026844Y016900D02*
X027300Y016900D01*
X022600Y015050D02*
X021150Y015050D01*
X021000Y015050D02*
X020700Y015050D01*
X020550Y015050D02*
X019000Y015050D01*
X020350Y016750D02*
X020351Y016751D01*
X020351Y020682D01*
X021351Y020682D02*
X021351Y017101D01*
X022592Y019704D02*
X022636Y019693D01*
X022982Y019693D01*
X022982Y020285D01*
X022488Y020285D01*
X022488Y019840D01*
X022500Y019797D01*
X022522Y019758D01*
X022554Y019727D01*
X022592Y019704D01*
X022529Y019752D02*
X022050Y019752D01*
X022050Y019850D02*
X022488Y019850D01*
X022488Y019949D02*
X022050Y019949D01*
X022050Y020047D02*
X022488Y020047D01*
X022488Y020146D02*
X022050Y020146D01*
X022050Y020244D02*
X022488Y020244D01*
X022982Y020244D02*
X023082Y020244D01*
X023082Y020146D02*
X022982Y020146D01*
X022982Y020047D02*
X023082Y020047D01*
X023082Y019949D02*
X022982Y019949D01*
X022982Y019850D02*
X023082Y019850D01*
X023082Y019752D02*
X022982Y019752D01*
X022982Y020540D02*
X023082Y020540D01*
X023082Y020638D02*
X022982Y020638D01*
X022982Y020737D02*
X023082Y020737D01*
X023082Y020835D02*
X022982Y020835D01*
X022982Y020934D02*
X023082Y020934D01*
X022050Y021131D02*
X027550Y021131D01*
X015450Y019450D02*
X014200Y020700D01*
X011950Y020700D01*
X011250Y020200D02*
X013050Y020200D01*
X013550Y019700D01*
X013550Y018800D01*
X013865Y018800D01*
X013550Y018800D02*
X013350Y018600D01*
X013350Y017700D01*
X018050Y013000D01*
X017050Y013000D02*
X017050Y013350D01*
X012150Y018250D01*
X011250Y018250D01*
X011100Y018400D01*
X011100Y018650D01*
X010150Y018650D01*
X009750Y019050D01*
X011100Y018650D02*
X011250Y018800D01*
X011615Y018800D01*
X012285Y018800D02*
X012700Y018800D01*
X012750Y018850D01*
X012750Y019500D01*
X012550Y019700D01*
X011950Y019700D01*
X011250Y020200D02*
X011100Y020050D01*
X009750Y020050D01*
X014200Y019700D02*
X014800Y019700D01*
X015000Y019500D01*
X015000Y018850D01*
X014950Y018800D01*
X014535Y018800D01*
X016050Y013000D02*
X016050Y011794D01*
X017565Y008400D02*
X011235Y008400D01*
X011235Y007290D01*
X011150Y007290D01*
X009620Y007290D01*
X011235Y007290D02*
X012180Y007290D01*
X016620Y007290D02*
X018150Y007290D01*
X018235Y007290D01*
X018235Y008400D01*
X024565Y008400D01*
X025235Y008400D02*
X025235Y007290D01*
X025250Y007290D01*
X026180Y007290D01*
X025235Y007290D02*
X023620Y007290D01*
X019180Y007290D02*
X018235Y007290D01*
X023100Y011800D02*
X023100Y011900D01*
D498*
X024950Y011550D03*
X024950Y012250D03*
X027100Y012200D03*
X026650Y013700D03*
X026650Y014300D03*
X026450Y014600D03*
X025700Y015150D03*
X024950Y015300D03*
X024950Y016150D03*
X024150Y016950D03*
X022350Y017450D03*
X020350Y016750D03*
X019750Y015500D03*
X021900Y014450D03*
X022800Y014050D03*
X023450Y014050D03*
X023450Y013700D03*
X019750Y013350D03*
X018550Y011400D03*
X016050Y010650D03*
X015450Y016350D03*
X022350Y021050D03*
X027450Y021050D03*
X027450Y017450D03*
X027300Y016900D03*
X028300Y014750D03*
M02*
